<svg width="272" height="272" viewBox="0 0 272 272" fill="none" xmlns="http://www.w3.org/2000/svg">
<path d="M216.692 110.371L220.065 106.503L219.612 105.187L215.406 106.634L214.813 104.909L225.328 101.291L226.577 104.923C226.855 105.73 226.948 106.459 226.856 107.111C226.768 107.773 226.534 108.322 226.153 108.757C225.776 109.203 225.295 109.526 224.71 109.727C224.024 109.963 223.33 109.977 222.626 109.767C221.936 109.565 221.348 109.085 220.862 108.327L217.399 112.429L216.692 110.371ZM220.989 104.713L221.645 106.619C221.867 107.265 222.195 107.694 222.629 107.905C223.066 108.127 223.557 108.144 224.101 107.957C224.646 107.77 225.014 107.463 225.206 107.036C225.407 106.605 225.395 106.062 225.17 105.407L224.514 103.5L220.989 104.713Z" fill="#02836F"/>
<path d="M224.585 124.373C224.26 124.433 223.963 124.467 223.693 124.474L222.461 117.851C221.779 118.032 221.271 118.393 220.937 118.932C220.604 119.472 220.499 120.077 220.624 120.748C220.803 121.713 221.334 122.32 222.215 122.568L222.575 124.503C221.729 124.389 220.985 124.034 220.343 123.437C219.713 122.849 219.303 122.046 219.114 121.029C218.96 120.201 219.005 119.422 219.249 118.693C219.506 117.973 219.934 117.361 220.535 116.859C221.149 116.365 221.901 116.035 222.792 115.869C223.684 115.703 224.498 115.736 225.236 115.968C225.986 116.208 226.605 116.619 227.092 117.201C227.582 117.793 227.906 118.514 228.064 119.364C228.216 120.182 228.174 120.944 227.936 121.65C227.698 122.356 227.288 122.948 226.704 123.425C226.13 123.901 225.424 124.217 224.585 124.373ZM224.803 122.395C225.462 122.262 225.948 121.928 226.261 121.392C226.573 120.856 226.666 120.248 226.539 119.566C226.424 118.947 226.127 118.455 225.646 118.089C225.176 117.72 224.598 117.557 223.911 117.598L224.803 122.395Z" fill="#02836F"/>
<path d="M224.783 128.451C225.668 128.418 226.458 128.571 227.153 128.909C227.849 129.257 228.395 129.738 228.791 130.354C229.198 130.979 229.416 131.676 229.444 132.443C229.469 133.136 229.352 133.743 229.094 134.265C228.846 134.797 228.525 135.225 228.132 135.549L229.411 135.502L229.478 137.341L220.668 137.664L220.601 135.825L221.912 135.777C221.485 135.483 221.123 135.074 220.827 134.552C220.53 134.029 220.369 133.426 220.344 132.744C220.317 131.987 220.484 131.287 220.844 130.644C221.216 130.001 221.741 129.48 222.421 129.082C223.111 128.694 223.899 128.483 224.783 128.451ZM225.014 135.663C225.621 135.641 226.144 135.494 226.583 135.222C227.021 134.96 227.351 134.622 227.571 134.209C227.79 133.795 227.892 133.354 227.875 132.885C227.858 132.416 227.724 131.983 227.475 131.587C227.237 131.19 226.889 130.872 226.432 130.632C225.986 130.403 225.459 130.299 224.851 130.322C224.244 130.344 223.715 130.486 223.266 130.748C222.817 131.02 222.477 131.364 222.247 131.778C222.027 132.202 221.926 132.643 221.943 133.102C221.96 133.571 222.093 134.004 222.342 134.4C222.591 134.797 222.944 135.109 223.401 135.338C223.868 135.577 224.406 135.685 225.014 135.663Z" fill="#02836F"/>
<path d="M231.934 145.075L220.138 144.046L220.298 142.229L232.093 143.258L231.934 145.075Z" fill="#02836F"/>
<path d="M226.29 162.603L223.169 161.65L222.046 165.323L220.623 164.888L221.745 161.216L218.486 160.221L217.223 164.352L215.8 163.918L217.596 158.042L228.247 161.293L226.451 167.169L225.028 166.735L226.29 162.603Z" fill="#02836F"/>
<path d="M212.446 171.563C212.735 170.933 213.106 170.417 213.56 170.015C214.02 169.627 214.51 169.376 215.031 169.263C215.562 169.154 216.075 169.201 216.568 169.404L215.782 171.12C215.429 170.994 215.07 171.023 214.704 171.207C214.343 171.406 214.06 171.728 213.856 172.174C213.642 172.639 213.565 173.038 213.624 173.37C213.688 173.716 213.861 173.954 214.142 174.083C214.443 174.22 214.733 174.177 215.012 173.953C215.286 173.738 215.653 173.361 216.112 172.82C216.552 172.294 216.936 171.878 217.265 171.571C217.593 171.264 217.982 171.043 218.431 170.908C218.876 170.783 219.36 170.841 219.883 171.08C220.31 171.276 220.64 171.579 220.874 171.991C221.117 172.408 221.234 172.896 221.224 173.454C221.21 174.023 221.063 174.612 220.783 175.223C220.365 176.135 219.797 176.76 219.078 177.1C218.365 177.453 217.601 177.468 216.788 177.142L217.548 175.484C217.92 175.619 218.273 175.605 218.607 175.441C218.94 175.277 219.209 174.972 219.413 174.525C219.613 174.089 219.684 173.717 219.626 173.409C219.568 173.1 219.403 172.884 219.131 172.76C218.918 172.662 218.703 172.657 218.486 172.746C218.27 172.834 218.067 172.97 217.877 173.153C217.697 173.341 217.445 173.624 217.118 174.002C216.697 174.513 216.319 174.915 215.985 175.208C215.657 175.515 215.275 175.733 214.84 175.863C214.405 175.992 213.929 175.944 213.41 175.718C212.955 175.51 212.605 175.197 212.362 174.781C212.118 174.364 212.002 173.877 212.011 173.318C212.017 172.769 212.161 172.184 212.446 171.563Z" fill="#02836F"/>
<path d="M213.929 184.471L209.764 181.927C209.482 181.755 209.238 181.693 209.033 181.743C208.831 181.807 208.633 181.998 208.438 182.317L207.854 183.273L206.557 182.48L207.308 181.252C207.736 180.551 208.228 180.114 208.784 179.941C209.34 179.768 209.986 179.907 210.724 180.357L214.888 182.901L215.431 182.013L216.7 182.789L216.158 183.676L218.029 184.819L217.069 186.389L215.198 185.246L214.08 187.076L212.81 186.3L213.929 184.471Z" fill="#02836F"/>
<path d="M207.832 188.505C208.522 189.06 209.019 189.692 209.324 190.402C209.623 191.121 209.72 191.842 209.617 192.567C209.516 193.306 209.224 193.975 208.743 194.574C208.309 195.114 207.823 195.497 207.286 195.722C206.751 195.963 206.228 196.076 205.718 196.064L206.716 196.865L205.564 198.3L198.691 192.778L199.843 191.344L200.866 192.166C200.736 191.664 200.729 191.119 200.847 190.529C200.965 189.94 201.238 189.379 201.666 188.847C202.14 188.257 202.724 187.836 203.418 187.586C204.12 187.343 204.858 187.293 205.632 187.436C206.408 187.594 207.141 187.951 207.832 188.505ZM203.286 194.11C203.76 194.491 204.252 194.721 204.762 194.802C205.264 194.892 205.734 194.852 206.171 194.683C206.608 194.514 206.974 194.247 207.268 193.881C207.562 193.515 207.744 193.101 207.815 192.638C207.894 192.182 207.84 191.713 207.651 191.233C207.463 190.768 207.133 190.345 206.659 189.964C206.185 189.584 205.692 189.345 205.181 189.249C204.663 189.161 204.181 189.199 203.736 189.361C203.293 189.538 202.927 189.806 202.64 190.163C202.346 190.529 202.163 190.943 202.092 191.406C202.021 191.869 202.084 192.337 202.279 192.808C202.476 193.295 202.812 193.729 203.286 194.11Z" fill="#02836F"/>
<path d="M198.984 202.738L195.603 199.22C195.373 198.982 195.153 198.86 194.942 198.856C194.731 198.867 194.49 199.002 194.221 199.26L193.413 200.036L192.36 198.941L193.398 197.943C193.991 197.374 194.578 197.076 195.159 197.05C195.741 197.024 196.331 197.322 196.929 197.945L200.311 201.464L201.061 200.743L202.092 201.816L201.342 202.536L202.861 204.117L201.534 205.392L200.015 203.811L198.469 205.297L197.438 204.224L198.984 202.738Z" fill="#02836F"/>
<path d="M185.2 210.418C185.002 210.153 184.841 209.901 184.715 209.662L190.111 205.63C189.647 205.098 189.099 204.801 188.468 204.74C187.836 204.68 187.247 204.854 186.7 205.262C185.914 205.85 185.605 206.594 185.772 207.494L184.195 208.672C183.923 207.863 183.913 207.039 184.164 206.199C184.413 205.374 184.952 204.651 185.781 204.032C186.456 203.528 187.174 203.224 187.936 203.12C188.695 203.032 189.433 203.146 190.15 203.463C190.864 203.795 191.492 204.324 192.035 205.05C192.578 205.777 192.909 206.522 193.027 207.286C193.143 208.064 193.048 208.801 192.742 209.496C192.427 210.197 191.923 210.807 191.231 211.324C190.565 211.822 189.862 212.12 189.124 212.219C188.386 212.319 187.673 212.212 186.987 211.899C186.307 211.595 185.711 211.101 185.2 210.418ZM187.07 209.739C187.481 210.271 187.996 210.559 188.615 210.603C189.233 210.646 189.82 210.461 190.376 210.046C190.88 209.669 191.19 209.184 191.306 208.591C191.429 208.007 191.32 207.416 190.98 206.818L187.07 209.739Z" fill="#02836F"/>
<path d="M168.415 213.885C169.101 213.591 169.77 213.445 170.419 213.445C171.073 213.456 171.652 213.614 172.154 213.921C172.657 214.229 173.034 214.676 173.286 215.265L171.491 216.032C171.263 215.608 170.936 215.318 170.51 215.164C170.075 215.014 169.578 215.058 169.019 215.297C168.44 215.544 168.048 215.875 167.841 216.288C167.639 216.711 167.633 217.143 167.821 217.584C167.968 217.927 168.191 218.163 168.489 218.29C168.777 218.422 169.099 218.482 169.453 218.47C169.798 218.462 170.264 218.413 170.852 218.324C171.595 218.215 172.215 218.159 172.712 218.155C173.203 218.165 173.678 218.299 174.136 218.556C174.594 218.812 174.959 219.259 175.231 219.897C175.483 220.485 175.556 221.063 175.451 221.63C175.345 222.198 175.078 222.712 174.649 223.174C174.22 223.636 173.657 224.015 172.961 224.313C171.97 224.737 171.054 224.833 170.213 224.601C169.365 224.383 168.723 223.857 168.285 223.024L170.139 222.231C170.328 222.591 170.641 222.834 171.077 222.961C171.514 223.087 171.998 223.037 172.527 222.811C173.008 222.605 173.348 222.315 173.547 221.94C173.746 221.565 173.747 221.146 173.55 220.685C173.416 220.372 173.211 220.152 172.937 220.025C172.657 219.913 172.345 219.861 172 219.869C171.656 219.877 171.199 219.922 170.63 220.002C169.874 220.105 169.245 220.154 168.744 220.148C168.232 220.146 167.746 220.012 167.284 219.745C166.816 219.493 166.444 219.043 166.167 218.396C165.945 217.876 165.878 217.325 165.965 216.742C166.042 216.164 166.29 215.617 166.708 215.102C167.12 214.601 167.689 214.195 168.415 213.885Z" fill="#02836F"/>
<path d="M162.356 226.725C162.673 226.632 162.971 226.662 163.248 226.814C163.526 226.965 163.712 227.2 163.805 227.517C163.898 227.835 163.868 228.132 163.717 228.41C163.565 228.688 163.33 228.874 163.013 228.967C162.706 229.057 162.413 229.026 162.135 228.874C161.857 228.722 161.672 228.487 161.579 228.17C161.486 227.853 161.515 227.555 161.667 227.277C161.819 226.999 162.049 226.815 162.356 226.725ZM161.167 225.856L158.688 217.396L160.438 216.883L162.918 225.343L161.167 225.856Z" fill="#02836F"/>
<path d="M149.789 228.467C149.105 228.578 148.471 228.536 147.888 228.339C147.294 228.144 146.799 227.792 146.403 227.284C146.007 226.776 145.744 226.127 145.616 225.337L144.78 220.205L146.564 219.914L147.356 224.778C147.483 225.557 147.775 226.12 148.231 226.467C148.689 226.825 149.255 226.949 149.929 226.839C150.603 226.729 151.105 226.431 151.437 225.945C151.76 225.471 151.857 224.844 151.731 224.065L150.938 219.201L152.739 218.908L154.156 227.609L152.356 227.902L152.194 226.907C151.957 227.313 151.629 227.653 151.209 227.927C150.778 228.203 150.305 228.383 149.789 228.467Z" fill="#02836F"/>
<path d="M140.585 224.922C140.598 225.828 140.428 226.626 140.075 227.313C139.711 228.012 139.207 228.552 138.561 228.935C137.916 229.317 137.172 229.515 136.329 229.527C135.263 229.542 134.379 229.298 133.679 228.796C132.968 228.305 132.483 227.592 132.225 226.657L134.193 226.629C134.359 227.064 134.619 227.401 134.975 227.642C135.33 227.882 135.775 227.998 136.308 227.991C137.054 227.98 137.648 227.705 138.088 227.165C138.518 226.637 138.727 225.898 138.714 224.948C138.7 223.999 138.471 223.261 138.027 222.734C137.571 222.207 136.97 221.949 136.224 221.959C135.168 221.974 134.476 222.448 134.147 223.381L132.179 223.409C132.423 222.509 132.893 221.788 133.589 221.245C134.286 220.712 135.157 220.438 136.202 220.424C137.045 220.412 137.794 220.588 138.45 220.952C139.106 221.326 139.625 221.852 140.008 222.53C140.38 223.218 140.573 224.015 140.585 224.922Z" fill="#02836F"/>
<path d="M119.211 223.805C119.253 223.477 119.313 223.184 119.389 222.925L126.07 223.788C126.107 223.083 125.921 222.488 125.51 222.005C125.099 221.522 124.555 221.237 123.878 221.149C122.905 221.023 122.165 221.342 121.657 222.104L119.705 221.852C120.074 221.083 120.641 220.484 121.406 220.055C122.16 219.636 123.049 219.493 124.075 219.626C124.911 219.734 125.638 220.016 126.257 220.472C126.863 220.938 127.313 221.534 127.607 222.26C127.888 222.995 127.97 223.813 127.854 224.712C127.737 225.611 127.456 226.376 127.008 227.006C126.549 227.646 125.968 228.109 125.264 228.394C124.549 228.678 123.764 228.765 122.907 228.655C122.082 228.548 121.37 228.273 120.771 227.83C120.172 227.387 119.735 226.814 119.461 226.112C119.185 225.42 119.101 224.651 119.211 223.805ZM121.025 224.62C120.949 225.288 121.118 225.853 121.532 226.315C121.945 226.777 122.496 227.053 123.183 227.141C123.807 227.222 124.368 227.09 124.864 226.746C125.359 226.412 125.693 225.911 125.865 225.245L121.025 224.62Z" fill="#02836F"/>
<path d="M106.525 218.063C105.252 218.523 104.24 218.912 103.49 219.23C102.726 219.554 102.048 219.934 101.458 220.37C100.868 220.806 100.462 221.313 100.24 221.891C100.011 222.488 99.9756 223.011 100.134 223.461C100.283 223.906 100.662 224.246 101.269 224.479C101.857 224.704 102.387 224.691 102.861 224.438C103.322 224.192 103.682 223.759 103.943 223.139L105.586 223.769C105.12 224.893 104.449 225.63 103.572 225.979C102.682 226.334 101.734 226.319 100.728 225.933C99.6423 225.517 98.9104 224.893 98.5323 224.063C98.1442 223.229 98.1412 222.314 98.5235 221.318C98.7987 220.601 99.2486 219.979 99.8733 219.454C100.484 218.934 101.145 218.507 101.855 218.174C102.552 217.848 103.421 217.49 104.461 217.1L105.363 216.761L100.627 214.944L101.172 213.525L108.432 216.31L107.956 217.55L106.525 218.063Z" fill="#02836F"/>
<path d="M94.2724 216.64C93.3652 218.247 92.3878 219.349 91.3403 219.946C90.2783 220.547 89.0831 220.473 87.7546 219.724C86.4261 218.974 85.7494 217.992 85.7245 216.778C85.685 215.568 86.1189 214.159 87.0261 212.552C87.9438 210.927 88.9363 209.809 90.0035 209.198C91.0563 208.592 92.2469 208.664 93.5754 209.413C94.9038 210.163 95.5852 211.147 95.6194 212.367C95.6391 213.59 95.1901 215.015 94.2724 216.64ZM88.5868 213.433C88.1621 214.185 87.854 214.85 87.6625 215.428C87.4617 216 87.4182 216.533 87.532 217.026C87.6405 217.528 87.9874 217.944 88.5726 218.274C89.1579 218.605 89.6936 218.686 90.1796 218.52C90.6605 218.362 91.0988 218.052 91.4947 217.59C91.8812 217.122 92.2869 216.512 92.7116 215.76C93.1521 214.98 93.4754 214.298 93.6814 213.717C93.8874 213.135 93.9335 212.597 93.8198 212.105C93.6967 211.606 93.3426 211.192 92.7573 210.862C92.172 210.532 91.639 210.446 91.1582 210.603C90.6681 210.755 90.2271 211.07 89.8353 211.547C89.4435 212.024 89.0273 212.652 88.5868 213.433Z" fill="#02836F"/>
<path d="M83.8637 206.037C82.5117 206.107 81.4305 206.184 80.6202 206.27C79.795 206.358 79.0366 206.525 78.3451 206.771C77.6536 207.017 77.1179 207.384 76.7379 207.872C76.3448 208.377 76.159 208.868 76.1804 209.344C76.1934 209.813 76.4567 210.248 76.9702 210.648C77.467 211.034 77.9787 211.175 78.5055 211.072C79.0173 210.97 79.488 210.66 79.9176 210.143L81.3068 211.224C80.5347 212.164 79.6785 212.673 78.7381 212.753C77.7828 212.834 76.88 212.544 76.0296 211.882C75.1119 211.168 74.5929 210.359 74.4724 209.454C74.3434 208.543 74.6066 207.667 75.2617 206.825C75.7334 206.219 76.3445 205.755 77.0949 205.434C77.8304 205.114 78.5865 204.898 79.3631 204.786C80.1247 204.675 81.0599 204.585 82.1686 204.515L83.13 204.452L79.1267 201.338L80.0602 200.139L86.1979 204.913L85.3822 205.961L83.8637 206.037Z" fill="#02836F"/>
<path d="M74.3968 197.954C73.0487 197.831 71.9674 197.755 71.1532 197.725C70.3239 197.694 69.5495 197.752 68.8301 197.897C68.1107 198.042 67.5282 198.329 67.0827 198.758C66.6218 199.202 66.3681 199.661 66.3216 200.136C66.2677 200.602 66.4665 201.07 66.918 201.538C67.3548 201.992 67.8412 202.204 68.3774 202.177C68.8985 202.148 69.4084 201.909 69.9071 201.458L71.1285 202.725C70.2306 203.546 69.3106 203.929 68.3686 203.874C67.4115 203.818 66.5591 203.403 65.8115 202.627C65.0046 201.79 64.6059 200.915 64.6152 200.002C64.6172 199.082 65.0022 198.252 65.7704 197.512C66.3234 196.979 66.9943 196.607 67.7828 196.395C68.5563 196.183 69.3353 196.077 70.1199 196.076C70.8895 196.075 71.828 196.119 72.9354 196.208L73.8959 196.282L70.3761 192.63L71.4708 191.575L76.867 197.174L75.9107 198.096L74.3968 197.954Z" fill="#02836F"/>
<path d="M54.9203 178.646L56.2463 177.871L59.5657 183.548L58.2397 184.323L54.9203 178.646Z" fill="#02836F"/>
<path d="M44.1276 164.429L54.7942 161.286L55.3097 163.036L44.6431 166.179L44.1276 164.429ZM43.311 165.621C43.3864 165.876 43.3642 166.122 43.2446 166.357C43.1116 166.586 42.9173 166.737 42.6615 166.813C42.4057 166.888 42.1652 166.864 41.94 166.742C41.7016 166.612 41.5447 166.419 41.4693 166.163C41.3939 165.907 41.4227 165.665 41.5556 165.437C41.6753 165.202 41.863 165.046 42.1188 164.971C42.3746 164.896 42.6217 164.923 42.8602 165.053C43.0854 165.175 43.2356 165.365 43.311 165.621Z" fill="#02836F"/>
<path d="M43.5835 154.56C43.4874 153.874 43.5442 153.241 43.754 152.662C43.9623 152.073 44.3249 151.586 44.8419 151.201C45.3589 150.817 46.0135 150.569 46.8058 150.458L51.9555 149.737L52.2062 151.527L47.3258 152.211C46.5441 152.32 45.9747 152.599 45.6174 153.048C45.2496 153.498 45.113 154.061 45.2077 154.737C45.3023 155.413 45.5891 155.922 46.0678 156.264C46.5345 156.597 47.1587 156.709 47.9404 156.6L52.8208 155.916L53.0738 157.723L44.3429 158.945L44.09 157.139L45.0883 156.999C44.6877 156.754 44.3552 156.418 44.0909 155.992C43.8251 155.555 43.656 155.078 43.5835 154.56Z" fill="#02836F"/>
<path d="M50.2109 142.284L43.0481 139.729L43.0644 137.794L51.8518 141.226L51.8335 143.402L42.9897 146.673L43.0061 144.721L50.2109 142.284Z" fill="#02836F"/>
<path d="M48.9392 124.096C49.267 124.14 49.5602 124.2 49.819 124.277L48.9318 130.955C49.6367 130.994 50.2316 130.81 50.7164 130.401C51.2011 129.991 51.4885 129.448 51.5784 128.772C51.7076 127.799 51.3918 127.058 50.631 126.548L50.8902 124.597C51.6587 124.968 52.2557 125.537 52.6811 126.303C53.0973 127.058 53.2373 127.948 53.1011 128.974C52.9901 129.809 52.7053 130.535 52.2467 131.152C51.7789 131.757 51.1814 132.205 50.4541 132.496C49.7176 132.775 48.8999 132.855 48.0011 132.736C47.1023 132.617 46.3384 132.333 45.7095 131.883C45.0713 131.422 44.6107 130.839 44.3277 130.134C44.0462 129.419 43.9623 128.633 44.0761 127.777C44.1856 126.952 44.463 126.241 44.9082 125.644C45.3535 125.046 45.9277 124.612 46.6311 124.339C47.3239 124.065 48.0932 123.984 48.9392 124.096ZM48.1174 125.908C47.4498 125.83 46.8842 125.997 46.4206 126.409C45.957 126.821 45.6795 127.371 45.5882 128.058C45.5053 128.682 45.6353 129.243 45.9781 129.74C46.3103 130.236 46.8092 130.571 47.4747 130.745L48.1174 125.908Z" fill="#02836F"/>
<path d="M55.5191 118.012C55.287 118.666 54.9625 119.213 54.5456 119.653C54.1222 120.08 53.6559 120.373 53.1467 120.532C52.6275 120.687 52.113 120.686 51.6032 120.527L52.2352 118.748C52.5978 118.843 52.9532 118.782 53.3016 118.567C53.6435 118.337 53.8966 117.991 54.0609 117.529C54.2323 117.046 54.2739 116.642 54.1858 116.317C54.0912 115.978 53.8982 115.756 53.6067 115.653C53.2951 115.542 53.0103 115.611 52.7524 115.859C52.498 116.097 52.1661 116.505 51.7567 117.084C51.3644 117.647 51.0182 118.096 50.7181 118.431C50.418 118.765 50.0503 119.02 49.615 119.193C49.1833 119.357 48.696 119.343 48.1532 119.15C47.7109 118.993 47.3553 118.72 47.0862 118.33C46.8071 117.937 46.6477 117.461 46.608 116.904C46.5719 116.336 46.6663 115.736 46.8913 115.103C47.227 114.158 47.7378 113.485 48.4239 113.083C49.1034 112.668 49.8625 112.586 50.7011 112.839L50.0904 114.557C49.7078 114.456 49.3577 114.501 49.0401 114.694C48.7226 114.887 48.4817 115.215 48.3174 115.677C48.1567 116.129 48.119 116.506 48.2041 116.808C48.2893 117.11 48.4727 117.311 48.7541 117.411C48.9753 117.489 49.1898 117.475 49.3977 117.368C49.6056 117.26 49.7959 117.107 49.9685 116.908C50.131 116.705 50.358 116.401 50.6494 115.995C51.0245 115.449 51.3653 115.016 51.6719 114.694C51.972 114.359 52.3328 114.108 52.7545 113.941C53.1762 113.774 53.6552 113.78 54.1915 113.959C54.664 114.126 55.0397 114.407 55.3188 114.8C55.5979 115.194 55.7573 115.669 55.797 116.226C55.8403 116.774 55.7476 117.369 55.5191 118.012Z" fill="#02836F"/>
<path d="M52.0109 105.642L56.3524 107.87C56.6466 108.021 56.8942 108.064 57.0953 108C57.2918 107.921 57.4753 107.715 57.6459 107.383L58.1576 106.387L59.5099 107.081L58.8519 108.362C58.4766 109.092 58.0183 109.565 57.4768 109.778C56.9354 109.992 56.2803 109.901 55.5117 109.507L51.1702 107.278L50.695 108.203L49.3713 107.524L49.8464 106.599L47.8964 105.598L48.7371 103.961L50.6872 104.962L51.6668 103.055L52.9906 103.735L52.0109 105.642Z" fill="#02836F"/>
<path d="M55.4488 84.5563L64.6694 90.7721L63.6495 92.2842L59.6163 89.5654L56.6906 93.903L60.7238 96.6218L59.7038 98.134L50.4833 91.9182L51.5032 90.4061L55.4568 93.0712L58.3824 88.7337L54.4289 86.0685L55.4488 84.5563Z" fill="#02836F"/>
<path d="M68.6192 83.3645C68.0695 83.989 67.4325 84.4302 66.7082 84.688C65.9759 84.9387 65.2266 84.9828 64.4604 84.8201C63.6861 84.6503 62.9586 84.266 62.2779 83.6671C61.6052 83.0752 61.139 82.4022 60.8792 81.6479C60.6195 80.8937 60.575 80.1371 60.7458 79.378C60.9165 78.619 61.2803 77.9232 61.8371 77.2907C62.3938 76.6582 63.0379 76.209 63.7692 75.9432C64.5006 75.6773 65.2569 75.6253 66.0382 75.7871C66.8195 75.9488 67.5465 76.3256 68.2192 76.9175C68.8919 77.5093 69.3546 78.1864 69.6073 78.9486C69.86 79.7109 69.898 80.483 69.7211 81.2651C69.5433 82.0322 69.176 82.732 68.6192 83.3645ZM67.43 82.3182C67.7401 81.9659 67.945 81.5636 68.0446 81.1114C68.1513 80.6512 68.1211 80.177 67.9539 79.6889C67.7867 79.2008 67.4628 78.7454 66.9823 78.3226C66.5018 77.8999 66.0164 77.6361 65.5259 77.5314C65.0275 77.4196 64.5603 77.4419 64.1243 77.5982C63.6883 77.7544 63.3152 78.0087 63.0051 78.361C62.695 78.7133 62.4902 79.1156 62.3905 79.5678C62.2979 80.012 62.3423 80.4702 62.5236 80.9422C62.6969 81.4073 63.0238 81.8512 63.5042 82.2739C64.217 82.901 64.9281 83.207 65.6377 83.192C66.3463 83.1619 66.9437 82.8706 67.43 82.3182Z" fill="#02836F"/>
<path d="M76.1485 63.3689C76.6694 62.9114 77.2293 62.6113 77.8282 62.4687C78.435 62.3191 79.0412 62.3546 79.6468 62.5752C80.2603 62.7888 80.8311 63.1961 81.3591 63.7971L84.791 67.7038L83.4325 68.8968L80.1801 65.1945C79.6591 64.6015 79.1131 64.2789 78.542 64.2268C77.9639 64.1667 77.4183 64.3618 76.9054 64.8123C76.3924 65.2628 76.1244 65.782 76.1015 66.37C76.0795 66.943 76.329 67.5259 76.8499 68.119L80.1023 71.8213L78.7438 73.0143L75.4914 69.312C74.9704 68.719 74.4244 68.3964 73.8533 68.3443C73.2752 68.2842 72.7296 68.4793 72.2167 68.9298C71.7037 69.3803 71.4358 69.8995 71.4128 70.4875C71.3908 71.0605 71.6403 71.6435 72.1612 72.2365L75.4136 75.9388L74.0431 77.1424L68.2247 70.5191L69.5952 69.3155L70.2605 70.0728C70.2455 69.6032 70.3435 69.141 70.5544 68.6861C70.7653 68.2312 71.0671 67.8313 71.4598 67.4864C71.9888 67.0219 72.5602 66.7188 73.1741 66.5772C73.788 66.4355 74.3937 66.4786 74.9912 66.7062C74.8396 66.1296 74.8741 65.5385 75.0947 64.9331C75.3083 64.3196 75.6596 63.7982 76.1485 63.3689Z" fill="#02836F"/>
<path d="M92.883 56.448C93.0689 56.7215 93.2192 56.9804 93.3339 57.2249L87.7631 61.0117C88.203 61.5639 88.737 61.8845 89.365 61.9735C89.9931 62.0625 90.5894 61.9151 91.154 61.5313C91.9656 60.9797 92.3081 60.2503 92.1815 59.3432L93.8091 58.2368C94.0443 59.0571 94.0178 59.8813 93.7294 60.7093C93.4439 61.5225 92.8733 62.2199 92.0176 62.8015C91.3207 63.2753 90.5894 63.5467 89.8238 63.6157C89.0609 63.6699 88.3288 63.5227 87.6274 63.174C86.9288 62.8106 86.3246 62.2539 85.8148 61.5042C85.305 60.7544 85.0082 59.9953 84.9243 59.2269C84.8432 58.4436 84.9712 57.7117 85.3082 57.0312C85.6541 56.3447 86.1843 55.7586 86.8988 55.2729C87.5869 54.8052 88.3019 54.5384 89.044 54.4725C89.786 54.4066 90.4929 54.5452 91.1647 54.8882C91.8304 55.2224 92.4032 55.7423 92.883 56.448ZM90.9845 57.042C90.5979 56.4923 90.0965 56.1818 89.4804 56.1104C88.8644 56.0391 88.2697 56.1983 87.6963 56.5881C87.1758 56.9419 86.8443 57.4123 86.7017 57.9993C86.5531 58.5776 86.6354 59.1729 86.9487 59.7854L90.9845 57.042Z" fill="#02836F"/>
<path d="M106.542 56.2445C105.843 56.507 105.169 56.6235 104.52 56.5939C103.867 56.5542 103.296 56.3698 102.808 56.0404C102.32 55.7111 101.963 55.2468 101.738 54.6477L103.566 53.9614C103.774 54.3957 104.088 54.6996 104.506 54.8729C104.934 55.0424 105.433 55.0203 106.002 54.8066C106.591 54.5853 106.998 54.273 107.223 53.8696C107.444 53.4562 107.47 53.0249 107.301 52.5755C107.17 52.226 106.958 51.9808 106.666 51.8399C106.383 51.6952 106.065 51.6211 105.71 51.6175C105.366 51.6102 104.898 51.6379 104.306 51.7007C103.56 51.776 102.938 51.8044 102.441 51.7859C101.95 51.7537 101.482 51.5991 101.036 51.3222C100.59 51.0453 100.246 50.5823 100.002 49.9332C99.7768 49.334 99.7297 48.7535 99.8605 48.1917C99.9913 47.6298 100.281 47.1278 100.731 46.6856C101.18 46.2434 101.759 45.8892 102.468 45.6229C103.476 45.2441 104.396 45.1893 105.226 45.4586C106.063 45.7141 106.681 46.2681 107.081 47.1205L105.194 47.8294C105.021 47.4612 104.72 47.2042 104.289 47.0583C103.858 46.9125 103.373 46.9408 102.834 47.1433C102.344 47.3271 101.992 47.6019 101.776 47.9678C101.56 48.3337 101.541 48.7514 101.717 49.2207C101.837 49.5402 102.031 49.7692 102.3 49.9077C102.574 50.0324 102.884 50.0984 103.228 50.1057C103.573 50.113 104.031 50.0891 104.603 50.0338C105.363 49.9648 105.994 49.9445 106.494 49.9729C107.005 49.9976 107.485 50.1534 107.935 50.4404C108.39 50.7135 108.742 51.1797 108.99 51.8387C109.188 52.3679 109.231 52.9216 109.118 53.4997C109.014 54.074 108.743 54.6091 108.302 55.105C107.868 55.5871 107.281 55.967 106.542 56.2445Z" fill="#02836F"/>
<path d="M113.17 43.6881C112.849 43.7668 112.553 43.7241 112.282 43.5599C112.011 43.3956 111.836 43.1529 111.758 42.8318C111.679 42.5106 111.722 42.2146 111.886 41.9437C112.05 41.6728 112.293 41.498 112.614 41.4192C112.925 41.343 113.216 41.387 113.487 41.5513C113.757 41.7155 113.932 41.9582 114.011 42.2793C114.09 42.6005 114.047 42.8965 113.883 43.1674C113.718 43.4383 113.481 43.6119 113.17 43.6881ZM114.318 44.6092L116.417 53.1718L114.645 53.6061L112.547 45.0435L114.318 44.6092Z" fill="#02836F"/>
<path d="M125.802 42.5108C126.491 42.43 127.122 42.5009 127.696 42.7235C128.28 42.9449 128.759 43.3184 129.132 43.8438C129.505 44.3692 129.738 45.0292 129.831 45.8238L130.436 50.9885L128.641 51.1992L128.067 46.3047C127.975 45.5207 127.709 44.9451 127.269 44.5779C126.827 44.2002 126.267 44.0511 125.589 44.1306C124.911 44.2102 124.396 44.4855 124.043 44.9565C123.699 45.4156 123.574 46.0372 123.665 46.8212L124.239 51.7157L122.427 51.9283L121.401 43.1722L123.213 42.9596L123.33 43.9607C123.585 43.5657 123.928 43.2409 124.36 42.9861C124.802 42.7301 125.283 42.5717 125.802 42.5108Z" fill="#02836F"/>
<path d="M134.839 46.4638C134.867 45.5576 135.073 44.7688 135.456 44.0976C135.851 43.416 136.379 42.8986 137.041 42.5453C137.703 42.1921 138.455 42.0283 139.297 42.0541C140.363 42.0867 141.235 42.3695 141.912 42.9025C142.601 43.4251 143.053 44.1593 143.269 45.105L141.302 45.0448C141.156 44.6028 140.91 44.2538 140.566 43.9978C140.222 43.7418 139.783 43.6057 139.25 43.5894C138.504 43.5665 137.898 43.8148 137.434 44.3342C136.981 44.8432 136.74 45.5722 136.71 46.5211C136.681 47.47 136.877 48.2176 137.298 48.7641C137.729 49.3109 138.318 49.5957 139.064 49.6185C140.12 49.6508 140.832 49.2084 141.202 48.2913L143.169 48.3515C142.886 49.2392 142.384 49.9389 141.664 50.4504C140.944 50.9513 140.062 51.1858 139.017 51.1538C138.174 51.128 137.434 50.9186 136.795 50.5255C136.157 50.1218 135.661 49.5731 135.309 48.8793C134.968 48.1752 134.811 47.3701 134.839 46.4638Z" fill="#02836F"/>
<path d="M156.14 48.5361C156.083 48.8618 156.011 49.1523 155.923 49.4076L149.288 48.2464C149.219 48.9491 149.378 49.551 149.767 50.0521C150.156 50.5533 150.686 50.8627 151.359 50.9804C152.325 51.1495 153.079 50.8645 153.62 50.1254L155.559 50.4647C155.156 51.2172 154.563 51.7902 153.779 52.1836C153.008 52.5684 152.113 52.6717 151.094 52.4933C150.263 52.3481 149.55 52.0336 148.952 51.5501C148.367 51.0578 147.944 50.4424 147.684 49.7038C147.436 48.9565 147.39 48.1364 147.547 47.2433C147.703 46.3503 148.019 45.5988 148.494 44.9889C148.981 44.3703 149.583 43.9342 150.299 43.6804C151.025 43.4285 151.814 43.3771 152.665 43.526C153.485 43.6694 154.184 43.9758 154.762 44.4452C155.34 44.9146 155.751 45.5062 155.994 46.2202C156.239 46.9236 156.288 47.6955 156.14 48.5361ZM154.364 47.6405C154.47 46.9767 154.327 46.4048 153.934 45.9246C153.542 45.4445 153.004 45.1447 152.321 45.0252C151.701 44.9167 151.136 45.0234 150.624 45.3455C150.115 45.657 149.759 46.1416 149.557 46.7993L154.364 47.6405Z" fill="#02836F"/>
<path d="M168.556 54.84C169.849 54.4377 170.877 54.0946 171.641 53.8108C172.419 53.5215 173.112 53.1722 173.721 52.7628C174.331 52.3534 174.759 51.8652 175.006 51.2981C175.262 50.7115 175.321 50.1902 175.182 49.7342C175.053 49.2824 174.691 48.9266 174.094 48.6666C173.517 48.4151 172.986 48.4049 172.502 48.6358C172.031 48.8611 171.652 49.2775 171.363 49.885L169.75 49.1818C170.265 48.08 170.969 47.3743 171.86 47.0647C172.766 46.7495 173.712 46.8072 174.7 47.2376C175.766 47.7022 176.469 48.3577 176.81 49.2043C177.16 50.0552 177.122 50.9695 176.696 51.9472C176.388 52.6511 175.911 53.2518 175.264 53.7492C174.63 54.241 173.951 54.6374 173.226 54.9382C172.516 55.2335 171.632 55.5523 170.575 55.8945L169.659 56.1934L174.309 58.2199L173.701 59.6131L166.572 56.5063L167.103 55.289L168.556 54.84Z" fill="#02836F"/>
<path d="M180.731 56.8097C181.71 55.245 182.735 54.1879 183.809 53.6384C184.896 53.0855 186.087 53.2132 187.381 54.0214C188.674 54.8297 189.306 55.8409 189.277 57.0551C189.262 58.2659 188.766 59.6536 187.787 61.2183C186.798 62.8011 185.756 63.8735 184.663 64.4354C183.584 64.994 182.398 64.8691 181.104 64.0609C179.811 63.2527 179.174 62.2386 179.194 61.0188C179.23 59.7955 179.742 58.3925 180.731 56.8097ZM186.268 60.2688C186.726 59.5362 187.063 58.8855 187.28 58.3169C187.507 57.7538 187.574 57.2236 187.482 56.7262C187.396 56.2197 187.069 55.7884 186.499 55.4324C185.929 55.0763 185.397 54.9706 184.904 55.1154C184.417 55.251 183.965 55.5411 183.549 55.9854C183.142 56.4354 182.709 57.0267 182.251 57.7593C181.776 58.519 181.423 59.1849 181.191 59.757C180.959 60.329 180.889 60.8638 180.981 61.3612C181.081 61.8643 181.416 62.2939 181.986 62.6499C182.556 63.006 183.085 63.1162 183.572 62.9805C184.069 62.8505 184.523 62.5559 184.936 62.0969C185.349 61.6379 185.793 61.0285 186.268 60.2688Z" fill="#02836F"/>
<path d="M190.655 67.8687C192.009 67.8593 193.093 67.8299 193.906 67.7803C194.734 67.7296 195.499 67.5968 196.201 67.3821C196.903 67.1674 197.455 66.8247 197.856 66.354C198.271 65.867 198.479 65.3853 198.479 64.9086C198.487 64.4389 198.243 63.993 197.748 63.5709C197.269 63.1627 196.764 62.9986 196.233 63.0786C195.718 63.1575 195.233 63.4457 194.781 63.9431L193.442 62.8014C194.255 61.8969 195.133 61.4261 196.076 61.3889C197.034 61.3505 197.923 61.6808 198.743 62.3797C199.628 63.1339 200.11 63.9656 200.19 64.8747C200.278 65.7906 199.976 66.6544 199.284 67.466C198.786 68.0504 198.154 68.4864 197.39 68.7742C196.641 69.0607 195.876 69.2426 195.095 69.3199C194.33 69.3959 193.391 69.444 192.281 69.4643L191.317 69.4842L195.177 72.7745L194.191 73.9311L188.273 68.8866L189.135 67.8761L190.655 67.8687Z" fill="#02836F"/>
<path d="M199.751 76.3677C201.092 76.5509 202.169 76.6758 202.981 76.7424C203.808 76.81 204.585 76.7874 205.31 76.6746C206.035 76.5619 206.63 76.3011 207.094 75.8922C207.574 75.4692 207.848 75.0219 207.916 74.5501C207.991 74.0863 207.813 73.6102 207.383 73.122C206.967 72.6498 206.49 72.4155 205.954 72.4193C205.432 72.424 204.912 72.6404 204.393 73.0685L203.23 71.7479C204.164 70.9683 205.1 70.6271 206.038 70.7244C206.992 70.8226 207.825 71.2759 208.537 72.0843C209.306 72.9567 209.665 73.8485 209.615 74.7597C209.571 75.679 209.15 76.491 208.349 77.196C207.773 77.7036 207.086 78.0454 206.289 78.2216C205.507 78.3988 204.724 78.47 203.94 78.4355C203.171 78.4019 202.235 78.3161 201.133 78.1782L200.177 78.0609L203.529 81.8668L202.389 82.8713L197.249 77.0365L198.245 76.1588L199.751 76.3677Z" fill="#02836F"/>
<path d="M218.343 96.5277L216.984 97.2428L213.922 91.4232L215.281 90.708L218.343 96.5277Z" fill="#02836F"/>
</svg>
