<svg width="24" height="24" viewBox="0 0 24 24" fill="none" xmlns="http://www.w3.org/2000/svg">
<path opacity="0.5" fill-rule="evenodd" clip-rule="evenodd" d="M12.8691 7C13.1344 7 13.3887 7.10536 13.5762 7.29289C13.7638 7.48043 13.8691 7.73478 13.8691 8V11.586L15.5761 13.293C15.7583 13.4816 15.8591 13.7342 15.8568 13.9964C15.8545 14.2586 15.7494 14.5094 15.564 14.6948C15.3786 14.8802 15.1277 14.9854 14.8655 14.9877C14.6033 14.99 14.3507 14.8892 14.1621 14.707L12.1621 12.707C11.9746 12.5195 11.8692 12.2652 11.8691 12V8C11.8691 7.73478 11.9745 7.48043 12.162 7.29289C12.3496 7.10536 12.6039 7 12.8691 7Z" fill="white"/>
<path d="M6.62673 8.831C7.29955 7.50505 8.37709 6.42779 9.70321 5.75533C11.0293 5.08286 12.5351 4.85013 14.0024 5.09085C15.4696 5.33158 16.8221 6.03326 17.8639 7.09421C18.9056 8.15515 19.5824 9.52025 19.7963 10.9917C20.0102 12.4631 19.7499 13.9644 19.0533 15.278C18.3567 16.5916 17.26 17.6493 15.9219 18.2977C14.5839 18.9462 13.0742 19.1517 11.6115 18.8846C10.1488 18.6175 8.80917 17.8915 7.78673 16.812C7.60426 16.6194 7.35278 16.5073 7.0876 16.5001C6.82243 16.493 6.56528 16.5915 6.37273 16.774C6.18019 16.9565 6.06801 17.2079 6.06088 17.4731C6.05376 17.7383 6.15226 17.9954 6.33473 18.188C7.66782 19.5953 9.41966 20.5346 11.3296 20.8661C13.2395 21.1977 15.2054 20.9036 16.9348 20.0279C18.6641 19.1521 20.0645 17.7414 20.9276 16.0056C21.7906 14.2698 22.0701 12.3018 21.7246 10.3944C21.379 8.48696 20.4268 6.74207 19.0097 5.41938C17.5926 4.09669 15.7864 3.26689 13.8597 3.05345C11.933 2.84001 9.98886 3.25435 8.31662 4.23481C6.64438 5.21527 5.33339 6.70945 4.57873 8.495L3.98573 7.469C3.85218 7.24119 3.63395 7.07546 3.37865 7.00796C3.12336 6.94046 2.85173 6.97669 2.62304 7.10872C2.39435 7.24076 2.22717 7.45789 2.15798 7.71273C2.0888 7.96757 2.12322 8.23944 2.25373 8.469L4.00373 11.5C4.13635 11.7297 4.35476 11.8973 4.61093 11.9659C4.86711 12.0345 5.14005 11.9986 5.36973 11.866L8.40073 10.116C8.62854 9.98245 8.79427 9.76421 8.86177 9.50892C8.92927 9.25362 8.89304 8.98199 8.76101 8.7533C8.62897 8.52461 8.41184 8.35744 8.157 8.28825C7.90215 8.21906 7.63029 8.25348 7.40073 8.384L6.62673 8.831Z" fill="white"/>
</svg>
