<svg width="18" height="24" viewBox="0 0 18 24" fill="none" xmlns="http://www.w3.org/2000/svg">
<path d="M9 1.5C8.17031 1.5 7.5 2.17031 7.5 3V4.62656C3.24375 5.33906 0 9.04219 0 13.5V21C0 21.8297 0.670312 22.5 1.5 22.5C2.32969 22.5 3 21.8297 3 21V13.5C3 10.7063 4.9125 8.35313 7.5 7.6875V21C7.5 21.8297 8.17031 22.5 9 22.5C9.82969 22.5 10.5 21.8297 10.5 21V7.6875C13.0875 8.35313 15 10.7016 15 13.5V21C15 21.8297 15.6703 22.5 16.5 22.5C17.3297 22.5 18 21.8297 18 21V13.5C18 9.04219 14.7563 5.33906 10.5 4.62656V3C10.5 2.17031 9.82969 1.5 9 1.5Z" fill="black"/>
</svg>
