<svg width="14" height="14" viewBox="0 0 14 14" fill="none" xmlns="http://www.w3.org/2000/svg">
<path d="M0.875 10.7917V8.16667L1.26933 8.05933C5.02127 7.03617 8.97873 7.03617 12.7307 8.05933L13.125 8.16667V10.7917M0.875 10.7917C0.875 10.7917 0.875 12.5417 0 12.5417M0.875 10.7917H13.125M13.125 10.7917C13.125 10.7917 13.125 12.5417 14 12.5417M2.04167 6.41667C2.04167 5.25642 1.86842 4.10317 1.52717 2.99425L1.45833 2.77083V2.625H12.5417V2.77083L12.4728 2.99425C12.1321 4.10313 11.9587 5.25663 11.9583 6.41667M7 4.375H3.79167V6.41667M7 4.375V6.41667M7 4.375H10.2083V6.41667" stroke="#23272F" strokeWidth="0.6"/>
</svg>
