<svg width="24" height="24" viewBox="0 0 24 24" fill="none" xmlns="http://www.w3.org/2000/svg">
<path fill-rule="evenodd" clip-rule="evenodd" d="M8.66601 11.8766C11.426 9.10782 14.1236 6.40622 16.7588 3.77182C16.8967 3.62681 16.9737 3.43434 16.9737 3.23422C16.9737 3.03409 16.8967 2.84162 16.7588 2.69662C16.3856 2.28142 15.7952 2.31742 15.5264 2.60062C12.7952 5.33902 9.93801 8.20102 6.95481 11.1866C6.71801 11.381 6.59961 11.6106 6.59961 11.8754C6.59961 12.1402 6.71801 12.377 6.95481 12.5858L15.9344 21.353C16.1068 21.5112 16.334 21.596 16.5679 21.5895C16.8017 21.583 17.0239 21.4857 17.1872 21.3182C17.6168 20.8874 17.4512 20.4626 17.2568 20.261C14.3887 17.47 11.5247 14.6748 8.66481 11.8754" fill="black"/>
</svg>
