<svg width="24" height="24" viewBox="0 0 24 24" fill="none" xmlns="http://www.w3.org/2000/svg">
<path fill-rule="evenodd" clip-rule="evenodd" d="M15.334 12.1234C12.574 14.8922 9.87639 17.5938 7.24119 20.2282C7.10326 20.3732 7.02633 20.5657 7.02633 20.7658C7.02633 20.9659 7.10326 21.1584 7.24119 21.3034C7.61439 21.7186 8.20479 21.6826 8.47359 21.3994C11.2048 18.661 14.062 15.799 17.0452 12.8134C17.282 12.619 17.4004 12.3894 17.4004 12.1246C17.4004 11.8598 17.282 11.623 17.0452 11.4142L8.06559 2.64698C7.8932 2.48881 7.666 2.40399 7.43214 2.41048C7.19827 2.41698 6.97613 2.51429 6.81279 2.68178C6.38319 3.11258 6.54879 3.53738 6.74319 3.73898C9.61129 6.52998 12.4753 9.32518 15.3352 12.1246" fill="black"/>
</svg>
