<svg width="16" height="16" viewBox="0 0 16 16" fill="none" xmlns="http://www.w3.org/2000/svg">
<g clip-path="url(#clip0_2046_26924)">
<path d="M0 0H16V16H0" fill="#BD3D44"/>
<path d="M0 1.8125H16H0ZM0 4.28125H16H0ZM0 6.75H16H0ZM0 9.21875H16H0ZM0 11.6875H16H0ZM0 14.1562H16H0Z" fill="black"/>
<path d="M0 1.8125H16M0 4.28125H16M0 6.75H16M0 9.21875H16M0 11.6875H16M0 14.1562H16" stroke="white" strokeWidth="1.25"/>
<path d="M0 0H12.1875V8.59375H0V0Z" fill="#192F5D"/>
<mask id="mask0_2046_26924" style="mask-type:alpha" maskUnits="userSpaceOnUse" x="0" y="0" width="13" height="9">
<path d="M0 0H12.1875V8.59375H0V0Z" fill="#192F5D"/>
</mask>
<g mask="url(#mask0_2046_26924)">
<path d="M1.46289 6.49756H1.89844L1.55664 6.84521L1.68945 7.39502L1.2627 7.08643L0.822266 7.39502L0.97168 6.84521L0.580078 6.49756H1.09082L1.2627 6.04834L1.46289 6.49756ZM3.89062 6.49756H4.32617L3.9834 6.84521L4.11621 7.39502L3.68945 7.08643L3.24902 7.39502L3.39844 6.84521L3.00684 6.49756H3.51758L3.68945 6.04834L3.89062 6.49756ZM6.31738 6.49756H6.75293L6.41016 6.84521L6.54297 7.39502L6.11719 7.08643L5.67676 7.39502L5.8252 6.84521L5.43359 6.49756H5.94531L6.11621 6.04834L6.31738 6.49756ZM8.74414 6.49756H9.17969L8.83789 6.84521L8.96973 7.39502L8.54395 7.08643L8.10352 7.39502L8.25195 6.84521L7.86133 6.49756H8.37207L8.54297 6.04834L8.74414 6.49756ZM11.1709 6.49756H11.6064L11.2646 6.84521L11.3965 7.39502L10.9707 7.08643L10.5303 7.39502L10.6787 6.84521L10.2881 6.49756H10.7988L10.9697 6.04834L11.1709 6.49756ZM2.67676 5.28369H3.1123L2.77051 5.63232L2.90234 6.18115L2.47656 5.87256L2.03613 6.18115L2.18457 5.63232L1.79395 5.28369H2.30469L2.47559 4.83545L2.67676 5.28369ZM5.10352 5.28369H5.53906L5.19727 5.63232L5.3291 6.18115L4.90332 5.87256L4.46289 6.18115L4.61133 5.63232L4.2207 5.28369H4.73145L4.90234 4.83545L5.10352 5.28369ZM7.53027 5.28369H7.96582L7.62402 5.63232L7.75684 6.18115L7.33008 5.87256L6.88965 6.18115L7.03906 5.63232L6.64746 5.28369H7.1582L7.33008 4.83545L7.53027 5.28369ZM9.95801 5.28369H10.3936L10.0508 5.63232L10.1836 6.18115L9.75781 5.87256L9.31738 6.18115L9.46582 5.63232L9.07422 5.28369H9.58496L9.75684 4.83545L9.95801 5.28369ZM1.46289 4.06982H1.89844L1.55664 4.41846L1.68945 4.96826L1.2627 4.65869L0.822266 4.96826L0.97168 4.41846L0.580078 4.06982H1.09082L1.2627 3.62158L1.46289 4.06982ZM3.89062 4.06982H4.32617L3.9834 4.41846L4.11621 4.96826L3.68945 4.65869L3.24902 4.96826L3.39844 4.41846L3.00684 4.06982H3.51758L3.68945 3.62158L3.89062 4.06982ZM6.31738 4.06982H6.75293L6.41016 4.41846L6.54297 4.96826L6.11719 4.65869L5.67676 4.96826L5.8252 4.41846L5.43359 4.06982H5.94531L6.11621 3.62158L6.31738 4.06982ZM8.74414 4.06982H9.17969L8.83789 4.41846L8.96973 4.96826L8.54395 4.65869L8.10352 4.96826L8.25195 4.41846L7.86133 4.06982H8.37207L8.54297 3.62158L8.74414 4.06982ZM11.1709 4.06982H11.6064L11.2646 4.41846L11.3965 4.96826L10.9707 4.65869L10.5303 4.96826L10.6787 4.41846L10.2881 4.06982H10.7988L10.9697 3.62158L11.1709 4.06982ZM2.67676 2.85693H3.1123L2.77051 3.20459L2.90234 3.75439L2.47656 3.4458L2.03613 3.75439L2.18457 3.20459L1.79395 2.85693H2.30469L2.47559 2.40869L2.67676 2.85693ZM5.10352 2.85693H5.53906L5.19727 3.20459L5.3291 3.75439L4.90332 3.4458L4.46289 3.75439L4.61133 3.20459L4.2207 2.85693H4.73145L4.90234 2.40869L5.10352 2.85693ZM7.53027 2.85693H7.96582L7.62402 3.20459L7.75684 3.75439L7.33008 3.4458L6.88965 3.75439L7.03906 3.20459L6.64746 2.85693H7.1582L7.33008 2.40869L7.53027 2.85693ZM9.95801 2.85693H10.3936L10.0508 3.20459L10.1836 3.75439L9.75781 3.4458L9.31738 3.75439L9.46582 3.20459L9.07422 2.85693H9.58496L9.75684 2.40869L9.95801 2.85693ZM1.46289 1.64307H1.89844L1.55664 1.9917L1.68945 2.54053L1.2627 2.23193L0.822266 2.54053L0.97168 1.9917L0.580078 1.64307H1.09082L1.2627 1.19482L1.46289 1.64307ZM3.89062 1.64307H4.32617L3.9834 1.9917L4.11621 2.54053L3.68945 2.23193L3.24902 2.54053L3.39844 1.9917L3.00684 1.64307H3.51758L3.68945 1.19482L3.89062 1.64307ZM6.31738 1.64307H6.75293L6.41016 1.9917L6.54297 2.54053L6.11719 2.23193L5.67676 2.54053L5.8252 1.9917L5.43359 1.64307H5.94531L6.11621 1.19482L6.31738 1.64307ZM8.74414 1.64307H9.17969L8.83789 1.9917L8.96973 2.54053L8.54395 2.23193L8.10352 2.54053L8.25195 1.9917L7.86133 1.64307H8.37207L8.54297 1.19482L8.74414 1.64307ZM11.1709 1.64307H11.6064L11.2646 1.9917L11.3965 2.54053L10.9707 2.23193L10.5303 2.54053L10.6787 1.9917L10.2881 1.64307H10.7988L10.9697 1.19482L11.1709 1.64307Z" fill="#F7FCFF"/>
</g>
</g>
<defs>
<clipPath id="clip0_2046_26924">
<rect width="16" height="16" rx="8" fill="white"/>
</clipPath>
</defs>
</svg>
