<svg width="24" height="24" viewBox="0 0 24 24" fill="none" xmlns="http://www.w3.org/2000/svg">
<path d="M9.82963 18.94C9.76763 18.84 9.76762 18.829 9.87162 18.595C9.99671 18.3118 10.0553 18.0037 10.043 17.6943C10.0307 17.3849 9.94781 17.0824 9.80062 16.81C9.51198 16.2703 9.44044 15.6407 9.60063 15.05C9.74762 14.523 9.95062 14.312 10.1346 14.494C10.2246 14.594 10.2226 14.613 10.0426 15.106C9.96529 15.3565 9.93846 15.6198 9.96369 15.8808C9.98892 16.1417 10.0657 16.395 10.1896 16.626C10.364 16.9601 10.4599 17.3295 10.4701 17.7062C10.4804 18.0829 10.4046 18.457 10.2486 18.8C10.1486 18.985 10.1256 19.015 10.0166 19.027C9.97956 19.0372 9.94007 19.0337 9.90536 19.0172C9.87066 19.0007 9.84306 18.9722 9.82762 18.937L9.82963 18.94ZM11.8496 18.98C11.7606 18.89 11.7786 18.798 11.8976 18.507C11.9746 18.3114 12.0146 18.1032 12.0156 17.893C12.0449 17.5103 11.96 17.1275 11.7716 16.793C11.5911 16.4498 11.5032 16.0655 11.5166 15.678C11.5166 15.134 11.7296 14.494 11.9236 14.444C11.9515 14.4329 11.9817 14.4285 12.0116 14.4313C12.0416 14.4341 12.0704 14.444 12.0958 14.4601C12.1212 14.4762 12.1424 14.4981 12.1576 14.524C12.1729 14.5499 12.1818 14.579 12.1836 14.609C12.1645 14.734 12.1285 14.8557 12.0766 14.971C11.9817 15.2005 11.9453 15.45 11.9706 15.697C11.9359 15.958 11.9812 16.2234 12.1006 16.458C12.3288 16.8217 12.4491 17.2427 12.4476 17.672C12.4908 18.0671 12.4152 18.4661 12.2306 18.818C12.1426 18.984 12.1056 19.018 12.0036 19.031C11.9744 19.0367 11.9442 19.0354 11.9155 19.0272C11.8869 19.019 11.8605 19.0042 11.8386 18.984L11.8496 18.98ZM13.8346 18.98C13.7666 18.909 13.7876 18.801 13.9346 18.413C14.0067 18.2197 14.0406 18.0142 14.0346 17.808C14.0422 17.4592 13.9585 17.1144 13.7916 16.808C13.7065 16.6253 13.6353 16.4364 13.5786 16.243C13.5001 15.8768 13.5001 15.4982 13.5786 15.132C13.6305 14.8876 13.7327 14.6567 13.8786 14.454C13.9259 14.4266 13.982 14.4186 14.035 14.4319C14.0881 14.4451 14.1338 14.4785 14.1626 14.525C14.2236 14.619 14.2216 14.636 14.0986 14.943C13.9869 15.2077 13.9356 15.494 13.9486 15.781C13.9615 16.068 14.0384 16.3485 14.1736 16.602C14.3712 16.9641 14.4708 17.3716 14.4626 17.784C14.4775 18.0322 14.4435 18.2809 14.3626 18.516C14.2376 18.897 14.1386 19.036 13.9896 19.036C13.9604 19.0384 13.931 19.0344 13.9036 19.0242C13.8761 19.014 13.8512 18.9979 13.8306 18.977L13.8346 18.98ZM2.11562 13.211C2.06933 13.165 2.035 13.1083 2.01562 13.046C1.99896 11.85 1.99563 10.654 2.00563 9.45801L2.01562 5.95801L2.14562 5.69801C2.28659 5.39772 2.53701 5.16268 2.84562 5.04101C3.05862 4.96301 3.10563 4.96301 12.0036 4.96301C20.9016 4.96301 20.9506 4.96301 21.1636 5.04101C21.4717 5.16196 21.7221 5.39585 21.8636 5.69501L21.9906 5.95501L22.0006 9.45801C22.0006 11.382 22.0006 13 21.9886 13.046C21.9693 13.1083 21.9349 13.165 21.8886 13.211C21.8106 13.289 21.7166 13.289 12.0016 13.289C2.28662 13.289 2.19362 13.275 2.11562 13.197V13.211ZM2.98062 11.711C2.99262 10.811 2.99962 10.756 3.08662 10.577C3.15321 10.4505 3.25096 10.3432 3.37062 10.265L3.55462 10.14H20.4756L20.6576 10.265C20.7736 10.3453 20.8678 10.4532 20.9316 10.579C21.0196 10.756 21.0266 10.811 21.0316 11.714L21.0456 12.659H21.3536V9.40001C21.3536 5.87801 21.3536 5.98501 21.1476 5.79301L21.0536 5.70301L21.0296 5.97501C21.0322 6.14402 20.9849 6.31003 20.8937 6.45231C20.8024 6.59459 20.6713 6.70683 20.5166 6.77501C20.3886 6.82901 19.4696 6.83601 12.0086 6.83601C4.54763 6.83601 3.63262 6.85201 3.50062 6.80001C3.34565 6.73297 3.21447 6.62078 3.12421 6.47807C3.03395 6.33537 2.98879 6.16877 2.99462 6.00001L2.97162 5.73101L2.87162 5.82101C2.65862 6.01001 2.66363 5.90801 2.66363 9.42101V12.682H2.97062L2.98062 11.711ZM10.9066 9.63901C10.8749 9.62275 10.8479 9.59869 10.828 9.5691C10.8082 9.5395 10.7962 9.50534 10.7932 9.46983C10.7902 9.43432 10.7963 9.39864 10.8109 9.36613C10.8255 9.33362 10.8481 9.30536 10.8766 9.28401C10.9516 9.23001 11.1146 9.22001 12.0016 9.22001C13.1706 9.22001 13.2296 9.23201 13.2066 9.46901C13.1856 9.67401 13.1116 9.68801 12.0066 9.68801C11.641 9.71023 11.274 9.69448 10.9116 9.64101L10.9066 9.63901ZM18.4696 9.55601C18.4526 9.53065 18.4417 9.50174 18.4376 9.47149C18.4335 9.44124 18.4364 9.41045 18.4461 9.3815C18.4557 9.35254 18.4719 9.32618 18.4933 9.30443C18.5147 9.28268 18.5408 9.26611 18.5696 9.25601C18.7476 9.16201 18.9386 9.45601 18.7926 9.60101C18.7683 9.61987 18.7403 9.63363 18.7105 9.64149C18.6807 9.64935 18.6497 9.65114 18.6192 9.64675C18.5887 9.64237 18.5594 9.6319 18.533 9.61597C18.5066 9.60004 18.4837 9.57897 18.4656 9.55401L18.4696 9.55601ZM19.4876 9.56301C19.4574 9.5249 19.4422 9.4771 19.4447 9.42855C19.4472 9.38 19.4673 9.33402 19.5013 9.29922C19.5352 9.26442 19.5807 9.24317 19.6291 9.23945C19.6776 9.23573 19.7258 9.2498 19.7646 9.27901C19.7925 9.29425 19.8165 9.31574 19.8348 9.3418C19.853 9.36786 19.8649 9.39778 19.8696 9.42923C19.8744 9.46067 19.8717 9.49278 19.862 9.52304C19.8522 9.5533 19.8356 9.5809 19.8134 9.60366C19.7912 9.62642 19.764 9.64374 19.734 9.65425C19.704 9.66476 19.672 9.66818 19.6404 9.66424C19.6089 9.6603 19.5786 9.64911 19.5521 9.63155C19.5256 9.61399 19.5036 9.59053 19.4876 9.56301ZM20.5606 12.484V12.309H3.44362V12.659H20.5606V12.484ZM20.5606 11.664V11.449H3.44362V11.879H20.5606V11.664ZM20.5606 10.891C20.5508 10.8267 20.5254 10.7658 20.4868 10.7135C20.4481 10.6613 20.3972 10.6192 20.3386 10.591C20.2776 10.561 18.0016 10.547 12.0016 10.547C6.00163 10.547 3.72962 10.561 3.66562 10.591C3.608 10.6205 3.55798 10.663 3.51947 10.715C3.48096 10.767 3.455 10.8273 3.44362 10.891V10.979H20.5606V10.891ZM20.4426 6.29101C20.5486 6.18501 20.5606 6.15701 20.5606 5.88201V5.58201H3.44162V5.88201C3.44162 6.15601 3.44862 6.18201 3.55462 6.29101L3.67262 6.40701H20.3196L20.4426 6.29101Z" fill="black"/>
</svg>
