<svg width="17" height="18" viewBox="0 0 17 18" fill="none" xmlns="http://www.w3.org/2000/svg">
<path d="M13.8311 17.2778C12.7972 18.2277 11.6685 18.0777 10.5819 17.6278C9.43206 17.1678 8.37714 17.1478 7.16399 17.6278C5.64491 18.2477 4.84317 18.0677 3.93595 17.2778C-1.21205 12.2485 -0.452507 4.58942 5.39173 4.30946C6.81587 4.37945 7.80749 5.04936 8.64087 5.10935C9.88567 4.86939 11.0777 4.17947 12.4069 4.26946C13.9998 4.38945 15.2025 4.98937 15.9936 6.06923C12.7023 7.939 13.4829 12.0485 16.5 13.1983C15.8987 14.6981 15.1181 16.188 13.8205 17.2878L13.8311 17.2778ZM8.53538 4.24946C8.37714 2.01975 10.2865 0.179977 12.4808 0C12.7867 2.57967 10.0123 4.49943 8.53538 4.24946Z" fill="#111111"/>
</svg>
