<svg width="26" height="26" viewBox="0 0 26 26" fill="none" xmlns="http://www.w3.org/2000/svg">
<path d="M9.40078 10C9.28935 10 9.18013 10.031 9.08534 10.0896C8.99056 10.1482 8.91396 10.232 8.86413 10.3317C8.81429 10.4313 8.7932 10.5429 8.80321 10.6539C8.81321 10.7649 8.85393 10.8709 8.92078 10.96L12.5208 15.76C12.5767 15.8345 12.6491 15.895 12.7325 15.9367C12.8158 15.9783 12.9076 16 13.0008 16C13.0939 16 13.1858 15.9783 13.2691 15.9367C13.3524 15.895 13.4249 15.8345 13.4808 15.76L17.0808 10.96C17.1476 10.8709 17.1884 10.7649 17.1984 10.6539C17.2084 10.5429 17.1873 10.4313 17.1374 10.3317C17.0876 10.232 17.011 10.1482 16.9162 10.0896C16.8214 10.031 16.7122 10 16.6008 10H9.40078Z" fill="white"/>
</svg>
