<svg width="16" height="16" viewBox="0 0 16 16" fill="none" xmlns="http://www.w3.org/2000/svg">
<g clip-path="url(#clip0_2046_26704)">
<path d="M0 0H16V16H0V0Z" fill="#3F9C35"/>
<path d="M0 0H16V10.6656H0V0Z" fill="#ED2939"/>
<path d="M0 0H16V5.33437H0V0Z" fill="#00B9E4"/>
<path d="M7.4625 10.4001C8.78798 10.4001 9.8625 9.32558 9.8625 8.0001C9.8625 6.67461 8.78798 5.6001 7.4625 5.6001C6.13702 5.6001 5.0625 6.67461 5.0625 8.0001C5.0625 9.32558 6.13702 10.4001 7.4625 10.4001Z" fill="white"/>
<path d="M7.99683 10C9.1014 10 9.99683 9.10457 9.99683 8C9.99683 6.89543 9.1014 6 7.99683 6C6.89226 6 5.99683 6.89543 5.99683 8C5.99683 9.10457 6.89226 10 7.99683 10Z" fill="#ED2939"/>
<path d="M10.1313 6.66553L10.3844 7.38428L11.0719 7.05615L10.7469 7.74365L11.4656 7.9999L10.7469 8.25615L11.0719 8.94365L10.3844 8.61553L10.1313 9.33428L9.875 8.61553L9.1875 8.94365L9.51562 8.25615L8.79688 7.9999L9.51562 7.74365L9.1875 7.05615L9.875 7.38428L10.1313 6.66553Z" fill="white"/>
</g>
<defs>
<clipPath id="clip0_2046_26704">
<rect width="16" height="16" rx="8" fill="white"/>
</clipPath>
</defs>
</svg>
