<svg width="24" height="24" viewBox="0 0 24 24" fill="none" xmlns="http://www.w3.org/2000/svg">
<path d="M22.0005 7V16C22.0005 16.71 21.6205 17.36 21.0005 17.72V19.25C21.0005 19.66 20.6605 20 20.2505 20H19.7505C19.3405 20 19.0005 19.66 19.0005 19.25V18H12.0005V19.25C12.0005 19.66 11.6605 20 11.2505 20H10.7505C10.3405 20 10.0005 19.66 10.0005 19.25V17.72C9.39051 17.36 9.00051 16.71 9.00051 16V7C9.00051 4 12.0005 4 15.5005 4C19.0005 4 22.0005 4 22.0005 7ZM13.0005 15C13.0005 14.45 12.5505 14 12.0005 14C11.4505 14 11.0005 14.45 11.0005 15C11.0005 15.55 11.4505 16 12.0005 16C12.5505 16 13.0005 15.55 13.0005 15ZM20.0005 15C20.0005 14.45 19.5505 14 19.0005 14C18.4505 14 18.0005 14.45 18.0005 15C18.0005 15.55 18.4505 16 19.0005 16C19.5505 16 20.0005 15.55 20.0005 15ZM20.0005 7H11.0005V11H20.0005V7ZM7.00051 9.5C6.97051 8.12 5.83051 7 4.45051 7.05C4.12219 7.0565 3.79836 7.12762 3.49753 7.2593C3.1967 7.39098 2.92475 7.58064 2.69724 7.81744C2.46972 8.05425 2.29109 8.33355 2.17154 8.63941C2.052 8.94527 1.99388 9.27168 2.00051 9.6C2.01357 10.1672 2.2184 10.7132 2.58161 11.1491C2.94482 11.5849 3.44497 11.8849 4.00051 12V20H5.00051V12C6.18051 11.76 7.00051 10.71 7.00051 9.5Z" fill="#02836F"/>
</svg>
