<svg width="25" height="24" viewBox="0 0 25 24" fill="none" xmlns="http://www.w3.org/2000/svg">
<path d="M22.5005 7V16C22.5005 16.71 22.1205 17.36 21.5005 17.72V19.25C21.5005 19.66 21.1605 20 20.7505 20H20.2505C19.8405 20 19.5005 19.66 19.5005 19.25V18H12.5005V19.25C12.5005 19.66 12.1605 20 11.7505 20H11.2505C10.8405 20 10.5005 19.66 10.5005 19.25V17.72C9.89051 17.36 9.50051 16.71 9.50051 16V7C9.50051 4 12.5005 4 16.0005 4C19.5005 4 22.5005 4 22.5005 7ZM13.5005 15C13.5005 14.45 13.0505 14 12.5005 14C11.9505 14 11.5005 14.45 11.5005 15C11.5005 15.55 11.9505 16 12.5005 16C13.0505 16 13.5005 15.55 13.5005 15ZM20.5005 15C20.5005 14.45 20.0505 14 19.5005 14C18.9505 14 18.5005 14.45 18.5005 15C18.5005 15.55 18.9505 16 19.5005 16C20.0505 16 20.5005 15.55 20.5005 15ZM20.5005 7H11.5005V11H20.5005V7ZM7.50051 9.5C7.47051 8.12 6.33051 7 4.95051 7.05C4.62219 7.0565 4.29836 7.12762 3.99753 7.2593C3.6967 7.39098 3.42475 7.58064 3.19724 7.81744C2.96972 8.05425 2.79109 8.33355 2.67154 8.63941C2.552 8.94527 2.49388 9.27168 2.50051 9.6C2.51357 10.1672 2.7184 10.7132 3.08161 11.1491C3.44482 11.5849 3.94497 11.8849 4.50051 12V20H5.50051V12C6.68051 11.76 7.50051 10.71 7.50051 9.5Z" fill="#FAFAFA"/>
</svg>
