<svg width="14" height="14" viewBox="0 0 14 14" fill="none" xmlns="http://www.w3.org/2000/svg">
<g id="heroicons-outline/clipboard-document-check">
<path id="Vector" d="M6.62055 2.23778C6.58282 2.36018 6.5625 2.49022 6.5625 2.625C6.5625 2.86662 6.75838 3.0625 7 3.0625H9.625C9.86662 3.0625 10.0625 2.86662 10.0625 2.625C10.0625 2.49022 10.0422 2.36018 10.0044 2.23778M6.62055 2.23778C6.78577 1.70191 7.28491 1.3125 7.875 1.3125H8.75C9.34009 1.3125 9.83923 1.70191 10.0044 2.23778M6.62055 2.23778C6.40142 2.25084 6.18296 2.26642 5.96522 2.28449C5.30541 2.33926 4.8125 2.90106 4.8125 3.56313V4.8125M10.0044 2.23778C10.2236 2.25084 10.442 2.26642 10.6598 2.28449C11.3196 2.33926 11.8125 2.90105 11.8125 3.56313V9.625C11.8125 10.3499 11.2249 10.9375 10.5 10.9375H9.1875M4.8125 4.8125H2.84375C2.48131 4.8125 2.1875 5.10631 2.1875 5.46875V12.0312C2.1875 12.3937 2.48131 12.6875 2.84375 12.6875H8.53125C8.89369 12.6875 9.1875 12.3937 9.1875 12.0312V10.9375M4.8125 4.8125H8.53125C8.89369 4.8125 9.1875 5.10631 9.1875 5.46875V10.9375M4.375 9.1875L5.25 10.0625L7 7.875" stroke="#FAFAFA" strokeWidth="0.6" strokeLinecap="round" strokeLinejoin="round"/>
</g>
</svg>
