<svg width="24" height="24" viewBox="0 0 24 24" fill="none" xmlns="http://www.w3.org/2000/svg">
<path d="M12 5.5V23.5M14 6H20.5V23.5H3.5V6H10M5 3C5.265 3 5.66 2.725 5.993 2.447C6.42629 2.08734 6.79435 1.65569 7.081 1.171C7.295 0.804 7.5 0.358 7.5 0C7.5 0.358 7.705 0.804 7.92 1.171C8.205 1.661 8.579 2.089 9.007 2.447C9.339 2.725 9.735 3 10 3M19 0.5C18.735 0.5 18.34 0.775 18.007 1.053C17.5737 1.41266 17.2057 1.84431 16.919 2.329C16.705 2.696 16.5 3.142 16.5 3.5C16.5 3.142 16.295 2.696 16.08 2.329C15.7936 1.84439 15.4259 1.41274 14.993 1.053C14.661 0.775 14.265 0.5 14 0.5" stroke="black"/>
</svg>
