<svg width="16" height="20" viewBox="0 0 16 20" fill="none" xmlns="http://www.w3.org/2000/svg">
<path d="M13.5 8.125C13.5 6.63316 12.9074 5.20242 11.8525 4.14752C10.7976 3.09263 9.36684 2.5 7.875 2.5C6.38316 2.5 4.95242 3.09263 3.89752 4.14752C2.84263 5.20242 2.25 6.63316 2.25 8.125C2.25 10.4325 4.09625 13.44 7.875 17.0425C11.6537 13.44 13.5 10.4325 13.5 8.125ZM7.875 18.75C3.29125 14.5837 1 11.0413 1 8.125C1 6.30164 1.72433 4.55295 3.01364 3.26364C4.30295 1.97433 6.05164 1.25 7.875 1.25C9.69836 1.25 11.447 1.97433 12.7364 3.26364C14.0257 4.55295 14.75 6.30164 14.75 8.125C14.75 11.0413 12.4587 14.5837 7.875 18.75Z" fill="#2B2B2B"/>
<path d="M8.125 10C8.62228 10 9.09919 9.80246 9.45083 9.45083C9.80246 9.09919 10 8.62228 10 8.125C10 7.62772 9.80246 7.15081 9.45083 6.79917C9.09919 6.44754 8.62228 6.25 8.125 6.25C7.62772 6.25 7.15081 6.44754 6.79917 6.79917C6.44754 7.15081 6.25 7.62772 6.25 8.125C6.25 8.62228 6.44754 9.09919 6.79917 9.45083C7.15081 9.80246 7.62772 10 8.125 10ZM8.125 11.25C7.2962 11.25 6.50134 10.9208 5.91529 10.3347C5.32924 9.74866 5 8.9538 5 8.125C5 7.2962 5.32924 6.50134 5.91529 5.91529C6.50134 5.32924 7.2962 5 8.125 5C8.9538 5 9.74866 5.32924 10.3347 5.91529C10.9208 6.50134 11.25 7.2962 11.25 8.125C11.25 8.9538 10.9208 9.74866 10.3347 10.3347C9.74866 10.9208 8.9538 11.25 8.125 11.25Z" fill="#2B2B2B"/>
</svg>
