<svg width="24" height="24" viewBox="0 0 24 24" fill="none" xmlns="http://www.w3.org/2000/svg">
<path d="M3 5.625C3 5.32663 3.11853 5.04048 3.3295 4.8295C3.54048 4.61853 3.82663 4.5 4.125 4.5H19.875C20.1734 4.5 20.4595 4.61853 20.6705 4.8295C20.8815 5.04048 21 5.32663 21 5.625C21 5.92337 20.8815 6.20952 20.6705 6.4205C20.4595 6.63147 20.1734 6.75 19.875 6.75H4.125C3.82663 6.75 3.54048 6.63147 3.3295 6.4205C3.11853 6.20952 3 5.92337 3 5.625ZM3 11.625C3 11.3266 3.11853 11.0405 3.3295 10.8295C3.54048 10.6185 3.82663 10.5 4.125 10.5H19.875C20.1734 10.5 20.4595 10.6185 20.6705 10.8295C20.8815 11.0405 21 11.3266 21 11.625C21 11.9234 20.8815 12.2095 20.6705 12.4205C20.4595 12.6315 20.1734 12.75 19.875 12.75H4.125C3.82663 12.75 3.54048 12.6315 3.3295 12.4205C3.11853 12.2095 3 11.9234 3 11.625ZM3 17.625C3 17.3266 3.11853 17.0405 3.3295 16.8295C3.54048 16.6185 3.82663 16.5 4.125 16.5H19.875C20.1734 16.5 20.4595 16.6185 20.6705 16.8295C20.8815 17.0405 21 17.3266 21 17.625C21 17.9234 20.8815 18.2095 20.6705 18.4205C20.4595 18.6315 20.1734 18.75 19.875 18.75H4.125C3.82663 18.75 3.54048 18.6315 3.3295 18.4205C3.11853 18.2095 3 17.9234 3 17.625Z" fill="black"/>
</svg>
