<svg width="21" height="20" viewBox="0 0 21 20" fill="none" xmlns="http://www.w3.org/2000/svg">
<path d="M4.66687 15.8333V7.87667L2.67021 9.35917L2.17188 8.70333L10.5002 2.5L18.8502 8.69917L18.3469 9.35917L10.5002 3.54167L5.50021 7.26333V15H8.56104V15.8333H4.66687ZM15.0835 18.1333C14.4574 18.5678 13.8444 18.7753 13.2444 18.7558C12.6444 18.7364 12.1105 18.4925 11.6427 18.0242C11.1749 17.5558 10.931 17.0192 10.911 16.4142C10.8916 15.8086 11.0991 15.1983 11.5335 14.5833C11.0991 13.9572 10.8916 13.3442 10.911 12.7442C10.9305 12.1442 11.1744 11.6103 11.6427 11.1425C12.111 10.6747 12.6477 10.4308 13.2527 10.4108C13.8583 10.3914 14.4685 10.5989 15.0835 11.0333C15.7097 10.5989 16.3227 10.3914 16.9227 10.4108C17.5227 10.4303 18.0566 10.6742 18.5244 11.1425C18.9922 11.6108 19.236 12.1475 19.256 12.7525C19.2755 13.3581 19.0677 13.9683 18.6327 14.5833C19.0677 15.2094 19.2755 15.8225 19.256 16.4225C19.2366 17.0225 18.9927 17.5564 18.5244 18.0242C18.056 18.4919 17.5194 18.7358 16.9144 18.7558C16.3094 18.7758 15.6991 18.5689 15.0835 18.1333ZM15.0835 17.1167L15.8019 17.6075C16.1374 17.8414 16.5041 17.9417 16.9019 17.9083C17.3008 17.875 17.6435 17.7153 17.9302 17.4292C18.2163 17.1431 18.3785 16.8008 18.4169 16.4025C18.4552 16.0042 18.3574 15.6369 18.1235 15.3008L17.6177 14.5833L18.1077 13.8658C18.3416 13.5303 18.4419 13.1631 18.4085 12.7642C18.3752 12.3658 18.2158 12.0236 17.9302 11.7375C17.6435 11.4508 17.301 11.2883 16.9027 11.25C16.5044 11.2117 16.1372 11.3094 15.801 11.5433L15.0835 12.0492L14.366 11.5592C14.0305 11.3253 13.6633 11.2247 13.2644 11.2575C12.866 11.2908 12.5238 11.4506 12.2377 11.7367C11.951 12.0233 11.7885 12.3658 11.7502 12.7642C11.7119 13.1625 11.8097 13.5297 12.0435 13.8658L12.5502 14.5833L12.0594 15.3017C11.8255 15.6372 11.7249 16.0039 11.7577 16.4017C11.791 16.8006 11.9508 17.1433 12.2369 17.43C12.5235 17.7161 12.866 17.8783 13.2644 17.9167C13.6627 17.955 14.0299 17.8572 14.366 17.6233L15.0835 17.1167ZM15.0835 15.24C15.2685 15.24 15.4241 15.1767 15.5502 15.05C15.6774 14.9239 15.741 14.7683 15.741 14.5833C15.741 14.3983 15.6777 14.2428 15.551 14.1167C15.4244 13.9894 15.2685 13.9258 15.0835 13.9258C14.8985 13.9258 14.743 13.9892 14.6169 14.1158C14.4908 14.2425 14.4272 14.3983 14.426 14.5833C14.4249 14.7683 14.4883 14.9239 14.616 15.05C14.7438 15.1761 14.8997 15.2394 15.0835 15.24Z" fill="#02836F"/>
</svg>
