<svg width="24" height="24" viewBox="0 0 24 24" fill="none" xmlns="http://www.w3.org/2000/svg">
<path d="M12.1361 0.60097C7.18557 0.528273 3.07888 4.45067 3.00135 9.32931C2.97971 10.5606 3.21914 11.7828 3.70432 12.9177C4.18949 14.0525 4.90972 15.075 5.81888 15.9196C7.79588 17.7617 9.42636 19.9343 10.5694 22.3678L10.6569 22.5542C11.1868 23.6819 12.8131 23.6819 13.3425 22.5542L13.4305 22.3678C14.5705 19.9487 16.1733 17.7691 18.1508 15.9485C19.0513 15.1194 19.769 14.1164 20.2592 13.002C20.7494 11.8876 21.0016 10.6856 21 9.47098C21 4.61657 17.0441 0.672735 12.1361 0.60097ZM12 16.0133C8.34048 16.0133 5.36363 13.0774 5.36363 9.47144C5.36363 5.86547 8.34048 2.93008 12 2.93008C15.6594 2.93008 18.6363 5.86593 18.6363 9.47144C18.6363 13.077 15.659 16.0133 12 16.0133Z" fill="#02836F"/>
<path d="M15.2954 14.5048C15.2456 14.5048 15.1967 14.4919 15.1535 14.4674C15.1104 14.4428 15.0745 14.4075 15.0496 14.365L14.1211 12.7806C14.0852 12.7165 14.0761 12.641 14.096 12.5704C14.1159 12.4998 14.1631 12.4397 14.2275 12.4031C14.2918 12.3664 14.3682 12.3561 14.4402 12.3745C14.5122 12.3928 14.574 12.4382 14.6123 12.501L15.5408 14.0854C15.5657 14.1279 15.5788 14.1761 15.5788 14.2251C15.5788 14.2742 15.5657 14.3224 15.5409 14.3649C15.516 14.4074 15.4802 14.4427 15.4372 14.4672C15.3941 14.4918 15.3452 14.5048 15.2954 14.5048ZM8.70449 14.5048C8.65472 14.5048 8.60585 14.4918 8.56277 14.4672C8.51969 14.4427 8.48392 14.4074 8.45906 14.3649C8.4342 14.3224 8.42112 14.2742 8.42113 14.2251C8.42115 14.1761 8.43425 14.1279 8.45913 14.0854L9.3876 12.501C9.42594 12.4382 9.48774 12.3928 9.55971 12.3745C9.63169 12.3561 9.70807 12.3664 9.77244 12.4031C9.83681 12.4397 9.88402 12.4998 9.9039 12.5704C9.92379 12.641 9.91477 12.7165 9.87877 12.7806L8.95031 14.365C8.9254 14.4075 8.88957 14.4428 8.84641 14.4674C8.80326 14.4919 8.75431 14.5048 8.70449 14.5048Z" fill="#02836F"/>
<path d="M14.8808 14.0504H9.11908C9.04385 14.0504 8.97171 14.021 8.91851 13.9685C8.86532 13.9161 8.83544 13.845 8.83544 13.7708C8.83544 13.6967 8.86532 13.6256 8.91851 13.5731C8.97171 13.5207 9.04385 13.4912 9.11908 13.4912H14.8808C14.9561 13.4912 15.0282 13.5207 15.0814 13.5731C15.1346 13.6256 15.1645 13.6967 15.1645 13.7708C15.1645 13.845 15.1346 13.9161 15.0814 13.9685C15.0282 14.021 14.9561 14.0504 14.8808 14.0504ZM14.3561 5.38548V5.56583C14.3558 5.79851 14.2619 6.02159 14.0949 6.18604C13.9279 6.35048 13.7015 6.44285 13.4655 6.44285H10.5345C10.2986 6.44261 10.0724 6.35013 9.90563 6.18571C9.73883 6.02129 9.64502 5.79835 9.64477 5.56583V5.38548C9.38227 5.52113 9.16247 5.72506 9.00922 5.97512C8.85596 6.22519 8.7751 6.51185 8.7754 6.80401V11.5708C8.77552 11.7799 8.85982 11.9805 9.00979 12.1284C9.15975 12.2763 9.36313 12.3595 9.57527 12.3598H14.4256C14.6378 12.3596 14.8413 12.2765 14.9914 12.1285C15.1415 11.9806 15.2258 11.78 15.2259 11.5708V6.80401C15.2262 6.51179 15.1453 6.22508 14.992 5.975C14.8386 5.72492 14.6187 5.52103 14.3561 5.38548ZM9.83292 11.8071C9.73392 11.807 9.63718 11.778 9.55491 11.7237C9.47264 11.6694 9.40855 11.5923 9.37073 11.5021C9.33291 11.4119 9.32307 11.3127 9.34244 11.217C9.36181 11.1213 9.40952 11.0334 9.47956 10.9645C9.54959 10.8955 9.6388 10.8485 9.7359 10.8295C9.833 10.8105 9.93363 10.8203 10.0251 10.8577C10.1165 10.895 10.1947 10.9583 10.2497 11.0394C10.3047 11.1206 10.334 11.216 10.334 11.3136C10.334 11.3784 10.3211 11.4426 10.2959 11.5025C10.2707 11.5624 10.2338 11.6169 10.1872 11.6627C10.1407 11.7085 10.0854 11.7449 10.0246 11.7696C9.96385 11.7944 9.8987 11.8071 9.83292 11.8071ZM11.4757 9.30601H10.0981C10.0371 9.30601 9.97667 9.29416 9.92029 9.27114C9.86391 9.24812 9.81268 9.21438 9.76953 9.17184C9.72638 9.1293 9.69215 9.0788 9.6688 9.02323C9.64544 8.96765 9.63342 8.90808 9.63342 8.84792V7.43825C9.63342 7.37809 9.64544 7.31852 9.6688 7.26295C9.69215 7.20737 9.72638 7.15687 9.76953 7.11433C9.81268 7.07179 9.86391 7.03805 9.92029 7.01503C9.97667 6.99201 10.0371 6.98016 10.0981 6.98016H11.4757V9.30601ZM12.5238 6.98016H13.9013C14.0246 6.98016 14.1428 7.02842 14.2299 7.11433C14.3171 7.20024 14.366 7.31676 14.366 7.43825V8.84792C14.366 8.96942 14.3171 9.08593 14.2299 9.17184C14.1428 9.25775 14.0246 9.30601 13.9013 9.30601H12.5238V6.98016ZM14.167 11.8071C14.068 11.8071 13.9712 11.7781 13.8889 11.7239C13.8065 11.6697 13.7424 11.5926 13.7045 11.5024C13.6666 11.4123 13.6567 11.313 13.676 11.2173C13.6953 11.1216 13.743 11.0336 13.813 10.9646C13.883 10.8956 13.9722 10.8486 14.0693 10.8296C14.1664 10.8105 14.2671 10.8203 14.3586 10.8576C14.4501 10.895 14.5283 10.9582 14.5833 11.0394C14.6383 11.1206 14.6676 11.216 14.6676 11.3136C14.6675 11.4444 14.6147 11.5699 14.5209 11.6624C14.427 11.7549 14.2997 11.807 14.167 11.8071Z" fill="#02836F"/>
<path d="M13.4669 4.25215H10.5335C10.3555 4.25215 10.2111 4.39444 10.2111 4.56997V5.56583C10.2111 5.74135 10.3555 5.88364 10.5335 5.88364H13.4669C13.6449 5.88364 13.7893 5.74135 13.7893 5.56583V4.56997C13.7893 4.39444 13.6449 4.25215 13.4669 4.25215Z" fill="#02836F"/>
</svg>
