<svg width="24" height="24" viewBox="0 0 24 24" fill="none" xmlns="http://www.w3.org/2000/svg">
<path d="M1.5 18.4999V13.9999L2.176 13.8159C8.6079 12.0619 15.3921 12.0619 21.824 13.8159L22.5 13.9999V18.4999M1.5 18.4999C1.5 18.4999 1.5 21.4999 0 21.4999M1.5 18.4999H22.5M22.5 18.4999C22.5 18.4999 22.5 21.4999 24 21.4999M3.5 10.9999C3.5 9.01094 3.203 7.03394 2.618 5.13294L2.5 4.74994V4.49994H21.5V4.74994L21.382 5.13294C20.798 7.03388 20.5007 9.0113 20.5 10.9999M12 7.49994H6.5V10.9999M12 7.49994V10.9999M12 7.49994H17.5V10.9999" stroke="#02836F" stroke-width="1.2"/>
</svg>
