<svg width="24" height="24" viewBox="0 0 24 24" fill="none" xmlns="http://www.w3.org/2000/svg">
<g clip-path="url(#clip0_2337_11230)">
<path fill-rule="evenodd" clip-rule="evenodd" d="M1.728 1.845C1.5915 2.1765 1.536 2.5605 1.515 3.1155C1.07212 3.26857 0.688083 3.5561 0.416486 3.93795C0.144889 4.3198 -0.000712745 4.77692 2.62346e-06 5.2455V7.6755C2.62346e-06 8.2785 2.62354e-06 8.778 0.0330026 9.1905C0.0675026 9.612 0.141003 9.999 0.327003 10.3635C0.615003 10.9275 1.074 11.3865 1.638 11.6745C2.0025 11.8605 2.3895 11.934 2.811 11.9685C3.2175 12.0015 3.7155 12.0015 4.326 12.0015H9.156C9.798 12.0015 10.236 12.0015 10.572 12.03C10.902 12.057 11.0685 12.105 11.187 12.165C11.469 12.309 11.6985 12.54 11.8425 12.8205C11.9025 12.9375 11.9505 13.1055 11.9775 13.4355C12.006 13.773 12.0075 14.2095 12.0075 14.8515V15.0015C11.6097 15.0015 11.2281 15.1595 10.9468 15.4408C10.6655 15.7221 10.5075 16.1037 10.5075 16.5015V22.5015C10.5075 22.8993 10.6655 23.2809 10.9468 23.5622C11.2281 23.8435 11.6097 24.0015 12.0075 24.0015H13.5075C13.9053 24.0015 14.2869 23.8435 14.5682 23.5622C14.8495 23.2809 15.0075 22.8993 15.0075 22.5015V16.5015C15.0075 16.1037 14.8495 15.7221 14.5682 15.4408C14.2869 15.1595 13.9053 15.0015 13.5075 15.0015V14.8215C13.5075 14.217 13.5075 13.7175 13.473 13.3065C13.4385 12.8835 13.365 12.4965 13.179 12.132C12.8914 11.5675 12.4325 11.1086 11.868 10.821C11.5035 10.635 11.1165 10.5615 10.695 10.527C10.2885 10.494 9.7905 10.494 9.18 10.494H4.35C3.708 10.494 3.2715 10.494 2.934 10.4655C2.6055 10.4385 2.4375 10.3905 2.319 10.3305C2.03677 10.1867 1.80731 9.95723 1.6635 9.675C1.6035 9.558 1.5555 9.39 1.5285 9.06C1.50186 8.5885 1.49235 8.11619 1.5 7.644V5.244L1.5015 5.1975C1.5075 6.144 1.542 6.6915 1.728 7.1475C2.0325 7.8825 2.616 8.466 3.348 8.7675C3.9 8.9955 4.5975 8.9955 6.003 8.9955H19.503C20.901 8.9955 21.603 8.9955 22.158 8.7675C22.893 8.463 23.4765 7.8795 23.778 7.1475C24.006 6.5955 24.006 5.898 24.006 4.4925C24.006 3.087 24.006 2.3925 23.778 1.8375C23.4736 1.10445 22.8911 0.521927 22.158 0.217502C21.606 -0.010498 20.907 -0.010498 19.503 -0.010498H6.003C4.605 -0.010498 3.903 -0.010498 3.348 0.217502C2.613 0.522002 2.0295 1.1055 1.728 1.8375V1.845ZM19.428 1.4925H5.928C5.208 1.4925 4.7445 1.4925 4.383 1.518C4.041 1.5405 3.9105 1.581 3.849 1.608C3.48191 1.75989 3.19007 2.05119 3.0375 2.418C3.012 2.481 2.9715 2.61 2.9475 2.952C2.9235 3.3075 2.9235 3.7725 2.9235 4.497C2.9235 5.2215 2.9235 5.682 2.949 6.042C2.9715 6.384 3.012 6.5145 3.0375 6.576C3.189 6.9435 3.4815 7.236 3.849 7.3875C3.912 7.413 4.041 7.4535 4.383 7.4775C4.7385 7.5 5.2035 7.5 5.928 7.5H19.428C20.148 7.5 20.6115 7.5 20.973 7.476C21.315 7.452 21.4455 7.4115 21.507 7.386C21.8741 7.23412 22.1659 6.94281 22.3185 6.576C22.344 6.513 22.3845 6.3825 22.4085 6.0405C22.4325 5.685 22.4325 5.22 22.4325 4.4955C22.4325 3.771 22.4325 3.312 22.407 2.9505C22.3845 2.6085 22.344 2.478 22.3185 2.4165C22.1659 2.04969 21.8741 1.75839 21.507 1.6065C21.444 1.5795 21.315 1.539 20.973 1.5165C20.4584 1.4924 19.9431 1.48539 19.428 1.4925ZM11.928 16.491H13.428V22.491H11.928V16.491Z" fill="#02836F"/>
</g>
<defs>
<clipPath id="clip0_2337_11230">
<rect width="24" height="24" fill="white"/>
</clipPath>
</defs>
</svg>
