<svg width="24" height="24" viewBox="0 0 24 24" fill="none" xmlns="http://www.w3.org/2000/svg">
<path d="M21.7539 21.1875H19.3164V2.8125H20.2539C20.4031 2.8125 20.5462 2.75324 20.6517 2.64775C20.7571 2.54226 20.8164 2.39918 20.8164 2.25C20.8164 2.10082 20.7571 1.95774 20.6517 1.85225C20.5462 1.74676 20.4031 1.6875 20.2539 1.6875H3.75391C3.60472 1.6875 3.46165 1.74676 3.35616 1.85225C3.25067 1.95774 3.19141 2.10082 3.19141 2.25C3.19141 2.39918 3.25067 2.54226 3.35616 2.64775C3.46165 2.75324 3.60472 2.8125 3.75391 2.8125H4.69141V21.1875H2.25391C2.10472 21.1875 1.96165 21.2468 1.85616 21.3523C1.75067 21.4577 1.69141 21.6008 1.69141 21.75C1.69141 21.8992 1.75067 22.0423 1.85616 22.1477C1.96165 22.2532 2.10472 22.3125 2.25391 22.3125H21.7539C21.9031 22.3125 22.0462 22.2532 22.1517 22.1477C22.2571 22.0423 22.3164 21.8992 22.3164 21.75C22.3164 21.6008 22.2571 21.4577 22.1517 21.3523C22.0462 21.2468 21.9031 21.1875 21.7539 21.1875ZM5.81641 2.8125H18.1914V21.1875H14.8164V17.25C14.8164 17.1008 14.7571 16.9577 14.6517 16.8523C14.5462 16.7468 14.4031 16.6875 14.2539 16.6875H9.75391C9.60472 16.6875 9.46165 16.7468 9.35616 16.8523C9.25067 16.9577 9.19141 17.1008 9.19141 17.25V21.1875H5.81641V2.8125ZM13.6914 21.1875H10.3164V17.8125H13.6914V21.1875ZM8.44141 6C8.44141 5.85082 8.50067 5.70774 8.60616 5.60225C8.71165 5.49676 8.85472 5.4375 9.00391 5.4375H10.5039C10.6531 5.4375 10.7962 5.49676 10.9017 5.60225C11.0071 5.70774 11.0664 5.85082 11.0664 6C11.0664 6.14918 11.0071 6.29226 10.9017 6.39775C10.7962 6.50324 10.6531 6.5625 10.5039 6.5625H9.00391C8.85472 6.5625 8.71165 6.50324 8.60616 6.39775C8.50067 6.29226 8.44141 6.14918 8.44141 6ZM12.9414 6C12.9414 5.85082 13.0007 5.70774 13.1062 5.60225C13.2116 5.49676 13.3547 5.4375 13.5039 5.4375H15.0039C15.1531 5.4375 15.2962 5.49676 15.4017 5.60225C15.5071 5.70774 15.5664 5.85082 15.5664 6C15.5664 6.14918 15.5071 6.29226 15.4017 6.39775C15.2962 6.50324 15.1531 6.5625 15.0039 6.5625H13.5039C13.3547 6.5625 13.2116 6.50324 13.1062 6.39775C13.0007 6.29226 12.9414 6.14918 12.9414 6ZM8.44141 9.75C8.44141 9.60082 8.50067 9.45774 8.60616 9.35225C8.71165 9.24676 8.85472 9.1875 9.00391 9.1875H10.5039C10.6531 9.1875 10.7962 9.24676 10.9017 9.35225C11.0071 9.45774 11.0664 9.60082 11.0664 9.75C11.0664 9.89919 11.0071 10.0423 10.9017 10.1477C10.7962 10.2532 10.6531 10.3125 10.5039 10.3125H9.00391C8.85472 10.3125 8.71165 10.2532 8.60616 10.1477C8.50067 10.0423 8.44141 9.89919 8.44141 9.75ZM12.9414 9.75C12.9414 9.60082 13.0007 9.45774 13.1062 9.35225C13.2116 9.24676 13.3547 9.1875 13.5039 9.1875H15.0039C15.1531 9.1875 15.2962 9.24676 15.4017 9.35225C15.5071 9.45774 15.5664 9.60082 15.5664 9.75C15.5664 9.89919 15.5071 10.0423 15.4017 10.1477C15.2962 10.2532 15.1531 10.3125 15.0039 10.3125H13.5039C13.3547 10.3125 13.2116 10.2532 13.1062 10.1477C13.0007 10.0423 12.9414 9.89919 12.9414 9.75ZM9.00391 14.0625C8.85472 14.0625 8.71165 14.0032 8.60616 13.8977C8.50067 13.7923 8.44141 13.6492 8.44141 13.5C8.44141 13.3508 8.50067 13.2077 8.60616 13.1023C8.71165 12.9968 8.85472 12.9375 9.00391 12.9375H10.5039C10.6531 12.9375 10.7962 12.9968 10.9017 13.1023C11.0071 13.2077 11.0664 13.3508 11.0664 13.5C11.0664 13.6492 11.0071 13.7923 10.9017 13.8977C10.7962 14.0032 10.6531 14.0625 10.5039 14.0625H9.00391ZM12.9414 13.5C12.9414 13.3508 13.0007 13.2077 13.1062 13.1023C13.2116 12.9968 13.3547 12.9375 13.5039 12.9375H15.0039C15.1531 12.9375 15.2962 12.9968 15.4017 13.1023C15.5071 13.2077 15.5664 13.3508 15.5664 13.5C15.5664 13.6492 15.5071 13.7923 15.4017 13.8977C15.2962 14.0032 15.1531 14.0625 15.0039 14.0625H13.5039C13.3547 14.0625 13.2116 14.0032 13.1062 13.8977C13.0007 13.7923 12.9414 13.6492 12.9414 13.5Z" fill="#02836F"/>
</svg>
