<svg width="24" height="24" viewBox="0 0 24 24" fill="none" xmlns="http://www.w3.org/2000/svg">
<path d="M11.3515 3.83619C11.2868 4.04602 11.252 4.26894 11.252 4.5C11.252 4.91421 11.5877 5.25 12.002 5.25H16.502C16.9162 5.25 17.252 4.91421 17.252 4.5C17.252 4.26894 17.2171 4.04602 17.1524 3.83619M11.3515 3.83619C11.6347 2.91757 12.4904 2.25 13.502 2.25H15.002C16.0135 2.25 16.8692 2.91757 17.1524 3.83619M11.3515 3.83619C10.9758 3.85858 10.6013 3.88529 10.228 3.91627C9.09695 4.01015 8.25195 4.97324 8.25195 6.10822V8.25M17.1524 3.83619C17.5281 3.85858 17.9026 3.88529 18.2759 3.91627C19.407 4.01015 20.252 4.97324 20.252 6.10822V16.5C20.252 17.7426 19.2446 18.75 18.002 18.75H15.752M8.25195 8.25H4.87695C4.25563 8.25 3.75195 8.75368 3.75195 9.375V20.625C3.75195 21.2463 4.25563 21.75 4.87695 21.75H14.627C15.2483 21.75 15.752 21.2463 15.752 20.625V18.75M8.25195 8.25H14.627C15.2483 8.25 15.752 8.75368 15.752 9.375V18.75M7.50195 15.75L9.00195 17.25L12.002 13.5" stroke="#02836F" stroke-width="1.2" stroke-linecap="round" stroke-linejoin="round"/>
</svg>
