<svg width="14" height="14" viewBox="0 0 14 14" fill="none" xmlns="http://www.w3.org/2000/svg">
<g clipPath="url(#clip0_1679_1573)">
<path fill-rule="evenodd" clip-rule="evenodd" d="M7 14C7.91925 14 8.8295 13.8189 9.67878 13.4672C10.5281 13.1154 11.2997 12.5998 11.9497 11.9497C12.5998 11.2997 13.1154 10.5281 13.4672 9.67878C13.8189 8.8295 14 7.91925 14 7C14 6.08075 13.8189 5.1705 13.4672 4.32122C13.1154 3.47194 12.5998 2.70026 11.9497 2.05025C11.2997 1.40024 10.5281 0.884626 9.67878 0.532843C8.8295 0.18106 7.91925 -1.36979e-08 7 0C5.14348 2.76642e-08 3.36301 0.737498 2.05025 2.05025C0.737498 3.36301 0 5.14348 0 7C0 8.85652 0.737498 10.637 2.05025 11.9497C3.36301 13.2625 5.14348 14 7 14ZM6.05344 3.88111L10.4432 6.32022C10.5644 6.3876 10.6654 6.48616 10.7357 6.60568C10.806 6.7252 10.8431 6.86134 10.8431 7C10.8431 7.13866 10.806 7.2748 10.7357 7.39432C10.6654 7.51384 10.5644 7.6124 10.4432 7.67978L6.05344 10.1189C5.91131 10.1979 5.75099 10.2384 5.58838 10.2364C5.42577 10.2343 5.26651 10.1899 5.12639 10.1073C4.98626 10.0248 4.87012 9.90713 4.78949 9.7659C4.70885 9.62468 4.66651 9.46484 4.66667 9.30222V4.69778C4.66651 4.53516 4.70885 4.37532 4.78949 4.2341C4.87012 4.09288 4.98626 3.97517 5.12639 3.89265C5.26651 3.81013 5.42577 3.76566 5.58838 3.76363C5.75099 3.76161 5.91131 3.8021 6.05344 3.88111Z" fill="white"/>
</g>
<defs>
<clipPath id="clip0_1679_1573">
<rect width="14" height="14" fill="white"/>
</clipPath>
</defs>
</svg>
