<svg width="20" height="16" viewBox="0 0 20 16" fill="none" xmlns="http://www.w3.org/2000/svg">
<path d="M16.6673 0.5H3.33398C1.95336 0.5 0.833984 1.61937 0.833984 3V13C0.833984 14.3806 1.95336 15.5 3.33398 15.5H16.6673C18.0479 15.5 19.1673 14.3806 19.1673 13V3C19.1673 1.61937 18.0479 0.5 16.6673 0.5ZM16.6673 2.16667C16.7636 2.16667 16.8561 2.18292 16.9419 2.21312L10.0007 7.76625L3.0594 2.21312C3.14764 2.18221 3.24049 2.1665 3.33398 2.16667H16.6673ZM16.6673 13.8333H3.33398C3.11297 13.8333 2.90101 13.7455 2.74473 13.5893C2.58845 13.433 2.50065 13.221 2.50065 13V3.90042L9.48003 9.48396C9.63211 9.60583 9.81628 9.66667 10.0007 9.66667C10.185 9.66667 10.3692 9.60583 10.5213 9.48396L17.5006 3.90042V13C17.5006 13.221 17.4129 13.433 17.2566 13.5893C17.1003 13.7455 16.8883 13.8333 16.6673 13.8333Z" fill="white"/>
</svg>
