<svg width="21" height="20" viewBox="0 0 21 20" fill="none" xmlns="http://www.w3.org/2000/svg">
<path d="M4.25 9.375H7.375H4.25ZM7.375 9.375V7.5V9.375ZM7.375 9.375H10.5H7.375ZM10.5 9.375V7.5V9.375ZM10.5 9.375H13.625H10.5ZM13.625 9.375V7.5V9.375ZM13.625 9.375H16.75H13.625ZM8.625 11.875H9.875H8.625ZM11.125 11.875H12.375H11.125ZM11.125 13.75H12.375H11.125ZM8.625 13.75H9.875H8.625ZM4.875 16.875V9.375H3.625V6.875L5.5 3.125H15.5L17.375 6.875V9.375H16.125V16.875H4.875Z" fill="#FAFAFA"/>
<path d="M4.25 9.375H7.375M7.375 9.375V7.5M7.375 9.375H10.5M10.5 9.375V7.5M10.5 9.375H13.625M13.625 9.375V7.5M13.625 9.375H16.75M8.625 11.875H9.875M11.125 11.875H12.375M11.125 13.75H12.375M8.625 13.75H9.875M4.875 16.875V9.375H3.625V6.875L5.5 3.125H15.5L17.375 6.875V9.375H16.125V16.875H4.875Z" stroke="#02836F" stroke-linejoin="round"/>
</svg>
