<svg width="21" height="20" viewBox="0 0 21 20" fill="none" xmlns="http://www.w3.org/2000/svg">
<path d="M10.6134 0.500829C6.48798 0.440248 3.06573 3.70891 3.00112 7.77445C2.98309 8.80054 3.18262 9.81905 3.58693 10.7647C3.99124 11.7104 4.59143 12.5625 5.34907 13.2664C6.99657 14.8015 8.3553 16.6119 9.30787 18.6398L9.38075 18.7952C9.82237 19.7349 11.1776 19.7349 11.6188 18.7952L11.6921 18.6398C12.6421 16.624 13.9777 14.8076 15.6257 13.2904C16.3761 12.5995 16.9742 11.7637 17.3827 10.835C17.7912 9.90636 18.0013 8.90472 18 7.8925C18 3.84716 14.7034 0.560633 10.6134 0.500829ZM10.5 13.3444C7.4504 13.3444 4.96969 10.8979 4.96969 7.89289C4.96969 4.88791 7.4504 2.44175 10.5 2.44175C13.5495 2.44175 16.0302 4.8883 16.0302 7.89289C16.0302 10.8975 13.5491 13.3444 10.5 13.3444Z" fill="#02836F"/>
<path d="M13.2462 12.0874C13.2047 12.0874 13.1639 12.0766 13.1279 12.0562C13.092 12.0357 13.0621 12.0063 13.0413 11.9709L12.2676 10.6505C12.2376 10.5971 12.2301 10.5342 12.2467 10.4753C12.2633 10.4165 12.3026 10.3664 12.3562 10.3359C12.4099 10.3054 12.4735 10.2968 12.5335 10.3121C12.5935 10.3273 12.645 10.3652 12.6769 10.4175L13.4507 11.7379C13.4714 11.7733 13.4823 11.8134 13.4823 11.8543C13.4823 11.8952 13.4714 11.9353 13.4507 11.9708C13.43 12.0062 13.4002 12.0356 13.3643 12.0561C13.3284 12.0765 13.2877 12.0873 13.2462 12.0874ZM7.75374 12.0874C7.71227 12.0873 7.67154 12.0765 7.63564 12.0561C7.59974 12.0356 7.56993 12.0062 7.54922 11.9708C7.5285 11.9353 7.5176 11.8952 7.51761 11.8543C7.51762 11.8134 7.52854 11.7733 7.54928 11.7379L8.323 10.4175C8.35495 10.3652 8.40645 10.3273 8.46643 10.3121C8.52641 10.2968 8.59006 10.3054 8.6437 10.3359C8.69734 10.3664 8.73668 10.4165 8.75325 10.4753C8.76982 10.5342 8.7623 10.5971 8.73231 10.6505L7.95859 11.9709C7.93783 12.0063 7.90797 12.0357 7.87201 12.0562C7.83605 12.0766 7.79526 12.0874 7.75374 12.0874Z" fill="#02836F"/>
<path d="M12.9007 11.7087H8.09923C8.03654 11.7087 7.97642 11.6842 7.93209 11.6405C7.88777 11.5968 7.86286 11.5375 7.86286 11.4757C7.86286 11.4139 7.88777 11.3547 7.93209 11.311C7.97642 11.2673 8.03654 11.2427 8.09923 11.2427H12.9007C12.9634 11.2427 13.0235 11.2673 13.0678 11.311C13.1122 11.3547 13.1371 11.4139 13.1371 11.4757C13.1371 11.5375 13.1122 11.5968 13.0678 11.6405C13.0235 11.6842 12.9634 11.7087 12.9007 11.7087ZM12.4634 4.48792V4.63821C12.4632 4.83212 12.3849 5.01801 12.2458 5.15505C12.1066 5.29209 11.9179 5.36907 11.7212 5.36907H9.27872C9.08215 5.36886 8.89369 5.29179 8.75469 5.15478C8.61569 5.01776 8.53751 4.83198 8.53731 4.63821V4.48792C8.31856 4.60097 8.1354 4.7709 8.00768 4.97929C7.87997 5.18768 7.81258 5.42656 7.81283 5.67003V9.64236C7.81294 9.81664 7.88318 9.98374 8.00816 10.107C8.13313 10.2303 8.30261 10.2996 8.4794 10.2998H12.5213C12.6982 10.2997 12.8678 10.2304 12.9928 10.1071C13.1179 9.98387 13.1882 9.8167 13.1883 9.64236V5.67003C13.1885 5.42651 13.1211 5.18758 12.9933 4.97918C12.8655 4.77078 12.6823 4.60088 12.4634 4.48792ZM8.6941 9.83925C8.6116 9.83918 8.53098 9.81499 8.46243 9.76976C8.39387 9.72452 8.34046 9.66026 8.30894 9.58511C8.27743 9.50996 8.26922 9.42728 8.28536 9.34753C8.30151 9.26778 8.34127 9.19454 8.39963 9.13706C8.45799 9.07959 8.53233 9.04046 8.61325 9.02462C8.69416 9.00878 8.77803 9.01695 8.85424 9.04809C8.93045 9.07923 8.99558 9.13194 9.0414 9.19956C9.08723 9.26718 9.11169 9.34668 9.11169 9.428C9.11169 9.48204 9.10088 9.53555 9.07989 9.58547C9.0589 9.63539 9.02813 9.68074 8.98935 9.71894C8.95057 9.75713 8.90453 9.78742 8.85387 9.80806C8.80321 9.8287 8.74892 9.8393 8.6941 9.83925ZM10.0631 7.75503H8.9151C8.86425 7.75503 8.81389 7.74516 8.76691 7.72597C8.71993 7.70679 8.67723 7.67867 8.64127 7.64322C8.60532 7.60777 8.57679 7.56569 8.55733 7.51938C8.53787 7.47306 8.52785 7.42342 8.52785 7.37329V6.19856C8.52785 6.14843 8.53787 6.09879 8.55733 6.05248C8.57679 6.00616 8.60532 5.96408 8.64127 5.92863C8.67723 5.89318 8.71993 5.86506 8.76691 5.84588C8.81389 5.8267 8.86425 5.81682 8.9151 5.81682H10.0631V7.75503ZM10.9365 5.81682H12.0844C12.1871 5.81682 12.2856 5.85704 12.3583 5.92863C12.4309 6.00022 12.4717 6.09732 12.4717 6.19856V7.37329C12.4717 7.47453 12.4309 7.57163 12.3583 7.64322C12.2856 7.71481 12.1871 7.75503 12.0844 7.75503H10.9365V5.81682ZM12.3058 9.83925C12.2233 9.83925 12.1427 9.81513 12.0741 9.76994C12.0054 9.72476 11.952 9.66053 11.9204 9.58538C11.8888 9.51023 11.8806 9.42754 11.8967 9.34777C11.9128 9.26799 11.9525 9.19472 12.0108 9.1372C12.0692 9.07969 12.1435 9.04052 12.2244 9.02465C12.3054 9.00878 12.3893 9.01693 12.4655 9.04805C12.5417 9.07918 12.6069 9.13189 12.6527 9.19952C12.6986 9.26715 12.723 9.34666 12.723 9.428C12.7229 9.53704 12.6789 9.64158 12.6007 9.71869C12.5225 9.79579 12.4164 9.83915 12.3058 9.83925Z" fill="#02836F"/>
<path d="M11.7224 3.54348H9.27793C9.12955 3.54348 9.00926 3.66205 9.00926 3.80832V4.63821C9.00926 4.78448 9.12955 4.90306 9.27793 4.90306H11.7224C11.8708 4.90306 11.9911 4.78448 11.9911 4.63821V3.80832C11.9911 3.66205 11.8708 3.54348 11.7224 3.54348Z" fill="#02836F"/>
</svg>
