<svg width="25" height="24" viewBox="0 0 25 24" fill="none" xmlns="http://www.w3.org/2000/svg">
<path d="M18.7395 8.97519L17.9943 9.05977L18.7395 8.97519ZM19.1867 12.9153L19.9319 12.8307V12.8307L19.1867 12.9153ZM5.81328 12.9153L5.06806 12.8307L5.06806 12.8307L5.81328 12.9153ZM6.26046 8.97519L7.00568 9.05977L6.26046 8.97519ZM4.94779 14.8721L4.37668 14.386H4.37668L4.94779 14.8721ZM20.0522 14.8721L19.4811 15.3583L20.0522 14.8721ZM14.7699 4.37366H14.0199C14.0199 4.69424 14.2237 4.97938 14.527 5.08322L14.7699 4.37366ZM10.2301 4.37366L10.473 5.08322C10.7763 4.97938 10.9801 4.69424 10.9801 4.37366H10.2301ZM16.2023 20.2632C16.3477 19.8753 16.1511 19.4431 15.7632 19.2977C15.3753 19.1523 14.9431 19.3489 14.7977 19.7368L16.2023 20.2632ZM10.2023 19.7368C10.0569 19.3489 9.62467 19.1523 9.2368 19.2977C8.84893 19.4431 8.65234 19.8753 8.7977 20.2632L10.2023 19.7368ZM18.2772 18V17.25H6.72281V18V18.75H18.2772V18ZM18.7395 8.97519L17.9943 9.05977L18.4415 12.9998L19.1867 12.9153L19.9319 12.8307L19.4848 8.89061L18.7395 8.97519ZM5.81328 12.9153L6.55849 12.9998L7.00568 9.05977L6.26046 8.97519L5.51525 8.89061L5.06806 12.8307L5.81328 12.9153ZM4.94779 14.8721L5.51889 15.3583C6.09621 14.6801 6.46028 13.8652 6.55849 12.9998L5.81328 12.9153L5.06806 12.8307C5.00519 13.3846 4.77067 13.9231 4.37668 14.386L4.94779 14.8721ZM19.1867 12.9153L18.4415 12.9998C18.5397 13.8652 18.9038 14.6801 19.4811 15.3583L20.0522 14.8721L20.6233 14.386C20.2293 13.9231 19.9948 13.3846 19.9319 12.8307L19.1867 12.9153ZM6.72281 18V17.25C6.06777 17.25 5.60443 16.926 5.39056 16.5492C5.18409 16.1854 5.18714 15.748 5.51889 15.3583L4.94779 14.8721L4.37668 14.386C3.61141 15.285 3.58777 16.4116 4.08598 17.2895C4.57679 18.1544 5.54947 18.75 6.72281 18.75V18ZM18.2772 18V18.75C19.4505 18.75 20.4232 18.1544 20.914 17.2895C21.4122 16.4116 21.3886 15.285 20.6233 14.386L20.0522 14.8721L19.4811 15.3583C19.8129 15.748 19.8159 16.1854 19.6094 16.5492C19.3956 16.926 18.9322 17.25 18.2772 17.25V18ZM14.7699 4.37366H15.5199V4.26995H14.7699H14.0199V4.37366H14.7699ZM18.7395 8.97519L19.4848 8.89061C19.2055 6.43026 17.3806 4.47476 15.0129 3.6641L14.7699 4.37366L14.527 5.08322C16.4441 5.73962 17.7913 7.27101 17.9943 9.05977L18.7395 8.97519ZM10.2301 4.37366H10.9801V4.26995H10.2301H9.48005V4.37366H10.2301ZM6.26046 8.97519L7.00568 9.05977C7.2087 7.27101 8.55587 5.73962 10.473 5.08322L10.2301 4.37366L9.98711 3.6641C7.61944 4.47476 5.79449 6.43026 5.51525 8.89061L6.26046 8.97519ZM12.5 2V2.75C13.3394 2.75 14.0199 3.4305 14.0199 4.26995H14.7699H15.5199C15.5199 2.60208 14.1679 1.25 12.5 1.25V2ZM12.5 2V1.25C10.8321 1.25 9.48005 2.60208 9.48005 4.26995H10.2301H10.9801C10.9801 3.4305 11.6606 2.75 12.5 2.75V2ZM15.5 20L14.7977 19.7368C14.475 20.5979 13.5846 21.25 12.5 21.25V22V22.75C14.1855 22.75 15.6516 21.7325 16.2023 20.2632L15.5 20ZM12.5 22V21.25C11.4154 21.25 10.525 20.5979 10.2023 19.7368L9.5 20L8.7977 20.2632C9.34835 21.7325 10.8145 22.75 12.5 22.75V22Z" fill="#F6F6F6"/>
</svg>
