<svg width="14" height="14" viewBox="0 0 14 14" fill="none" xmlns="http://www.w3.org/2000/svg">
<g id="qlementine-icons:paint-roll-brush-16" clipPath="url(#clip0_278_301)">
<path id="Vector" fill-rule="evenodd" clip-rule="evenodd" d="M1.00629 1.07627C0.926668 1.26965 0.894293 1.49365 0.882043 1.8174C0.623696 1.90669 0.399673 2.07441 0.241241 2.29716C0.0828096 2.5199 -0.00212475 2.78655 -0.00170745 3.0599V4.4774C-0.00170745 4.82915 -0.00170745 5.12052 0.0175425 5.36115C0.0376675 5.60702 0.0805425 5.83277 0.189043 6.0454C0.357043 6.3744 0.624793 6.64215 0.953793 6.81015C1.16642 6.91865 1.39217 6.96152 1.63804 6.98165C1.87517 7.0009 2.16567 7.0009 2.52179 7.0009H5.33929C5.71379 7.0009 5.96929 7.0009 6.16529 7.01752C6.35779 7.03327 6.45492 7.06127 6.52404 7.09627C6.68854 7.18027 6.82242 7.31502 6.90642 7.47865C6.94142 7.5469 6.96942 7.6449 6.98517 7.8374C7.00179 8.03427 7.00267 8.2889 7.00267 8.6634V8.7509C6.7706 8.7509 6.54804 8.84308 6.38395 9.00718C6.21985 9.17127 6.12767 9.39383 6.12767 9.6259V13.1259C6.12767 13.358 6.21985 13.5805 6.38395 13.7446C6.54804 13.9087 6.7706 14.0009 7.00267 14.0009H7.87767C8.10973 14.0009 8.33229 13.9087 8.49639 13.7446C8.66048 13.5805 8.75267 13.358 8.75267 13.1259V9.6259C8.75267 9.39383 8.66048 9.17127 8.49639 9.00718C8.33229 8.84308 8.10973 8.7509 7.87767 8.7509V8.6459C7.87767 8.29327 7.87767 8.0019 7.85754 7.76215C7.83742 7.5154 7.79454 7.28965 7.68604 7.07702C7.51827 6.74775 7.25056 6.48005 6.92129 6.31227C6.70867 6.20377 6.48292 6.1609 6.23704 6.14077C5.99992 6.12152 5.70942 6.12152 5.35329 6.12152H2.53579C2.16129 6.12152 1.90667 6.12152 1.70979 6.1049C1.51817 6.08915 1.42017 6.06115 1.35104 6.02615C1.18641 5.94226 1.05256 5.80841 0.968668 5.64377C0.933668 5.57552 0.905668 5.47752 0.889917 5.28502C0.874376 5.00998 0.86883 4.73447 0.873293 4.45902V3.05902L0.874168 3.0319C0.877668 3.58402 0.897793 3.9034 1.00629 4.1694C1.18392 4.59815 1.52429 4.93852 1.95129 5.1144C2.27329 5.2474 2.68017 5.2474 3.50004 5.2474H11.375C12.1905 5.2474 12.6 5.2474 12.9238 5.1144C13.3525 4.93677 13.6929 4.5964 13.8688 4.1694C14.0018 3.8474 14.0018 3.44052 14.0018 2.62065C14.0018 1.80077 14.0018 1.39565 13.8688 1.0719C13.6912 0.644285 13.3514 0.304478 12.9238 0.126896C12.6018 -0.00610352 12.194 -0.00610352 11.375 -0.00610352H3.50004C2.68454 -0.00610352 2.27504 -0.00610352 1.95129 0.126896C1.52254 0.304521 1.18217 0.644896 1.00629 1.0719V1.07627ZM11.3313 0.870646H3.45629C3.03629 0.870646 2.76592 0.870646 2.55504 0.885521C2.35554 0.898646 2.27942 0.922271 2.24354 0.938021C2.02941 1.02662 1.85916 1.19655 1.77017 1.41052C1.75529 1.44727 1.73167 1.52252 1.71767 1.72202C1.70367 1.9294 1.70367 2.20065 1.70367 2.62327C1.70367 3.0459 1.70367 3.31452 1.71854 3.52452C1.73167 3.72402 1.75529 3.80015 1.77017 3.83602C1.85854 4.0504 2.02917 4.22102 2.24354 4.3094C2.28029 4.32427 2.35554 4.3479 2.55504 4.3619C2.76242 4.37502 3.03367 4.37502 3.45629 4.37502H11.3313C11.7513 4.37502 12.0217 4.37502 12.2325 4.36102C12.432 4.34702 12.5082 4.3234 12.544 4.30852C12.7582 4.21992 12.9284 4.04999 13.0174 3.83602C13.0323 3.79927 13.0559 3.72315 13.0699 3.52365C13.0839 3.31627 13.0839 3.04502 13.0839 2.6224C13.0839 2.19977 13.0839 1.93202 13.069 1.72115C13.0559 1.52165 13.0323 1.44552 13.0174 1.40965C12.9284 1.19567 12.7582 1.02575 12.544 0.937146C12.5073 0.921396 12.432 0.897771 12.2325 0.884646C11.9323 0.870585 11.6318 0.866499 11.3313 0.870646ZM6.95629 9.61977H7.83129V13.1198H6.95629V9.61977Z" fill="white"/>
</g>
<defs>
<clipPath id="clip0_278_301">
<rect width="14" height="14" fill="white"/>
</clipPath>
</defs>
</svg>
