<svg width="24" height="24" viewBox="0 0 24 24" fill="none" xmlns="http://www.w3.org/2000/svg">
<path d="M11.9994 21.933C10.0348 21.933 8.1144 21.3505 6.48093 20.259C4.84746 19.1676 3.57432 17.6162 2.82252 15.8012C2.07071 13.9862 1.874 11.989 2.25727 10.0622C2.64054 8.13538 3.58656 6.36548 4.97572 4.97633C6.36487 3.58717 8.13477 2.64115 10.0616 2.25788C11.9884 1.87461 13.9856 2.07132 15.8006 2.82313C17.6156 3.57493 19.1669 4.84807 20.2584 6.48154C21.3498 8.11502 21.9324 10.0355 21.9324 12C21.9295 14.6335 20.8821 17.1583 19.0199 19.0205C17.1577 20.8827 14.6329 21.9301 11.9994 21.933ZM11.9994 3.06702C10.2326 3.06702 8.50553 3.59093 7.0365 4.5725C5.56748 5.55407 4.42251 6.94922 3.74639 8.58151C3.07028 10.2138 2.89337 12.0099 3.23806 13.7428C3.58274 15.4756 4.43352 17.0673 5.68283 18.3166C6.93213 19.5659 8.52384 20.4167 10.2567 20.7614C11.9895 21.1061 13.7856 20.9292 15.4179 20.253C17.0502 19.5769 18.4454 18.432 19.4269 16.9629C20.4085 15.4939 20.9324 13.7668 20.9324 12C20.9298 9.63165 19.9878 7.36105 18.3131 5.68636C16.6384 4.01167 14.3678 3.06967 11.9994 3.06702Z" fill="black"/>
<path d="M12.5684 8.5H10.8184C10.6194 8.5 10.4287 8.57902 10.288 8.71967C10.1474 8.86032 10.0684 9.05109 10.0684 9.25V14.99C10.0684 15.1226 10.121 15.2498 10.2148 15.3436C10.3086 15.4373 10.4358 15.49 10.5684 15.49C10.701 15.49 10.8281 15.4373 10.9219 15.3436C11.0157 15.2498 11.0684 15.1226 11.0684 14.99V13.5H12.5684C13.2314 13.5 13.8673 13.2366 14.3361 12.7678C14.805 12.2989 15.0684 11.663 15.0684 11C15.0684 10.337 14.805 9.70107 14.3361 9.23223C13.8673 8.76339 13.2314 8.5 12.5684 8.5ZM12.5684 12.5H11.0684V9.5H12.5684C12.9662 9.5 13.3477 9.65804 13.629 9.93934C13.9103 10.2206 14.0684 10.6022 14.0684 11C14.0684 11.3978 13.9103 11.7794 13.629 12.0607C13.3477 12.342 12.9662 12.5 12.5684 12.5Z" fill="black"/>
</svg>
