<svg width="21" height="20" viewBox="0 0 21 20" fill="none" xmlns="http://www.w3.org/2000/svg">
<path d="M18.625 15H16.125V13.125H18C18.095 13.125 18.1887 13.1033 18.274 13.0617C18.3594 13.02 18.4341 12.9595 18.4926 12.8846C18.551 12.8097 18.5916 12.7225 18.6113 12.6296C18.631 12.5367 18.6293 12.4406 18.6062 12.3484L16.1062 2.34843C16.0724 2.21328 15.9943 2.09333 15.8845 2.00763C15.7746 1.92192 15.6393 1.87537 15.5 1.87537C15.3607 1.87537 15.2254 1.92192 15.1155 2.00763C15.0057 2.09333 14.9276 2.21328 14.8938 2.34843L12.3938 12.3484C12.3707 12.4406 12.369 12.5367 12.3887 12.6296C12.4084 12.7225 12.449 12.8097 12.5074 12.8846C12.5659 12.9595 12.6406 13.02 12.726 13.0617C12.8113 13.1033 12.905 13.125 13 13.125H14.875V15H9.875V13.75H10.5C10.6658 13.75 10.8247 13.6841 10.9419 13.5669C11.0592 13.4497 11.125 13.2908 11.125 13.125C11.125 12.9592 11.0592 12.8003 10.9419 12.683C10.8247 12.5658 10.6658 12.5 10.5 12.5H9.875V11.25H10.5C10.6658 11.25 10.8247 11.1841 10.9419 11.0669C11.0592 10.9497 11.125 10.7908 11.125 10.625C11.125 10.4592 11.0592 10.3003 10.9419 10.183C10.8247 10.0658 10.6658 9.99999 10.5 9.99999H3.625C3.45924 9.99999 3.30027 10.0658 3.18306 10.183C3.06585 10.3003 3 10.4592 3 10.625C3 10.7908 3.06585 10.9497 3.18306 11.0669C3.30027 11.1841 3.45924 11.25 3.625 11.25H4.25V12.5H3.625C3.45924 12.5 3.30027 12.5658 3.18306 12.683C3.06585 12.8003 3 12.9592 3 13.125C3 13.2908 3.06585 13.4497 3.18306 13.5669C3.30027 13.6841 3.45924 13.75 3.625 13.75H4.25V15H2.375C2.20924 15 2.05027 15.0658 1.93306 15.183C1.81585 15.3003 1.75 15.4592 1.75 15.625C1.75 15.7908 1.81585 15.9497 1.93306 16.0669C2.05027 16.1841 2.20924 16.25 2.375 16.25H18.625C18.7908 16.25 18.9497 16.1841 19.0669 16.0669C19.1842 15.9497 19.25 15.7908 19.25 15.625C19.25 15.4592 19.1842 15.3003 19.0669 15.183C18.9497 15.0658 18.7908 15 18.625 15ZM8.625 15H5.5V13.75H8.625V15ZM8.625 12.5H5.5V11.25H8.625V12.5ZM9.5625 7.49999C9.99515 7.49999 10.4181 7.3717 10.7778 7.13133C11.1375 6.89096 11.4179 6.54932 11.5835 6.14961C11.7491 5.7499 11.7924 5.31006 11.708 4.88573C11.6236 4.4614 11.4152 4.07162 11.1093 3.76569C10.8034 3.45977 10.4136 3.25143 9.98926 3.16702C9.56493 3.08262 9.12509 3.12594 8.72538 3.2915C8.32567 3.45707 7.98403 3.73745 7.74366 4.09718C7.50329 4.45691 7.375 4.87984 7.375 5.31249C7.375 5.89265 7.60547 6.44905 8.0157 6.85929C8.42594 7.26952 8.98234 7.49999 9.5625 7.49999ZM9.5625 4.37499C9.74792 4.37499 9.92918 4.42997 10.0833 4.53299C10.2375 4.636 10.3577 4.78242 10.4286 4.95372C10.4996 5.12503 10.5182 5.31353 10.482 5.49539C10.4458 5.67724 10.3565 5.84429 10.2254 5.9754C10.0943 6.10651 9.92725 6.1958 9.7454 6.23198C9.56354 6.26815 9.37504 6.24958 9.20373 6.17863C9.03243 6.10767 8.88601 5.98751 8.783 5.83334C8.67998 5.67916 8.625 5.49791 8.625 5.31249C8.625 5.06385 8.72377 4.82539 8.89959 4.64958C9.0754 4.47376 9.31386 4.37499 9.5625 4.37499Z" fill="#02836F"/>
</svg>
