<svg width="14" height="14" viewBox="0 0 14 14" fill="none" xmlns="http://www.w3.org/2000/svg">
<g clipPath="url(#clip0_1679_1553)">
<path d="M12.6875 12.3594H11.2656V1.64062H11.8125C11.8995 1.64062 11.983 1.60605 12.0445 1.54452C12.1061 1.48298 12.1406 1.39952 12.1406 1.3125C12.1406 1.22548 12.1061 1.14202 12.0445 1.08048C11.983 1.01895 11.8995 0.984375 11.8125 0.984375H2.1875C2.10048 0.984375 2.01702 1.01895 1.95548 1.08048C1.89395 1.14202 1.85938 1.22548 1.85938 1.3125C1.85938 1.39952 1.89395 1.48298 1.95548 1.54452C2.01702 1.60605 2.10048 1.64062 2.1875 1.64062H2.73438V12.3594H1.3125C1.22548 12.3594 1.14202 12.3939 1.08048 12.4555C1.01895 12.517 0.984375 12.6005 0.984375 12.6875C0.984375 12.7745 1.01895 12.858 1.08048 12.9195C1.14202 12.9811 1.22548 13.0156 1.3125 13.0156H12.6875C12.7745 13.0156 12.858 12.9811 12.9195 12.9195C12.9811 12.858 13.0156 12.7745 13.0156 12.6875C13.0156 12.6005 12.9811 12.517 12.9195 12.4555C12.858 12.3939 12.7745 12.3594 12.6875 12.3594ZM3.39062 1.64062H10.6094V12.3594H8.64062V10.0625C8.64062 9.97548 8.60606 9.89202 8.54452 9.83048C8.48298 9.76894 8.39952 9.73438 8.3125 9.73438H5.6875C5.60048 9.73438 5.51702 9.76894 5.45548 9.83048C5.39395 9.89202 5.35938 9.97548 5.35938 10.0625V12.3594H3.39062V1.64062ZM7.98438 12.3594H6.01562V10.3906H7.98438V12.3594ZM4.92188 3.5C4.92188 3.41298 4.95645 3.32952 5.01798 3.26798C5.07952 3.20645 5.16298 3.17188 5.25 3.17188H6.125C6.21202 3.17188 6.29548 3.20645 6.35702 3.26798C6.41855 3.32952 6.45312 3.41298 6.45312 3.5C6.45312 3.58702 6.41855 3.67048 6.35702 3.73202C6.29548 3.79355 6.21202 3.82812 6.125 3.82812H5.25C5.16298 3.82812 5.07952 3.79355 5.01798 3.73202C4.95645 3.67048 4.92188 3.58702 4.92188 3.5ZM7.54688 3.5C7.54688 3.41298 7.58144 3.32952 7.64298 3.26798C7.70452 3.20645 7.78798 3.17188 7.875 3.17188H8.75C8.83702 3.17188 8.92048 3.20645 8.98202 3.26798C9.04356 3.32952 9.07812 3.41298 9.07812 3.5C9.07812 3.58702 9.04356 3.67048 8.98202 3.73202C8.92048 3.79355 8.83702 3.82812 8.75 3.82812H7.875C7.78798 3.82812 7.70452 3.79355 7.64298 3.73202C7.58144 3.67048 7.54688 3.58702 7.54688 3.5ZM4.92188 5.6875C4.92188 5.60048 4.95645 5.51702 5.01798 5.45548C5.07952 5.39395 5.16298 5.35938 5.25 5.35938H6.125C6.21202 5.35938 6.29548 5.39395 6.35702 5.45548C6.41855 5.51702 6.45312 5.60048 6.45312 5.6875C6.45312 5.77452 6.41855 5.85798 6.35702 5.91952C6.29548 5.98105 6.21202 6.01562 6.125 6.01562H5.25C5.16298 6.01562 5.07952 5.98105 5.01798 5.91952C4.95645 5.85798 4.92188 5.77452 4.92188 5.6875ZM7.54688 5.6875C7.54688 5.60048 7.58144 5.51702 7.64298 5.45548C7.70452 5.39395 7.78798 5.35938 7.875 5.35938H8.75C8.83702 5.35938 8.92048 5.39395 8.98202 5.45548C9.04356 5.51702 9.07812 5.60048 9.07812 5.6875C9.07812 5.77452 9.04356 5.85798 8.98202 5.91952C8.92048 5.98105 8.83702 6.01562 8.75 6.01562H7.875C7.78798 6.01562 7.70452 5.98105 7.64298 5.91952C7.58144 5.85798 7.54688 5.77452 7.54688 5.6875ZM5.25 8.20312C5.16298 8.20312 5.07952 8.16856 5.01798 8.10702C4.95645 8.04548 4.92188 7.96202 4.92188 7.875C4.92188 7.78798 4.95645 7.70452 5.01798 7.64298C5.07952 7.58144 5.16298 7.54688 5.25 7.54688H6.125C6.21202 7.54688 6.29548 7.58144 6.35702 7.64298C6.41855 7.70452 6.45312 7.78798 6.45312 7.875C6.45312 7.96202 6.41855 8.04548 6.35702 8.10702C6.29548 8.16856 6.21202 8.20312 6.125 8.20312H5.25ZM7.54688 7.875C7.54688 7.78798 7.58144 7.70452 7.64298 7.64298C7.70452 7.58144 7.78798 7.54688 7.875 7.54688H8.75C8.83702 7.54688 8.92048 7.58144 8.98202 7.64298C9.04356 7.70452 9.07812 7.78798 9.07812 7.875C9.07812 7.96202 9.04356 8.04548 8.98202 8.10702C8.92048 8.16856 8.83702 8.20312 8.75 8.20312H7.875C7.78798 8.20312 7.70452 8.16856 7.64298 8.10702C7.58144 8.04548 7.54688 7.96202 7.54688 7.875Z" fill="#23272F"/>
</g>
<defs>
<clipPath id="clip0_1679_1553">
<rect width="14" height="14" fill="white"/>
</clipPath>
</defs>
</svg>
