<svg width="21" height="20" viewBox="0 0 21 20" fill="none" xmlns="http://www.w3.org/2000/svg">
<path d="M6.75086 7.69171V2.50005C6.75086 2.38171 6.79086 2.28282 6.87086 2.20338C6.95086 2.12394 7.05003 2.08394 7.16836 2.08338C7.28669 2.08282 7.38558 2.12282 7.46503 2.20338C7.54447 2.28394 7.58419 2.38282 7.58419 2.50005V7.69171H9.05919V2.50005C9.05919 2.38171 9.09892 2.28282 9.17836 2.20338C9.25836 2.12338 9.35753 2.08338 9.47586 2.08338C9.59419 2.08338 9.69308 2.12338 9.77253 2.20338C9.85197 2.28338 9.89169 2.38227 9.89169 2.50005V7.69171C9.89169 8.40616 9.66808 9.00949 9.22086 9.50171C8.77364 9.99394 8.22808 10.2895 7.58419 10.3884V17.5C7.58419 17.6184 7.54419 17.7173 7.46419 17.7967C7.38419 17.8762 7.28503 17.9162 7.16669 17.9167C7.04836 17.9173 6.94947 17.8773 6.87003 17.7967C6.79058 17.7162 6.75086 17.6173 6.75086 17.5V10.3884C6.10641 10.29 5.56058 9.99449 5.11336 9.50171C4.66669 9.00949 4.44336 8.40644 4.44336 7.69255V2.50005C4.44336 2.38171 4.48336 2.28282 4.56336 2.20338C4.64336 2.12394 4.74253 2.08394 4.86086 2.08338C4.97919 2.08282 5.07808 2.12282 5.15753 2.20338C5.23697 2.28394 5.27641 2.38282 5.27586 2.50005V7.69171H6.75086ZM14.4425 11.25H13.0675C12.8725 11.25 12.7111 11.1856 12.5834 11.0567C12.4556 10.9278 12.3917 10.7678 12.3917 10.5767V5.83338C12.3917 4.71116 12.6397 3.8056 13.1359 3.11671C13.6325 2.42782 14.1239 2.08338 14.61 2.08338C14.8278 2.08338 14.9934 2.15394 15.1067 2.29505C15.22 2.43616 15.2767 2.62782 15.2767 2.87005V17.5C15.2767 17.6184 15.2367 17.7173 15.1567 17.7967C15.0767 17.8767 14.9775 17.9167 14.8592 17.9167C14.7409 17.9167 14.642 17.8767 14.5625 17.7967C14.4831 17.7167 14.4434 17.6178 14.4434 17.5L14.4425 11.25Z" fill="#02836F"/>
</svg>
