<svg width="24" height="24" viewBox="0 0 24 24" fill="none" xmlns="http://www.w3.org/2000/svg">
<g clip-path="url(#clip0_402_9527)">
<path d="M3.63605 12.707C3.44858 12.5194 3.34326 12.2651 3.34326 12C3.34326 11.7348 3.44858 11.4805 3.63605 11.293L9.29305 5.63598C9.3853 5.54047 9.49564 5.46428 9.61764 5.41188C9.73965 5.35947 9.87087 5.33188 10.0036 5.33073C10.1364 5.32957 10.2681 5.35487 10.391 5.40516C10.5139 5.45544 10.6256 5.52969 10.7194 5.62358C10.8133 5.71747 10.8876 5.82913 10.9379 5.95202C10.9882 6.07492 11.0135 6.2066 11.0123 6.33938C11.0111 6.47216 10.9836 6.60338 10.9311 6.72538C10.8787 6.84739 10.8026 6.95773 10.707 7.04998L6.75705 11L20 11C20.2653 11 20.5196 11.1053 20.7072 11.2929C20.8947 11.4804 21 11.7348 21 12C21 12.2652 20.8947 12.5195 20.7072 12.7071C20.5196 12.8946 20.2653 13 20 13L6.75705 13L10.707 16.95C10.8892 17.1386 10.99 17.3912 10.9877 17.6534C10.9854 17.9156 10.8803 18.1664 10.6949 18.3518C10.5095 18.5372 10.2586 18.6424 9.99645 18.6447C9.73425 18.6469 9.48165 18.5461 9.29305 18.364L3.63605 12.707Z" fill="black"/>
</g>
<defs>
<clipPath id="clip0_402_9527">
<rect width="24" height="24" fill="white" transform="matrix(0 1 1 0 0 0)"/>
</clipPath>
</defs>
</svg>
