<svg width="21" height="20" viewBox="0 0 21 20" fill="none" xmlns="http://www.w3.org/2000/svg">
<path d="M18 13.3333V8.41664L11.2917 12.0625C11.0417 12.2014 10.7778 12.2708 10.5 12.2708C10.2222 12.2708 9.95834 12.2014 9.70834 12.0625L2.66667 8.22914C2.5139 8.14581 2.40612 8.04164 2.34334 7.91664C2.28056 7.79164 2.24945 7.65275 2.25001 7.49997C2.25056 7.34719 2.28195 7.20831 2.34417 7.08331C2.4064 6.95831 2.5139 6.85414 2.66667 6.77081L9.70834 2.93747C9.83334 2.86803 9.96195 2.81581 10.0942 2.78081C10.2264 2.74581 10.3617 2.72858 10.5 2.72914C10.6383 2.72969 10.7739 2.74719 10.9067 2.78164C11.0395 2.81608 11.1678 2.86803 11.2917 2.93747L19.2292 7.27081C19.3681 7.34025 19.4758 7.44108 19.5525 7.57331C19.6292 7.70553 19.6672 7.84775 19.6667 7.99997V13.3333C19.6667 13.5694 19.5867 13.7675 19.4267 13.9275C19.2667 14.0875 19.0689 14.1672 18.8333 14.1666C18.5978 14.1661 18.4 14.0861 18.24 13.9266C18.08 13.7672 18 13.5694 18 13.3333ZM9.70834 17.0625L5.54167 14.8125C5.2639 14.6597 5.04862 14.4514 4.89584 14.1875C4.74306 13.9236 4.66667 13.6389 4.66667 13.3333V10.1666L9.70834 12.8958C9.95834 13.0347 10.2222 13.1041 10.5 13.1041C10.7778 13.1041 11.0417 13.0347 11.2917 12.8958L16.3333 10.1666V13.3333C16.3333 13.6389 16.257 13.9236 16.1042 14.1875C15.9514 14.4514 15.7361 14.6597 15.4583 14.8125L11.2917 17.0625C11.1667 17.1319 11.0383 17.1841 10.9067 17.2191C10.775 17.2541 10.6395 17.2714 10.5 17.2708C10.3606 17.2703 10.225 17.253 10.0933 17.2191C9.96167 17.1853 9.83334 17.133 9.70834 17.0625Z" fill="#02836F"/>
</svg>
