<svg width="20" height="20" viewBox="0 0 20 20" fill="none" xmlns="http://www.w3.org/2000/svg">
<g id="material-symbols-light:share-outline">
<path id="Vector" d="M13.8417 17.5C13.2894 17.5 12.8208 17.3069 12.4358 16.9208C12.0514 16.5342 11.8592 16.0647 11.8592 15.5125C11.8592 15.4292 11.8958 15.2189 11.9692 14.8817L5.97167 11.3208C5.79167 11.5286 5.57139 11.6917 5.31083 11.81C5.05028 11.9283 4.77056 11.9875 4.47167 11.9875C3.92389 11.9875 3.45833 11.7925 3.075 11.4025C2.69167 11.0125 2.5 10.545 2.5 10C2.5 9.455 2.69167 8.9875 3.075 8.5975C3.45833 8.2075 3.92389 8.0125 4.47167 8.0125C4.77 8.0125 5.04972 8.07167 5.31083 8.19C5.57194 8.30833 5.79222 8.47167 5.97167 8.68L11.97 5.13417C11.9311 5.02639 11.9031 4.91944 11.8858 4.81333C11.8681 4.70667 11.8592 4.59778 11.8592 4.48667C11.8592 3.935 12.0528 3.46583 12.44 3.07917C12.8272 2.69306 13.2972 2.5 13.85 2.5C14.4028 2.5 14.8717 2.69361 15.2567 3.08083C15.6417 3.46806 15.8339 3.93806 15.8333 4.49083C15.8328 5.04361 15.6397 5.5125 15.2542 5.8975C14.8686 6.2825 14.3992 6.47472 13.8458 6.47417C13.5447 6.47417 13.2669 6.4125 13.0125 6.28917C12.7581 6.16583 12.5414 6 12.3625 5.79167L6.36333 9.3525C6.40222 9.46028 6.43028 9.5675 6.4475 9.67417C6.46528 9.78028 6.47417 9.88889 6.47417 10C6.47417 10.1111 6.46528 10.2197 6.4475 10.3258C6.42972 10.4319 6.40194 10.5392 6.36417 10.6475L12.3625 14.2083C12.5419 14 12.7586 13.8342 13.0125 13.7108C13.2669 13.5875 13.5447 13.5258 13.8458 13.5258C14.3981 13.5258 14.8675 13.7192 15.2542 14.1058C15.6403 14.4936 15.8333 14.9639 15.8333 15.5167C15.8333 16.0694 15.6397 16.5383 15.2525 16.9233C14.8653 17.3083 14.3944 17.5006 13.8417 17.5ZM13.8458 16.6667C14.1731 16.6667 14.4472 16.5561 14.6683 16.335C14.8894 16.1139 15 15.84 15 15.5133C15 15.1867 14.8894 14.9125 14.6683 14.6908C14.4472 14.4692 14.1733 14.3586 13.8467 14.3592C13.52 14.3597 13.2458 14.4703 13.0242 14.6908C12.8025 14.9114 12.6919 15.1853 12.6925 15.5125C12.6931 15.8397 12.8036 16.1139 13.0242 16.335C13.2447 16.5561 13.5181 16.6667 13.8458 16.6667ZM4.47167 11.1533C4.80278 11.1533 5.08056 11.0428 5.305 10.8217C5.52889 10.6006 5.64083 10.3267 5.64083 10C5.64083 9.67333 5.52889 9.39944 5.305 9.17833C5.08111 8.95722 4.80333 8.84667 4.47167 8.84667C4.14889 8.84667 3.87861 8.95722 3.66083 9.17833C3.44306 9.39944 3.33389 9.67333 3.33333 10C3.33278 10.3267 3.44194 10.6008 3.66083 10.8225C3.87972 11.0442 4.15 11.1544 4.47167 11.1533ZM13.8467 5.64083C14.1733 5.64083 14.4472 5.53028 14.6683 5.30917C14.8894 5.08806 15 4.81389 15 4.48667C15 4.15944 14.8894 3.88556 14.6683 3.665C14.4472 3.44444 14.1733 3.33389 13.8467 3.33333C13.52 3.33278 13.2458 3.44333 13.0242 3.665C12.8025 3.88667 12.6919 4.16083 12.6925 4.4875C12.6931 4.81417 12.8036 5.08806 13.0242 5.30917C13.2447 5.53028 13.5189 5.64083 13.8467 5.64083Z" fill="#111111"/>
</g>
</svg>
