<svg width="20" height="20" viewBox="0 0 20 20" fill="none" xmlns="http://www.w3.org/2000/svg">
<path d="M13.8417 17.4999C13.2894 17.4999 12.8208 17.3069 12.4358 16.9208C12.0514 16.5341 11.8592 16.0646 11.8592 15.5124C11.8592 15.4291 11.8958 15.2188 11.9692 14.8816L5.97167 11.3208C5.79167 11.5285 5.57139 11.6916 5.31083 11.8099C5.05028 11.9283 4.77056 11.9874 4.47167 11.9874C3.92389 11.9874 3.45833 11.7924 3.075 11.4024C2.69167 11.0124 2.5 10.5449 2.5 9.99992C2.5 9.45492 2.69167 8.98742 3.075 8.59742C3.45833 8.20742 3.92389 8.01242 4.47167 8.01242C4.77 8.01242 5.04972 8.07159 5.31083 8.18992C5.57194 8.30826 5.79222 8.47159 5.97167 8.67992L11.97 5.13409C11.9311 5.02631 11.9031 4.91937 11.8858 4.81326C11.8681 4.70659 11.8592 4.5977 11.8592 4.48659C11.8592 3.93492 12.0528 3.46576 12.44 3.07909C12.8272 2.69298 13.2972 2.49992 13.85 2.49992C14.4028 2.49992 14.8717 2.69353 15.2567 3.08076C15.6417 3.46798 15.8339 3.93798 15.8333 4.49076C15.8328 5.04353 15.6397 5.51242 15.2542 5.89742C14.8686 6.28242 14.3992 6.47465 13.8458 6.47409C13.5447 6.47409 13.2669 6.41242 13.0125 6.28909C12.7581 6.16576 12.5414 5.99992 12.3625 5.79159L6.36333 9.35242C6.40222 9.4602 6.43028 9.56742 6.4475 9.67409C6.46528 9.7802 6.47417 9.88881 6.47417 9.99992C6.47417 10.111 6.46528 10.2196 6.4475 10.3258C6.42972 10.4319 6.40194 10.5391 6.36417 10.6474L12.3625 14.2083C12.5419 13.9999 12.7586 13.8341 13.0125 13.7108C13.2669 13.5874 13.5447 13.5258 13.8458 13.5258C14.3981 13.5258 14.8675 13.7191 15.2542 14.1058C15.6403 14.4935 15.8333 14.9638 15.8333 15.5166C15.8333 16.0694 15.6397 16.5383 15.2525 16.9233C14.8653 17.3083 14.3944 17.5005 13.8417 17.4999ZM13.8458 16.6666C14.1731 16.6666 14.4472 16.556 14.6683 16.3349C14.8894 16.1138 15 15.8399 15 15.5133C15 15.1866 14.8894 14.9124 14.6683 14.6908C14.4472 14.4691 14.1733 14.3585 13.8467 14.3591C13.52 14.3596 13.2458 14.4702 13.0242 14.6908C12.8025 14.9113 12.6919 15.1852 12.6925 15.5124C12.6931 15.8396 12.8036 16.1138 13.0242 16.3349C13.2447 16.556 13.5181 16.6666 13.8458 16.6666ZM4.47167 11.1533C4.80278 11.1533 5.08056 11.0427 5.305 10.8216C5.52889 10.6005 5.64083 10.3266 5.64083 9.99992C5.64083 9.67326 5.52889 9.39937 5.305 9.17826C5.08111 8.95715 4.80333 8.84659 4.47167 8.84659C4.14889 8.84659 3.87861 8.95715 3.66083 9.17826C3.44306 9.39937 3.33389 9.67326 3.33333 9.99992C3.33278 10.3266 3.44194 10.6008 3.66083 10.8224C3.87972 11.0441 4.15 11.1544 4.47167 11.1533ZM13.8467 5.64076C14.1733 5.64076 14.4472 5.5302 14.6683 5.30909C14.8894 5.08798 15 4.81381 15 4.48659C15 4.15937 14.8894 3.88548 14.6683 3.66492C14.4472 3.44437 14.1733 3.33381 13.8467 3.33326C13.52 3.3327 13.2458 3.44326 13.0242 3.66492C12.8025 3.88659 12.6919 4.16076 12.6925 4.48742C12.6931 4.81409 12.8036 5.08798 13.0242 5.30909C13.2447 5.5302 13.5189 5.64076 13.8467 5.64076Z" fill="#FAFAFA"/>
</svg>
