<svg width="24" height="24" viewBox="0 0 24 24" fill="none" xmlns="http://www.w3.org/2000/svg">
<path d="M9.185 11.044C9.185 11.4887 9.284 11.906 9.482 12.296C9.68 12.686 9.956 13.006 10.31 13.256C10.284 13.2047 10.2677 13.1533 10.261 13.102C10.255 13.0507 10.252 12.993 10.252 12.929C10.26 12.7157 10.3073 12.5133 10.394 12.322C10.4807 12.1307 10.6057 11.9553 10.769 11.796L12 10.577L13.244 11.802C13.4073 11.9613 13.5293 12.1357 13.61 12.325C13.69 12.515 13.734 12.7163 13.742 12.929C13.742 12.993 13.7387 13.0507 13.732 13.102C13.726 13.1533 13.7103 13.2047 13.685 13.256C14.035 13.006 14.3127 12.688 14.518 12.302C14.724 11.916 14.827 11.5007 14.827 11.056C14.827 10.6753 14.761 10.3167 14.629 9.98C14.497 9.64333 14.299 9.337 14.035 9.061C13.877 9.15767 13.7087 9.23433 13.53 9.291C13.3513 9.347 13.168 9.375 12.98 9.375C12.4933 9.375 12.0577 9.21733 11.673 8.902C11.2883 8.58667 11.0517 8.189 10.963 7.709C10.6863 7.94767 10.436 8.202 10.212 8.472C9.98733 8.742 9.79967 9.018 9.649 9.3C9.49833 9.582 9.38333 9.869 9.304 10.161C9.22467 10.453 9.18467 10.7473 9.184 11.044M12 11.831L11.383 12.429C11.303 12.5083 11.241 12.5973 11.197 12.696C11.153 12.7947 11.131 12.905 11.131 13.027C11.131 13.2703 11.215 13.471 11.383 13.629C11.551 13.787 11.7567 13.866 12 13.866C12.2433 13.866 12.449 13.787 12.617 13.629C12.785 13.471 12.869 13.2703 12.869 13.027C12.869 12.905 12.847 12.795 12.803 12.697C12.759 12.5977 12.697 12.5083 12.617 12.429L12 11.831ZM11.808 6.039V7.342C11.808 7.664 11.924 7.937 12.156 8.161C12.388 8.385 12.6647 8.49667 12.986 8.496C13.144 8.496 13.2883 8.46433 13.419 8.401C13.5497 8.33767 13.6737 8.24367 13.791 8.119L13.985 7.889C14.527 8.221 14.9503 8.671 15.255 9.239C15.5597 9.807 15.712 10.4127 15.712 11.056C15.712 12.0947 15.353 12.97 14.635 13.682C13.917 14.394 13.0387 14.75 12 14.75C10.9613 14.75 10.085 14.393 9.371 13.679C8.657 12.965 8.3 12.0887 8.3 11.05C8.3 10.0487 8.622 9.10867 9.266 8.23C9.90933 7.35267 10.7567 6.62233 11.808 6.039ZM6.116 21.5C5.668 21.5 5.28667 21.3427 4.972 21.028C4.65733 20.7133 4.5 20.3323 4.5 19.885V6C4.5 5.028 4.84033 4.20167 5.521 3.521C6.20167 2.84033 7.028 2.5 8 2.5H16C16.972 2.5 17.7983 2.84033 18.479 3.521C19.1597 4.20167 19.5 5.028 19.5 6V19.885C19.5 20.3317 19.3427 20.7127 19.028 21.028C18.7133 21.3427 18.3323 21.5 17.885 21.5H6.116ZM5.5 17.5V19.885C5.5 20.0643 5.55767 20.2117 5.673 20.327C5.78833 20.4423 5.936 20.5 6.116 20.5H17.885C18.0643 20.5 18.2117 20.4423 18.327 20.327C18.4423 20.2117 18.5 20.064 18.5 19.884V17.5C17.6153 17.5 17.007 17.6667 16.675 18C16.343 18.3333 15.7847 18.5 15 18.5C14.2027 18.5 13.6663 18.3333 13.391 18C13.1157 17.6667 12.652 17.5 12 17.5C11.348 17.5 10.8843 17.6667 10.609 18C10.3337 18.3333 9.79733 18.5 9 18.5C8.21533 18.5 7.66933 18.3333 7.362 18C7.05467 17.6667 6.434 17.5 5.5 17.5ZM9 17.5C9.65267 17.5 10.1163 17.3333 10.391 17C10.6657 16.6667 11.202 16.5 12 16.5C12.8107 16.5 13.3627 16.6667 13.656 17C13.9493 17.3333 14.3973 17.5 15 17.5C15.59 17.5 16.051 17.3333 16.383 17C16.715 16.6667 17.4207 16.5 18.5 16.5V6C18.5 5.30933 18.256 4.72 17.768 4.232C17.28 3.744 16.6907 3.5 16 3.5H8C7.30933 3.5 6.72 3.744 6.232 4.232C5.744 4.72 5.5 5.30933 5.5 6V16.5C6.56667 16.5 7.25667 16.6667 7.57 17C7.88333 17.3333 8.36 17.5 9 17.5Z" fill="black"/>
</svg>
