<svg width="22" height="22" viewBox="0 0 22 22" fill="none" xmlns="http://www.w3.org/2000/svg">
<path d="M11 1L11.6478 0.622097C11.5134 0.391683 11.2668 0.25 11 0.25C10.7332 0.25 10.4866 0.391683 10.3522 0.622097L11 1ZM14.5 7L13.8522 7.3779L14.011 7.65015L14.3166 7.72723L14.5 7ZM21 8.63932L21.5504 9.14884C21.7302 8.95455 21.7943 8.67981 21.719 8.42598C21.6437 8.17215 21.4401 7.97684 21.1834 7.91209L21 8.63932ZM16.5 13.5L15.9496 12.9905L15.682 13.2796L15.7681 13.664L16.5 13.5ZM18.1803 21L17.8912 21.692C18.1499 21.8001 18.4473 21.7549 18.6622 21.5747C18.8771 21.3946 18.9735 21.1096 18.9122 20.836L18.1803 21ZM11 18L11.2891 17.308L11 17.1872L10.7109 17.308L11 18ZM3.81966 21L3.0878 20.836C3.0265 21.1096 3.12294 21.3946 3.33781 21.5747C3.55267 21.7549 3.85008 21.8001 4.10879 21.692L3.81966 21ZM5.5 13.5L6.23186 13.664L6.31798 13.2796L6.05036 12.9905L5.5 13.5ZM1 8.63932L0.816591 7.91209C0.559862 7.97684 0.356294 8.17215 0.280981 8.42598C0.205669 8.67981 0.269772 8.95455 0.449644 9.14884L1 8.63932ZM7.5 7L7.68341 7.72723L7.98902 7.65015L8.14783 7.3779L7.5 7ZM11 1L10.3522 1.3779L13.8522 7.3779L14.5 7L15.1478 6.6221L11.6478 0.622097L11 1ZM14.5 7L14.3166 7.72723L20.8166 9.36655L21 8.63932L21.1834 7.91209L14.6834 6.27277L14.5 7ZM21 8.63932L20.4496 8.1298L15.9496 12.9905L16.5 13.5L17.0504 14.0095L21.5504 9.14884L21 8.63932ZM16.5 13.5L15.7681 13.664L17.4485 21.164L18.1803 21L18.9122 20.836L17.2319 13.336L16.5 13.5ZM18.1803 21L18.4695 20.308L11.2891 17.308L11 18L10.7109 18.692L17.8912 21.692L18.1803 21ZM11 18L10.7109 17.308L3.53053 20.308L3.81966 21L4.10879 21.692L11.2891 18.692L11 18ZM3.81966 21L4.55152 21.164L6.23186 13.664L5.5 13.5L4.76814 13.336L3.0878 20.836L3.81966 21ZM5.5 13.5L6.05036 12.9905L1.55036 8.1298L1 8.63932L0.449644 9.14884L4.94964 14.0095L5.5 13.5ZM1 8.63932L1.18341 9.36655L7.68341 7.72723L7.5 7L7.31659 6.27277L0.816591 7.91209L1 8.63932ZM7.5 7L8.14783 7.3779L11.6478 1.3779L11 1L10.3522 0.622097L6.85217 6.6221L7.5 7Z" fill="#141B34"/>
</svg>
