<svg width="46" height="38" viewBox="0 0 46 38" fill="none" xmlns="http://www.w3.org/2000/svg">
<path d="M21.5924 10.2986V9.7986H21.0924V10.2986H21.5924ZM24.4175 10.2986H24.9175V9.7986H24.4175V10.2986ZM24.4175 12.105V12.605H24.9175V12.105H24.4175ZM21.5924 12.105H21.0924V12.605H21.5924V12.105ZM21.5924 20.2092V19.7092H21.0924V20.2092H21.5924ZM24.4175 20.2092H24.9175V19.7092H24.4175V20.2092ZM24.4175 22.0156V22.5156H24.9175V22.0156H24.4175ZM21.5924 22.0156H21.0924V22.5156H21.5924V22.0156ZM25.0868 12.5985H25.5868V12.0985H25.0868V12.5985ZM20.9132 12.5985V12.0985H20.4132V12.5985H20.9132ZM20.9132 13.6251H20.4132V14.1251H20.9132V13.6251ZM25.0868 13.6251V14.1251H25.5868V13.6251H25.0868ZM20.9132 22.519V22.019H20.4132V22.519H20.9132ZM20.9132 23.5358H20.4132V24.0358H20.9132V23.5358ZM25.0868 23.5358V24.0358H25.5868V23.5358H25.0868ZM25.0868 22.519H25.5868V22.019H25.0868V22.519ZM18.0291 19.0641H18.5291V18.5641H18.0291V19.0641ZM10.0362 19.0641V18.5641H9.53624V19.0641H10.0362ZM10.0362 23.5358H9.53624V24.0358H10.0362V23.5358ZM18.0291 23.5358V24.0358H18.5291V23.5358H18.0291ZM12.7924 16.7543V16.2543H12.2924V16.7543H12.7924ZM15.8439 16.7543H16.3439V16.2543H15.8439V16.7543ZM15.8439 18.5607V19.0607H16.3439V18.5607H15.8439ZM12.7924 18.5607H12.2924V19.0607H12.7924V18.5607ZM12.7924 6.84366V6.34366H12.2924V6.84366H12.7924ZM15.8439 6.84366H16.3439V6.34366H15.8439V6.84366ZM15.8439 8.65008V9.15007H16.3439V8.65008H15.8439ZM12.7924 8.65008H12.2924V9.15007H12.7924V8.65008ZM18.0291 28.728H18.5291V28.228H18.0291V28.728ZM10.0362 28.728V28.228H9.53624V28.728H10.0362ZM10.0362 33.1996H9.53624V33.6996H10.0362V33.1996ZM18.0291 33.1996V33.6996H18.5291V33.1996H18.0291ZM18.0291 9.14367H18.5291V8.64367H18.0291V9.14367ZM10.0362 9.14367V8.64367H9.53624V9.14367H10.0362ZM10.0362 13.6252H9.53624V14.1252H10.0362V13.6252ZM18.0291 13.6252V14.1252H18.5291V13.6252H18.0291ZM16.7494 1.24674V0.746744H16.2494V1.24674H16.7494ZM29.2506 1.24674H29.7506V0.746744H29.2506V1.24674ZM29.2506 2.99393V3.49393H29.7506V2.99393H29.2506ZM16.7494 2.99393H16.2494V3.49393H16.7494V2.99393ZM35.9736 3.48749H36.4736V2.98749H35.9736V3.48749ZM10.0362 3.48749V2.98749H9.53624V3.48749H10.0362ZM10.0362 4.8201H9.53624V5.3201H10.0362V4.8201ZM35.9736 4.8201V5.3201H36.4736V4.8201H35.9736ZM12.7924 26.4181V25.9181H12.2924V26.4181H12.7924ZM15.8439 26.4181H16.3439V25.9181H15.8439V26.4181ZM15.8439 28.2245V28.7245H16.3439V28.2245H15.8439ZM12.7924 28.2245H12.2924V28.7245H12.7924V28.2245ZM27.9709 28.728V28.228H27.4709V28.728H27.9709ZM27.9709 33.1996H27.4709V33.6996H27.9709V33.1996ZM35.9736 33.1996V33.6996H36.4736V33.1996H35.9736ZM35.9736 28.728H36.4736V28.228H35.9736V28.728ZM23.2461 29.7249L23.3077 29.2287L22.7461 29.159V29.7249H23.2461ZM23.2461 36.7532H22.7461V37.2532H23.2461V36.7532ZM25.0868 36.7532V37.2532H25.5868V36.7532H25.0868ZM30.1562 26.4181V25.9181H29.6562V26.4181H30.1562ZM33.2076 26.4181H33.7076V25.9181H33.2076V26.4181ZM33.2076 28.2245V28.7245H33.7076V28.2245H33.2076ZM30.1562 28.2245H29.6562V28.7245H30.1562V28.2245ZM20.9132 36.7532H20.4132V37.2532H20.9132V36.7532ZM22.7539 36.7532V37.2532H23.2539V36.7532H22.7539ZM22.7539 29.7249H23.2539V29.159L22.6923 29.2287L22.7539 29.7249ZM27.9709 19.0641V18.5641H27.4709V19.0641H27.9709ZM27.9709 23.5358H27.4709V24.0358H27.9709V23.5358ZM35.9736 23.5358V24.0358H36.4736V23.5358H35.9736ZM35.9736 19.0641H36.4736V18.5641H35.9736V19.0641ZM30.1562 6.84366V6.34366H29.6562V6.84366H30.1562ZM33.2076 6.84366H33.7076V6.34366H33.2076V6.84366ZM33.2076 8.65008V9.15007H33.7076V8.65008H33.2076ZM30.1562 8.65008H29.6562V9.15007H30.1562V8.65008ZM27.9709 9.14367V8.64367H27.4709V9.14367H27.9709ZM27.9709 13.6252H27.4709V14.1252H27.9709V13.6252ZM35.9736 13.6252V14.1252H36.4736V13.6252H35.9736ZM35.9736 9.14367H36.4736V8.64367H35.9736V9.14367ZM30.1562 16.7543V16.2543H29.6562V16.7543H30.1562ZM33.2076 16.7543H33.7076V16.2543H33.2076V16.7543ZM33.2076 18.5607V19.0607H33.7076V18.5607H33.2076ZM30.1562 18.5607H29.6562V19.0607H30.1562V18.5607ZM21.3463 10.0518V9.55181C21.0702 9.55181 20.8463 9.77567 20.8463 10.0518H21.3463ZM24.6635 10.0518H25.1635C25.1635 9.77567 24.9397 9.55181 24.6635 9.55181V10.0518ZM24.6635 12.3518V12.8518C24.9397 12.8518 25.1635 12.6279 25.1635 12.3518H24.6635ZM21.3463 12.3518H20.8463C20.8463 12.6279 21.0702 12.8518 21.3463 12.8518V12.3518ZM20.6671 12.3518V11.8518C20.391 11.8518 20.1671 12.0756 20.1671 12.3518H20.6671ZM25.3329 12.3518H25.8329C25.8329 12.0756 25.609 11.8518 25.3329 11.8518V12.3518ZM25.3329 13.8621V14.3621C25.609 14.3621 25.8329 14.1382 25.8329 13.8621H25.3329ZM20.6671 13.8621H20.1671C20.1671 14.1382 20.391 14.3621 20.6671 14.3621V13.8621ZM21.3463 19.9624V19.4624C21.0702 19.4624 20.8463 19.6863 20.8463 19.9624H21.3463ZM24.6635 19.9624H25.1635C25.1635 19.6863 24.9397 19.4624 24.6635 19.4624V19.9624ZM24.6635 22.2624V22.7624C24.9397 22.7624 25.1635 22.5386 25.1635 22.2624H24.6635ZM21.3463 22.2624H20.8463C20.8463 22.5386 21.0702 22.7624 21.3463 22.7624V22.2624ZM20.6671 22.2723V21.7723C20.391 21.7723 20.1671 21.9962 20.1671 22.2723H20.6671ZM25.3329 22.2723H25.8329C25.8329 21.9962 25.609 21.7723 25.3329 21.7723V22.2723ZM25.3329 23.7826V24.2826C25.609 24.2826 25.8329 24.0587 25.8329 23.7826H25.3329ZM20.6671 23.7826H20.1671C20.1671 24.0587 20.391 24.2826 20.6671 24.2826V23.7826ZM20.6671 37H20.1671C20.1671 37.2761 20.391 37.5 20.6671 37.5V37ZM25.3329 37V37.5C25.609 37.5 25.8329 37.2761 25.8329 37H25.3329ZM25.3329 31.8078H25.8329H25.3329ZM22.5 37C22.5 37.2761 22.7239 37.5 23 37.5C23.2761 37.5 23.5 37.2761 23.5 37H23H22.5ZM11.3926 33.4463C11.3926 33.1702 11.1688 32.9463 10.8926 32.9463C10.6165 32.9463 10.3926 33.1702 10.3926 33.4463H10.8926H11.3926ZM10.3926 36.9999C10.3926 37.2761 10.6165 37.4999 10.8926 37.4999C11.1688 37.4999 11.3926 37.2761 11.3926 36.9999H10.8926H10.3926ZM11.3926 23.7825C11.3926 23.5064 11.1688 23.2825 10.8926 23.2825C10.6165 23.2825 10.3926 23.5064 10.3926 23.7825H10.8926H11.3926ZM10.3926 28.4812C10.3926 28.7573 10.6165 28.9812 10.8926 28.9812C11.1688 28.9812 11.3926 28.7573 11.3926 28.4812H10.8926H10.3926ZM11.3926 13.8719C11.3926 13.5958 11.1688 13.3719 10.8926 13.3719C10.6165 13.3719 10.3926 13.5958 10.3926 13.8719H10.8926H11.3926ZM10.3926 18.8173C10.3926 19.0935 10.6165 19.3173 10.8926 19.3173C11.1688 19.3173 11.3926 19.0935 11.3926 18.8173H10.8926H10.3926ZM11.3926 5.06691C11.3926 4.79077 11.1688 4.56691 10.8926 4.56691C10.6165 4.56691 10.3926 4.79077 10.3926 5.06691H10.8926H11.3926ZM10.3926 8.8969C10.3926 9.17305 10.6165 9.3969 10.8926 9.3969C11.1688 9.3969 11.3926 9.17305 11.3926 8.8969H10.8926H10.3926ZM35.6074 33.4463C35.6074 33.1702 35.3835 32.9463 35.1074 32.9463C34.8312 32.9463 34.6074 33.1702 34.6074 33.4463H35.1074H35.6074ZM34.6074 36.9999C34.6074 37.2761 34.8312 37.4999 35.1074 37.4999C35.3835 37.4999 35.6074 37.2761 35.6074 36.9999H35.1074H34.6074ZM35.6074 23.7825C35.6074 23.5064 35.3835 23.2825 35.1074 23.2825C34.8312 23.2825 34.6074 23.5064 34.6074 23.7825H35.1074H35.6074ZM34.6074 28.4812C34.6074 28.7573 34.8312 28.9812 35.1074 28.9812C35.3835 28.9812 35.6074 28.7573 35.6074 28.4812H35.1074H34.6074ZM35.6074 13.8719C35.6074 13.5958 35.3835 13.3719 35.1074 13.3719C34.8312 13.3719 34.6074 13.5958 34.6074 13.8719H35.1074H35.6074ZM34.6074 18.8173C34.6074 19.0935 34.8312 19.3173 35.1074 19.3173C35.3835 19.3173 35.6074 19.0935 35.6074 18.8173H35.1074H34.6074ZM35.6074 5.06691C35.6074 4.79077 35.3835 4.56691 35.1074 4.56691C34.8312 4.56691 34.6074 4.79077 34.6074 5.06691H35.1074H35.6074ZM34.6074 8.8969C34.6074 9.17305 34.8312 9.3969 35.1074 9.3969C35.3835 9.3969 35.6074 9.17305 35.6074 8.8969H35.1074H34.6074ZM9.79016 3.24075V2.74075C9.51401 2.74075 9.29016 2.96461 9.29016 3.24075H9.79016ZM36.2197 3.24075H36.7197C36.7197 2.96461 36.4958 2.74075 36.2197 2.74075V3.24075ZM36.2197 5.06691V5.56691C36.4958 5.56691 36.7197 5.34305 36.7197 5.06691H36.2197ZM9.79016 5.06691H9.29016C9.29016 5.34305 9.51401 5.56691 9.79016 5.56691V5.06691ZM16.5034 1V0.5C16.2272 0.5 16.0034 0.723858 16.0034 1H16.5034ZM29.4966 1H29.9966C29.9966 0.723858 29.7728 0.5 29.4966 0.5V1ZM29.4966 3.24075V3.74075C29.7728 3.74075 29.9966 3.51689 29.9966 3.24075H29.4966ZM16.5034 3.24075H16.0034C16.0034 3.51689 16.2272 3.74075 16.5034 3.74075V3.24075ZM1 36.5C0.723858 36.5 0.5 36.7239 0.5 37C0.5 37.2761 0.723858 37.5 1 37.5V37V36.5ZM45 37.5C45.2761 37.5 45.5 37.2761 45.5 37C45.5 36.7239 45.2761 36.5 45 36.5V37V37.5ZM9.79015 8.89687V8.39687C9.51401 8.39687 9.29015 8.62073 9.29015 8.89687H9.79015ZM18.285 8.89687H18.785C18.785 8.62073 18.5611 8.39687 18.285 8.39687V8.89687ZM18.285 13.862V14.362C18.5611 14.362 18.785 14.1382 18.785 13.862H18.285ZM9.79015 13.862H9.29015C9.29015 14.1382 9.51401 14.362 9.79015 14.362V13.862ZM12.5365 6.5969V6.0969C12.2603 6.0969 12.0365 6.32075 12.0365 6.5969H12.5365ZM16.0801 6.5969H16.5801C16.5801 6.32075 16.3562 6.0969 16.0801 6.0969V6.5969ZM16.0801 8.89687V9.39687C16.3562 9.39687 16.5801 9.17301 16.5801 8.89687H16.0801ZM12.5365 8.89687H12.0365C12.0365 9.17301 12.2603 9.39687 12.5365 9.39687V8.89687ZM36.2148 13.8749V14.3749C36.4909 14.3749 36.7148 14.151 36.7148 13.8749H36.2148ZM27.7199 13.8749H27.2199C27.2199 14.151 27.4438 14.3749 27.7199 14.3749V13.8749ZM27.7199 8.90972V8.40972C27.4438 8.40972 27.2199 8.63357 27.2199 8.90972H27.7199ZM36.2148 8.90972H36.7148C36.7148 8.63357 36.4909 8.40972 36.2148 8.40972V8.90972ZM33.4627 8.90317V9.40317C33.7388 9.40317 33.9627 9.17931 33.9627 8.90317L33.4627 8.90317ZM29.919 8.90317H29.419C29.419 9.17931 29.6429 9.40317 29.919 9.40317V8.90317ZM29.919 6.6032V6.1032C29.7864 6.1032 29.6593 6.15588 29.5655 6.24965C29.4717 6.34341 29.419 6.47059 29.419 6.6032H29.919ZM33.4627 6.6032L33.9627 6.6032C33.9627 6.47059 33.91 6.34342 33.8162 6.24965C33.7225 6.15588 33.5953 6.1032 33.4627 6.1032V6.6032ZM9.79015 18.8175V18.3175C9.51401 18.3175 9.29015 18.5413 9.29015 18.8175H9.79015ZM18.285 18.8175H18.785C18.785 18.5413 18.5611 18.3175 18.285 18.3175V18.8175ZM18.285 23.7826V24.2826C18.5611 24.2826 18.785 24.0588 18.785 23.7826H18.285ZM9.79015 23.7826H9.29015C9.29015 24.0588 9.51401 24.2826 9.79015 24.2826V23.7826ZM12.5365 16.5076V16.0076C12.2603 16.0076 12.0365 16.2315 12.0365 16.5076H12.5365ZM16.0801 16.5076H16.5801C16.5801 16.2315 16.3562 16.0076 16.0801 16.0076V16.5076ZM16.0801 18.8076V19.3076C16.3562 19.3076 16.5801 19.0837 16.5801 18.8076H16.0801ZM12.5365 18.8076H12.0365C12.0365 19.0837 12.2603 19.3076 12.5365 19.3076V18.8076ZM36.2148 23.779V24.279C36.4909 24.279 36.7148 24.0551 36.7148 23.779H36.2148ZM27.7199 23.779H27.2199C27.2199 24.0551 27.4438 24.279 27.7199 24.279V23.779ZM27.7199 18.8138V18.3138C27.4438 18.3138 27.2199 18.5377 27.2199 18.8138H27.7199ZM36.2148 18.8138H36.7148C36.7148 18.5377 36.4909 18.3138 36.2148 18.3138V18.8138ZM33.4627 18.8171V19.3171C33.7388 19.3171 33.9627 19.0932 33.9627 18.8171H33.4627ZM29.919 18.8171H29.419C29.419 19.0932 29.6429 19.3171 29.919 19.3171V18.8171ZM29.919 16.5171V16.0171C29.6429 16.0171 29.419 16.241 29.419 16.5171H29.919ZM33.4627 16.5171L33.9627 16.5171C33.9627 16.3845 33.91 16.2573 33.8162 16.1636C33.7225 16.0698 33.5953 16.0171 33.4627 16.0171V16.5171ZM9.79015 28.4812V27.9812C9.51401 27.9812 9.29015 28.2051 9.29015 28.4812H9.79015ZM18.285 28.4812H18.785C18.785 28.2051 18.5611 27.9812 18.285 27.9812V28.4812ZM18.285 33.4464V33.9464C18.5611 33.9464 18.785 33.7225 18.785 33.4464H18.285ZM9.79015 33.4464H9.29015C9.29015 33.7225 9.51401 33.9464 9.79015 33.9464V33.4464ZM12.5365 26.1714V25.6714C12.2603 25.6714 12.0365 25.8952 12.0365 26.1714H12.5365ZM16.0801 26.1714H16.5801C16.5801 25.8952 16.3562 25.6714 16.0801 25.6714V26.1714ZM16.0801 28.4713V28.9713C16.3562 28.9713 16.5801 28.7475 16.5801 28.4713H16.0801ZM12.5365 28.4713H12.0365C12.0365 28.7475 12.2603 28.9713 12.5365 28.9713V28.4713ZM36.2148 33.446V33.946C36.4909 33.946 36.7148 33.7222 36.7148 33.446H36.2148ZM27.7199 33.446H27.2199C27.2199 33.7222 27.4438 33.946 27.7199 33.946V33.446ZM27.7199 28.4809V27.9809C27.4438 27.9809 27.2199 28.2047 27.2199 28.4809H27.7199ZM36.2148 28.4809H36.7148C36.7148 28.2047 36.4909 27.9809 36.2148 27.9809V28.4809ZM33.4627 28.4842V28.9842C33.7388 28.9842 33.9627 28.7603 33.9627 28.4842H33.4627ZM29.919 28.4842H29.419C29.419 28.7603 29.6429 28.9842 29.919 28.9842V28.4842ZM29.919 26.1842V25.6842C29.6429 25.6842 29.419 25.908 29.419 26.1842H29.919ZM33.4627 26.1842L33.9627 26.1842C33.9627 26.0516 33.91 25.9244 33.8162 25.8306C33.7225 25.7369 33.5953 25.6842 33.4627 25.6842V26.1842ZM21.5924 10.2986V10.7986H24.4175V10.2986V9.7986H21.5924V10.2986ZM24.4175 10.2986H23.9175V12.105H24.4175H24.9175V10.2986H24.4175ZM24.4175 12.105V11.605H21.5924V12.105V12.605H24.4175V12.105ZM21.5924 12.105H22.0924V10.2986H21.5924H21.0924V12.105H21.5924ZM21.5924 20.2092V20.7092H24.4175V20.2092V19.7092H21.5924V20.2092ZM24.4175 20.2092H23.9175V22.0156H24.4175H24.9175V20.2092H24.4175ZM24.4175 22.0156V21.5156H21.5924V22.0156V22.5156H24.4175V22.0156ZM21.5924 22.0156H22.0924V20.2092H21.5924H21.0924V22.0156H21.5924ZM20.9132 12.5985H20.4132V13.6251H20.9132H21.4132V12.5985H20.9132ZM20.9132 13.6251V14.1251H25.0868V13.6251V13.1251H20.9132V13.6251ZM25.0868 13.6251H25.5868V12.5985H25.0868H24.5868V13.6251H25.0868ZM20.9132 22.519H20.4132V23.5358H20.9132H21.4132V22.519H20.9132ZM20.9132 23.5358V24.0358H25.0868V23.5358V23.0358H20.9132V23.5358ZM25.0868 23.5358H25.5868V22.519H25.0868H24.5868V23.5358H25.0868ZM10.0362 19.0641H9.53624V23.5358H10.0362H10.5362V19.0641H10.0362ZM10.0362 23.5358V24.0358H18.0291V23.5358V23.0358H10.0362V23.5358ZM18.0291 23.5358H18.5291V19.0641H18.0291H17.5291V23.5358H18.0291ZM12.7924 16.7543V17.2543H15.8439V16.7543V16.2543H12.7924V16.7543ZM15.8439 16.7543H15.3439V18.5607H15.8439H16.3439V16.7543H15.8439ZM15.8439 18.5607V18.0607H12.7924V18.5607V19.0607H15.8439V18.5607ZM12.7924 18.5607H13.2924V16.7543H12.7924H12.2924V18.5607H12.7924ZM12.7924 6.84366V7.34366H15.8439V6.84366V6.34366H12.7924V6.84366ZM15.8439 6.84366H15.3439V8.65008H15.8439H16.3439V6.84366H15.8439ZM15.8439 8.65008V8.15008H12.7924V8.65008V9.15007H15.8439V8.65008ZM12.7924 8.65008H13.2924V6.84366H12.7924H12.2924V8.65008H12.7924ZM10.0362 28.728H9.53624V33.1996H10.0362H10.5362V28.728H10.0362ZM10.0362 33.1996V33.6996H18.0291V33.1996V32.6996H10.0362V33.1996ZM18.0291 33.1996H18.5291V28.728H18.0291H17.5291V33.1996H18.0291ZM10.0362 9.14367H9.53624V13.6252H10.0362H10.5362V9.14367H10.0362ZM10.0362 13.6252V14.1252H18.0291V13.6252V13.1252H10.0362V13.6252ZM18.0291 13.6252H18.5291V9.14367H18.0291H17.5291V13.6252H18.0291ZM16.7494 1.24674V1.74674H29.2506V1.24674V0.746744H16.7494V1.24674ZM29.2506 1.24674H28.7506V2.99393H29.2506H29.7506V1.24674H29.2506ZM29.2506 2.99393V2.49393H16.7494V2.99393V3.49393H29.2506V2.99393ZM16.7494 2.99393H17.2494V1.24674H16.7494H16.2494V2.99393H16.7494ZM10.0362 3.48749H9.53624V4.8201H10.0362H10.5362V3.48749H10.0362ZM10.0362 4.8201V5.3201H35.9736V4.8201V4.3201H10.0362V4.8201ZM35.9736 4.8201H36.4736V3.48749H35.9736H35.4736V4.8201H35.9736ZM12.7924 26.4181V26.9181H15.8439V26.4181V25.9181H12.7924V26.4181ZM15.8439 26.4181H15.3439V28.2245H15.8439H16.3439V26.4181H15.8439ZM15.8439 28.2245V27.7245H12.7924V28.2245V28.7245H15.8439V28.2245ZM12.7924 28.2245H13.2924V26.4181H12.7924H12.2924V28.2245H12.7924ZM27.9709 28.728H27.4709V33.1996H27.9709H28.4709V28.728H27.9709ZM27.9709 33.1996V33.6996H35.9736V33.1996V32.6996H27.9709V33.1996ZM35.9736 33.1996H36.4736V28.728H35.9736H35.4736V33.1996H35.9736ZM23.2461 29.7249H22.7461V36.7532H23.2461H23.7461V29.7249H23.2461ZM23.2461 36.7532V37.2532H25.0868V36.7532V36.2532H23.2461V36.7532ZM25.0868 36.7532H25.5868V31.8077H25.0868H24.5868V36.7532H25.0868ZM25.0868 31.8077H25.5868C25.5868 30.4742 24.5864 29.3875 23.3077 29.2287L23.2461 29.7249L23.1845 30.2211C23.9729 30.319 24.5868 30.9894 24.5868 31.8077H25.0868ZM30.1562 26.4181V26.9181H33.2076V26.4181V25.9181H30.1562V26.4181ZM33.2076 26.4181H32.7076V28.2245H33.2076H33.7076V26.4181H33.2076ZM33.2076 28.2245V27.7245H30.1562V28.2245V28.7245H33.2076V28.2245ZM30.1562 28.2245H30.6562V26.4181H30.1562H29.6562V28.2245H30.1562ZM20.9132 31.8077H20.4132V36.7532H20.9132H21.4132V31.8077H20.9132ZM20.9132 36.7532V37.2532H22.7539V36.7532V36.2532H20.9132V36.7532ZM22.7539 36.7532H23.2539V29.7249H22.7539H22.2539V36.7532H22.7539ZM22.7539 29.7249L22.6923 29.2287C21.4136 29.3875 20.4132 30.4742 20.4132 31.8077H20.9132H21.4132C21.4132 30.9894 22.0271 30.319 22.8155 30.2211L22.7539 29.7249ZM27.9709 19.0641H27.4709V23.5358H27.9709H28.4709V19.0641H27.9709ZM27.9709 23.5358V24.0358H35.9736V23.5358V23.0358H27.9709V23.5358ZM35.9736 23.5358H36.4736V19.0641H35.9736H35.4736V23.5358H35.9736ZM30.1562 6.84366V7.34366H33.2076V6.84366V6.34366H30.1562V6.84366ZM33.2076 6.84366H32.7076V8.65008H33.2076H33.7076V6.84366H33.2076ZM33.2076 8.65008V8.15008H30.1562V8.65008V9.15007H33.2076V8.65008ZM30.1562 8.65008H30.6562V6.84366H30.1562H29.6562V8.65008H30.1562ZM27.9709 9.14367H27.4709V13.6252H27.9709H28.4709V9.14367H27.9709ZM27.9709 13.6252V14.1252H35.9736V13.6252V13.1252H27.9709V13.6252ZM35.9736 13.6252H36.4736V9.14367H35.9736H35.4736V13.6252H35.9736ZM30.1562 16.7543V17.2543H33.2076V16.7543V16.2543H30.1562V16.7543ZM33.2076 16.7543H32.7076V18.5607H33.2076H33.7076V16.7543H33.2076ZM33.2076 18.5607V18.0607H30.1562V18.5607V19.0607H33.2076V18.5607ZM30.1562 18.5607H30.6562V16.7543H30.1562H29.6562V18.5607H30.1562ZM21.3463 10.0518V10.5518H24.6635V10.0518V9.55181H21.3463V10.0518ZM24.6635 10.0518H24.1635V12.3518H24.6635H25.1635V10.0518H24.6635ZM24.6635 12.3518V11.8518H21.3463V12.3518V12.8518H24.6635V12.3518ZM21.3463 12.3518H21.8463V10.0518H21.3463H20.8463V12.3518H21.3463ZM20.6671 12.3518V12.8518H25.3329V12.3518V11.8518H20.6671V12.3518ZM25.3329 12.3518H24.8329V13.8621H25.3329H25.8329V12.3518H25.3329ZM25.3329 13.8621V13.3621H20.6671V13.8621V14.3621H25.3329V13.8621ZM20.6671 13.8621H21.1671V12.3518H20.6671H20.1671V13.8621H20.6671ZM21.3463 19.9624V20.4624H24.6635V19.9624V19.4624H21.3463V19.9624ZM24.6635 19.9624H24.1635V22.2624H24.6635H25.1635V19.9624H24.6635ZM24.6635 22.2624V21.7624H21.3463V22.2624V22.7624H24.6635V22.2624ZM21.3463 22.2624H21.8463V19.9624H21.3463H20.8463V22.2624H21.3463ZM20.6671 22.2723V22.7723H25.3329V22.2723V21.7723H20.6671V22.2723ZM25.3329 22.2723H24.8329V23.7826H25.3329H25.8329V22.2723H25.3329ZM25.3329 23.7826V23.2826H20.6671V23.7826V24.2826H25.3329V23.7826ZM20.6671 23.7826H21.1671V22.2723H20.6671H20.1671V23.7826H20.6671ZM23 29.4683V28.9683C21.433 28.9683 20.1671 30.2398 20.1671 31.8078H20.6671H21.1671C21.1671 30.7895 21.988 29.9683 23 29.9683V29.4683ZM20.6671 31.8078H20.1671V37H20.6671H21.1671V31.8078H20.6671ZM20.6671 37V37.5H25.3329V37V36.5H20.6671V37ZM25.3329 37H25.8329V31.8078H25.3329H24.8329V37H25.3329ZM25.3329 31.8078H25.8329C25.8329 30.2398 24.567 28.9683 23 28.9683V29.4683V29.9683C24.012 29.9683 24.8329 30.7895 24.8329 31.8078H25.3329ZM23 29.4683H22.5L22.5 37H23H23.5L23.5 29.4683H23ZM10.8926 33.4463H10.3926V36.9999H10.8926H11.3926V33.4463H10.8926ZM10.8926 23.7825H10.3926V28.4812H10.8926H11.3926V23.7825H10.8926ZM10.8926 13.8719H10.3926V18.8173H10.8926H11.3926V13.8719H10.8926ZM10.8926 5.06691H10.3926V8.8969H10.8926H11.3926V5.06691H10.8926ZM35.1074 33.4463H34.6074V36.9999H35.1074H35.6074V33.4463H35.1074ZM35.1074 23.7825H34.6074V28.4812H35.1074H35.6074V23.7825H35.1074ZM35.1074 13.8719H34.6074V18.8173H35.1074H35.6074V13.8719H35.1074ZM35.1074 5.06691H34.6074V8.8969H35.1074H35.6074V5.06691H35.1074ZM9.79016 3.24075V3.74075H36.2197V3.24075V2.74075H9.79016V3.24075ZM36.2197 3.24075H35.7197V5.06691H36.2197H36.7197V3.24075H36.2197ZM36.2197 5.06691V4.56691H9.79016V5.06691V5.56691H36.2197V5.06691ZM9.79016 5.06691H10.2902V3.24075H9.79016H9.29016V5.06691H9.79016ZM16.5034 1V1.5H29.4966V1V0.5H16.5034V1ZM29.4966 1H28.9966V3.24075H29.4966H29.9966V1H29.4966ZM29.4966 3.24075V2.74075H16.5034V3.24075V3.74075H29.4966V3.24075ZM16.5034 3.24075H17.0034V1H16.5034H16.0034V3.24075H16.5034ZM1 37V37.5H45V37V36.5H1V37ZM9.79015 8.89687V9.39687H18.285V8.89687V8.39687H9.79015V8.89687ZM18.285 8.89687H17.785V13.862H18.285H18.785V8.89687H18.285ZM18.285 13.862V13.362H9.79015V13.862V14.362H18.285V13.862ZM9.79015 13.862H10.2901V8.89687H9.79015H9.29015V13.862H9.79015ZM12.5365 6.5969V7.0969H16.0801V6.5969V6.0969H12.5365V6.5969ZM16.0801 6.5969H15.5801V8.89687H16.0801H16.5801V6.5969H16.0801ZM16.0801 8.89687V8.39687H12.5365V8.89687V9.39687H16.0801V8.89687ZM12.5365 8.89687H13.0365V6.5969H12.5365H12.0365V8.89687H12.5365ZM36.2148 13.8749V13.3749H27.7199V13.8749V14.3749H36.2148V13.8749ZM27.7199 13.8749H28.2199V8.90972H27.7199H27.2199V13.8749H27.7199ZM27.7199 8.90972V9.40972H36.2148V8.90972V8.40972H27.7199V8.90972ZM36.2148 8.90972H35.7148V13.8749H36.2148H36.7148V8.90972H36.2148ZM33.4627 8.90317V8.40317H29.919V8.90317V9.40317H33.4627V8.90317ZM29.919 8.90317H30.419V6.6032H29.919H29.419V8.90317H29.919ZM29.919 6.6032V7.1032L33.4627 7.1032V6.6032V6.1032L29.919 6.1032V6.6032ZM33.4627 6.6032L32.9627 6.6032L32.9627 8.90317L33.4627 8.90317L33.9627 8.90317L33.9627 6.6032L33.4627 6.6032ZM9.79015 18.8175V19.3175H18.285V18.8175V18.3175H9.79015V18.8175ZM18.285 18.8175H17.785V23.7826H18.285H18.785V18.8175H18.285ZM18.285 23.7826V23.2826H9.79015V23.7826V24.2826H18.285V23.7826ZM9.79015 23.7826H10.2901V18.8175H9.79015H9.29015V23.7826H9.79015ZM12.5365 16.5076V17.0076H16.0801V16.5076V16.0076H12.5365V16.5076ZM16.0801 16.5076H15.5801V18.8076H16.0801H16.5801V16.5076H16.0801ZM16.0801 18.8076V18.3076H12.5365V18.8076V19.3076H16.0801V18.8076ZM12.5365 18.8076H13.0365V16.5076H12.5365H12.0365V18.8076H12.5365ZM36.2148 23.779V23.279H27.7199V23.779V24.279H36.2148V23.779ZM27.7199 23.779H28.2199V18.8138H27.7199H27.2199V23.779H27.7199ZM27.7199 18.8138V19.3138H36.2148V18.8138V18.3138H27.7199V18.8138ZM36.2148 18.8138H35.7148V23.779H36.2148H36.7148V18.8138H36.2148ZM33.4627 18.8171V18.3171H29.919V18.8171V19.3171H33.4627V18.8171ZM29.919 18.8171H30.419V16.5171H29.919H29.419V18.8171H29.919ZM29.919 16.5171V17.0171H33.4627V16.5171V16.0171H29.919V16.5171ZM33.4627 16.5171L32.9627 16.5171L32.9627 18.8171L33.4627 18.8171H33.9627L33.9627 16.5171L33.4627 16.5171ZM9.79015 28.4812V28.9812H18.285V28.4812V27.9812H9.79015V28.4812ZM18.285 28.4812H17.785V33.4464H18.285H18.785V28.4812H18.285ZM18.285 33.4464V32.9464H9.79015V33.4464V33.9464H18.285V33.4464ZM9.79015 33.4464H10.2901V28.4812H9.79015H9.29015V33.4464H9.79015ZM12.5365 26.1714V26.6714H16.0801V26.1714V25.6714H12.5365V26.1714ZM16.0801 26.1714H15.5801V28.4713H16.0801H16.5801V26.1714H16.0801ZM16.0801 28.4713V27.9713H12.5365V28.4713V28.9713H16.0801V28.4713ZM12.5365 28.4713H13.0365V26.1714H12.5365H12.0365V28.4713H12.5365ZM36.2148 33.446V32.946H27.7199V33.446V33.946H36.2148V33.446ZM27.7199 33.446H28.2199V28.4809H27.7199H27.2199V33.446H27.7199ZM27.7199 28.4809V28.9809H36.2148V28.4809V27.9809H27.7199V28.4809ZM36.2148 28.4809H35.7148V33.446H36.2148H36.7148V28.4809H36.2148ZM33.4627 28.4842V27.9842H29.919V28.4842V28.9842H33.4627V28.4842ZM29.919 28.4842H30.419V26.1842H29.919H29.419V28.4842H29.919ZM29.919 26.1842V26.6842H33.4627V26.1842V25.6842H29.919V26.1842ZM33.4627 26.1842H32.9627L32.9627 28.4842H33.4627H33.9627L33.9627 26.1842L33.4627 26.1842ZM25.0868 12.5985V12.0985H20.9132V12.5985V13.0985H25.0868V12.5985ZM25.0868 22.519V22.019H20.9132V22.519V23.019H25.0868V22.519ZM18.0291 19.0641V18.5641H10.0362V19.0641V19.5641H18.0291V19.0641ZM18.0291 28.728V28.228H10.0362V28.728V29.228H18.0291V28.728ZM18.0291 9.14367V8.64367H10.0362V9.14367V9.64367H18.0291V9.14367ZM35.9736 3.48749V2.98749H10.0362V3.48749V3.98749H35.9736V3.48749ZM35.9736 28.728V28.228H27.9709V28.728V29.228H35.9736V28.728ZM35.9736 19.0641V18.5641H27.9709V19.0641V19.5641H35.9736V19.0641ZM35.9736 9.14367V8.64367H27.9709V9.14367V9.64367H35.9736V9.14367Z" fill="#023D34"/>
</svg>
