<svg width="63" height="34" viewBox="0 0 63 34" fill="none" xmlns="http://www.w3.org/2000/svg">
<path d="M28.1839 12.3703L28.5275 12.7336L29.4402 11.8703H28.1839V12.3703ZM13.8277 12.3703V11.8703H13.6241L13.4785 12.0126L13.8277 12.3703ZM5.77629 20.2307L5.42701 19.8729L4.54837 20.7307H5.77629V20.2307ZM19.8732 20.2307V20.7307H20.0722L20.2167 20.5939L19.8732 20.2307ZM25.864 6.84151L25.5211 6.47747L25.5147 6.48374L25.864 6.84151ZM31.2817 1.73897L30.954 1.36133L30.9463 1.36801L30.9389 1.37499L31.2817 1.73897ZM31.7047 1.73897L32.0475 1.37499L32.0401 1.36801L32.0324 1.36133L31.7047 1.73897ZM37.1224 6.84151L37.4717 6.48368L37.4652 6.47753L37.1224 6.84151ZM37.177 6.90813L36.7319 7.13605L36.7708 7.21198L36.8327 7.27071L37.177 6.90813ZM38.1732 7.85403L37.8289 8.21662L38.1706 8.54111L38.5148 8.21915L38.1732 7.85403ZM38.5007 7.54761L38.8423 7.91273L39.2308 7.54924L38.8439 7.18402L38.5007 7.54761ZM31.4864 0.926293L31.8296 0.5627L31.4864 0.23871L31.1431 0.5627L31.4864 0.926293ZM24.472 7.54761L24.1288 7.18402L23.7419 7.54924L24.1304 7.91273L24.472 7.54761ZM24.7996 7.85403L24.458 8.21915L24.8021 8.54111L25.1438 8.21661L24.7996 7.85403ZM25.7957 6.90813L26.1401 7.27075L26.145 7.2659L25.7957 6.90813ZM43.1132 20.2307L42.7696 20.5939L42.9142 20.7307H43.1132V20.2307ZM57.2237 20.2307V20.7307H58.4516L57.573 19.8729L57.2237 20.2307ZM49.1722 12.3703L49.5215 12.0126L49.3758 11.8703H49.1722V12.3703ZM34.8024 12.3703V11.8703H33.5461L34.4589 12.7336L34.8024 12.3703ZM32.0731 16.6469L32.2705 16.1875L32.2598 16.1829L32.2489 16.1788L32.0731 16.6469ZM31.0087 19.0449L31.2061 18.5854L31.1971 18.5818L31.0087 19.0449ZM32.7691 18.3655L32.3147 18.1565L32.3098 18.1679L32.7691 18.3655ZM28.4022 31.2485H27.9022V31.7485H28.4022V31.2485ZM34.6796 31.2485V31.7485H35.1796V31.2485H34.6796ZM27.911 31.8746L28.1837 31.4556L28.0593 31.3746H27.911V31.8746ZM19.2045 31.8746V31.3746H18.7045V31.8746H19.2045ZM19.2045 33.1536H18.7045V33.6536H19.2045V33.1536ZM43.7819 33.1536V33.6536H44.2819V33.1536H43.7819ZM43.7819 31.8746H44.2819V31.3746H43.7819V31.8746ZM35.1709 31.8746V31.3746H35.0225L34.8982 31.4556L35.1709 31.8746ZM20.1734 20.7769L20.5163 21.1408L20.5227 21.1347L20.1734 20.7769ZM17.4304 23.3615L17.0875 22.9976L16.7141 23.3494L17.0755 23.7136L17.4304 23.3615ZM17.8535 23.7878L17.4985 24.14L17.8421 24.4862L18.1968 24.1513L17.8535 23.7878ZM20.3644 21.4164L20.7077 21.7799L20.7703 21.7208L20.8095 21.6443L20.3644 21.4164ZM20.4327 21.3231L20.0899 20.959L20.0834 20.9653L20.4327 21.3231ZM30.7904 11.571L31.1331 11.935L31.1346 11.9336L30.7904 11.571ZM31.2817 11.1047L31.6259 11.4674L31.6309 11.4625L31.2817 11.1047ZM31.7183 11.1047L32.0626 10.742L32.0451 10.7255L32.0261 10.7106L31.7183 11.1047ZM32.2096 11.571L31.8654 11.9336L31.8669 11.935L32.2096 11.571ZM42.5673 21.3231L42.9167 20.9653L42.9101 20.9591L42.5673 21.3231ZM42.6356 21.4164L42.1624 21.5779L42.2023 21.695L42.2923 21.7799L42.6356 21.4164ZM45.1465 23.7878L44.8032 24.1513L45.1579 24.4862L45.5014 24.14L45.1465 23.7878ZM45.5696 23.3615L45.9245 23.7136L46.2856 23.3498L45.9128 22.9979L45.5696 23.3615ZM31.5 10.0789L31.8432 9.71528L31.5005 9.3917L31.1573 9.7148L31.5 10.0789ZM29.2074 12.2371L28.8647 11.8731L28.8251 11.9103L28.7945 11.9551L29.2074 12.2371ZM29.1255 12.317L28.9062 11.8677L28.8376 11.9012L28.7821 11.9536L29.1255 12.317ZM20.2689 20.6836L19.9255 20.3201L19.9196 20.3258L20.2689 20.6836ZM50.9736 25.9061H50.4736V26.4061H50.9736V25.9061ZM47.8622 28.8904H47.3622V29.3904H47.8622V28.8904ZM50.9872 28.8904V29.3904H51.4872V28.8904H50.9872ZM50.9872 25.9061H51.4872V25.4061H50.9872V25.9061ZM12.0264 28.877H11.5264V29.377H12.0264V28.877ZM15.1514 28.877V29.377H15.6514V28.877H15.1514ZM1 32.9999C0.723858 32.9999 0.5 33.2237 0.5 33.4999C0.5 33.776 0.723858 33.9999 1 33.9999V33.4999V32.9999ZM62 33.9999C62.2761 33.9999 62.5 33.776 62.5 33.4999C62.5 33.2237 62.2761 32.9999 62 32.9999V33.4999V33.9999ZM18.9042 31.5814V31.0814C18.6281 31.0814 18.4042 31.3053 18.4042 31.5814H18.9042ZM44.0958 31.5814H44.5958C44.5958 31.3053 44.3719 31.0814 44.0958 31.0814V31.5814ZM44.0958 33.4866V33.9866C44.3719 33.9866 44.5958 33.7627 44.5958 33.4866H44.0958ZM18.9042 33.4866H18.4042C18.4042 33.7627 18.6281 33.9866 18.9042 33.9866V33.4866ZM42.349 21.5362H42.849C42.849 21.3984 42.7921 21.2667 42.6918 21.1722L42.349 21.5362ZM31.5 11.3178L31.8428 10.9538C31.6504 10.7725 31.35 10.7724 31.1574 10.9536L31.5 11.3178ZM20.6374 21.5362L20.2948 21.172C20.1943 21.2665 20.1374 21.3983 20.1374 21.5362H20.6374ZM20.6374 31.5814H20.1374C20.1374 31.8575 20.3612 32.0814 20.6374 32.0814V31.5814ZM42.349 31.5814V32.0814C42.6251 32.0814 42.849 31.8575 42.849 31.5814H42.349ZM45.1465 24.2141L44.8031 24.5775C45.0015 24.7649 45.3135 24.7587 45.5042 24.5635L45.1465 24.2141ZM17.8535 24.2141L17.4986 24.5664C17.6898 24.7589 17.9997 24.7639 18.1969 24.5775L17.8535 24.2141ZM16.9937 23.3481L16.6505 22.9846C16.5525 23.0771 16.496 23.2053 16.4938 23.34C16.4916 23.4748 16.5439 23.6048 16.6389 23.7004L16.9937 23.3481ZM31.5 9.65253L31.8434 9.28912C31.6508 9.10706 31.3495 9.10699 31.1568 9.28896L31.5 9.65253ZM45.9926 23.3481L46.3503 23.6976C46.4439 23.6017 46.4952 23.4722 46.4925 23.3382C46.4898 23.2041 46.4335 23.0768 46.336 22.9847L45.9926 23.3481ZM28.0611 31.5815H27.5611C27.5611 31.8576 27.7849 32.0815 28.0611 32.0815V31.5815ZM35.0208 31.5815V32.0815C35.297 32.0815 35.5208 31.8576 35.5208 31.5815H35.0208ZM36.4177 12.0638C36.4177 12.34 36.6415 12.5638 36.9177 12.5638C37.1938 12.5638 37.4177 12.34 37.4177 12.0638H36.9177H36.4177ZM36.9177 7.05456H37.4177C37.4177 6.91675 37.3608 6.78506 37.2605 6.69058L36.9177 7.05456ZM31.5 1.95201L31.8428 1.58803C31.6503 1.40667 31.3498 1.40667 31.1572 1.58803L31.5 1.95201ZM26.0823 7.05456L25.7395 6.69058C25.6392 6.78506 25.5823 6.91675 25.5823 7.05456H26.0823ZM25.5823 12.0638C25.5823 12.34 25.8062 12.5638 26.0823 12.5638C26.3585 12.5638 26.5823 12.34 26.5823 12.0638H26.0823H25.5823ZM24.8132 8.26698L24.4672 8.62789C24.6595 8.81234 24.9627 8.81348 25.1565 8.6305L24.8132 8.26698ZM38.1732 8.26698L37.8295 8.63015C38.0232 8.81347 38.3267 8.81247 38.5192 8.62789L38.1732 8.26698ZM38.9374 7.53424L39.2834 7.89515C39.3822 7.80044 39.4378 7.66938 39.4374 7.53254C39.4369 7.39569 39.3804 7.26502 39.2809 7.17098L38.9374 7.53424ZM31.5 0.499928L31.8436 0.136668C31.6509 -0.0455314 31.3496 -0.0456693 31.1568 0.136354L31.5 0.499928ZM24.049 7.53424L23.7058 7.17067C23.6062 7.26467 23.5495 7.39538 23.549 7.53231C23.5485 7.66923 23.6041 7.80038 23.7029 7.89515L24.049 7.53424ZM47.521 29.2099H47.021C47.021 29.4861 47.2449 29.7099 47.521 29.7099V29.2099ZM51.3284 29.2099V29.7099C51.6045 29.7099 51.8284 29.4861 51.8284 29.2099H51.3284ZM51.3284 25.8926H51.8285L51.8284 25.8859L51.3284 25.8926ZM34.0519 11.564C33.7758 11.564 33.5519 11.7879 33.5519 12.064C33.5519 12.3401 33.7758 12.564 34.0519 12.564V12.064V11.564ZM49.2951 12.064L49.6444 11.7062C49.551 11.615 49.4256 11.564 49.2951 11.564V12.064ZM57.9606 20.5238V21.0238C58.164 21.0238 58.347 20.9007 58.4237 20.7124C58.5004 20.5241 58.4554 20.3081 58.3099 20.1661L57.9606 20.5238ZM42.9904 20.0238C42.7142 20.0238 42.4904 20.2477 42.4904 20.5238C42.4904 20.8 42.7142 21.0238 42.9904 21.0238V20.5238V20.0238ZM56.9868 20.5237C56.9868 20.2476 56.7629 20.0237 56.4868 20.0237C56.2107 20.0237 55.9868 20.2476 55.9868 20.5237H56.4868H56.9868ZM55.9868 33.4999C55.9868 33.776 56.2107 33.9999 56.4868 33.9999C56.7629 33.9999 56.9868 33.776 56.9868 33.4999H56.4868H55.9868ZM15.479 29.2099V29.7099C15.7551 29.7099 15.979 29.4861 15.979 29.2099H15.479ZM11.6716 29.2099H11.1716C11.1716 29.4861 11.3954 29.7099 11.6716 29.7099V29.2099ZM11.6716 25.8926L11.1716 25.8859V25.8926H11.6716ZM28.9481 12.564C29.2243 12.564 29.4481 12.3401 29.4481 12.064C29.4481 11.7879 29.2243 11.564 28.9481 11.564V12.064V12.564ZM13.7049 12.064V11.564C13.5744 11.564 13.449 11.615 13.3556 11.7062L13.7049 12.064ZM5.03937 20.5238L4.69009 20.1661C4.5446 20.3081 4.49961 20.5241 4.57629 20.7124C4.65297 20.9007 4.83605 21.0238 5.03937 21.0238V20.5238ZM20.0096 21.0238C20.2858 21.0238 20.5096 20.8 20.5096 20.5238C20.5096 20.2477 20.2858 20.0238 20.0096 20.0238V20.5238V21.0238ZM7.01322 20.5237C7.01322 20.2476 6.78936 20.0237 6.51322 20.0237C6.23707 20.0237 6.01322 20.2476 6.01322 20.5237H6.51322H7.01322ZM6.01322 33.4999C6.01322 33.776 6.23707 33.9999 6.51322 33.9999C6.78936 33.9999 7.01322 33.776 7.01322 33.4999H6.51322H6.01322ZM28.1839 12.3703V11.8703H13.8277V12.3703V12.8703H28.1839V12.3703ZM13.8277 12.3703L13.4785 12.0126L5.42701 19.8729L5.77629 20.2307L6.12557 20.5884L14.177 12.7281L13.8277 12.3703ZM5.77629 20.2307V20.7307H19.8732V20.2307V19.7307H5.77629V20.2307ZM19.8732 20.2307L20.2167 20.5939L28.5275 12.7336L28.1839 12.3703L27.8403 12.0071L19.5296 19.8674L19.8732 20.2307ZM25.864 6.84151L26.2068 7.20549L31.6245 2.10295L31.2817 1.73897L30.9389 1.37499L25.5212 6.47753L25.864 6.84151ZM31.2817 1.73897L31.6094 2.1166C31.5442 2.17318 31.4422 2.17318 31.377 2.1166L31.7047 1.73897L32.0324 1.36133C31.7216 1.0916 31.2648 1.0916 30.954 1.36133L31.2817 1.73897ZM31.7047 1.73897L31.3619 2.10295L36.7796 7.20549L37.1224 6.84151L37.4652 6.47753L32.0475 1.37499L31.7047 1.73897ZM37.1224 6.84151L36.7731 7.19929C36.7801 7.20616 36.7778 7.20411 36.7739 7.19972C36.7716 7.19709 36.7666 7.1912 36.7602 7.18235C36.7541 7.17399 36.7433 7.15831 36.7319 7.13605L37.177 6.90813L37.622 6.6802C37.5643 6.56756 37.4722 6.48426 37.4716 6.48374L37.1224 6.84151ZM37.177 6.90813L36.8327 7.27071L37.8289 8.21662L38.1732 7.85403L38.5174 7.49144L37.5212 6.54554L37.177 6.90813ZM38.1732 7.85403L38.5148 8.21915L38.8423 7.91273L38.5007 7.54761L38.1591 7.18249L37.8316 7.48891L38.1732 7.85403ZM38.5007 7.54761L38.8439 7.18402L31.8296 0.5627L31.4864 0.926293L31.1431 1.28989L38.1575 7.9112L38.5007 7.54761ZM31.4864 0.926293L31.1431 0.5627L24.1288 7.18402L24.472 7.54761L24.8153 7.9112L31.8296 1.28989L31.4864 0.926293ZM24.472 7.54761L24.1304 7.91273L24.458 8.21915L24.7996 7.85403L25.1412 7.48891L24.8136 7.18249L24.472 7.54761ZM24.7996 7.85403L25.1438 8.21661L26.14 7.27071L25.7957 6.90813L25.4515 6.54554L24.4553 7.49144L24.7996 7.85403ZM25.7957 6.90813L26.145 7.2659C26.1587 7.25258 26.1723 7.23925 26.1843 7.22759C26.1962 7.21594 26.2064 7.20595 26.2133 7.19929L25.864 6.84151L25.5147 6.48374C25.5079 6.4904 25.4976 6.5004 25.4857 6.51205C25.4738 6.52371 25.4601 6.53703 25.4465 6.55035L25.7957 6.90813ZM43.1132 20.2307V20.7307H57.2237V20.2307V19.7307H43.1132V20.2307ZM57.2237 20.2307L57.573 19.8729L49.5215 12.0126L49.1722 12.3703L48.823 12.7281L56.8744 20.5884L57.2237 20.2307ZM49.1722 12.3703V11.8703H34.8024V12.3703V12.8703H49.1722V12.3703ZM34.8024 12.3703L34.4589 12.7336L42.7696 20.5939L43.1132 20.2307L43.4568 19.8674L35.146 12.0071L34.8024 12.3703ZM32.0731 16.6469L32.2489 16.1788C32.0316 16.0972 31.7936 16.0403 31.5409 16.0403V16.5403V17.0403C31.6431 17.0403 31.7599 17.0633 31.8974 17.115L32.0731 16.6469ZM31.5409 16.5403V16.0403C31.3211 16.0403 31.0922 16.0764 30.8613 16.1704L31.0497 16.6336L31.2381 17.0967C31.3346 17.0574 31.4333 17.0403 31.5409 17.0403V16.5403ZM31.0497 16.6336L30.8613 16.1704C30.4332 16.3445 30.0496 16.6691 29.8529 17.1301L30.3128 17.3263L30.7726 17.5226C30.8488 17.344 31.011 17.189 31.2381 17.0967L31.0497 16.6336ZM30.3128 17.3263L29.8529 17.1301C29.6688 17.5615 29.6437 18.0636 29.8392 18.5218L30.2991 18.3255L30.759 18.1292C30.6816 17.948 30.6838 17.7307 30.7726 17.5226L30.3128 17.3263ZM30.2991 18.3255L29.8392 18.5218C30.0204 18.9462 30.3549 19.3188 30.8203 19.5081L31.0087 19.0449L31.1971 18.5818C31.0075 18.5046 30.8507 18.3443 30.759 18.1292L30.2991 18.3255ZM31.0087 19.0449L30.8114 19.5043C31.738 19.9024 32.8288 19.492 33.2284 18.5631L32.7691 18.3655L32.3098 18.1679C32.1363 18.5712 31.6441 18.7737 31.2061 18.5855L31.0087 19.0449ZM32.7691 18.3655L33.2234 18.5744C33.6482 17.6506 33.1951 16.5846 32.2705 16.1875L32.0731 16.6469L31.8758 17.1063C32.3159 17.2953 32.4905 17.7747 32.3149 18.1566L32.7691 18.3655ZM31.5409 22.4556V21.9556C29.5431 21.9556 27.9022 23.5404 27.9022 25.5198H28.4022H28.9022C28.9022 24.1152 30.0726 22.9556 31.5409 22.9556V22.4556ZM28.4022 25.5198H27.9022V31.2485H28.4022H28.9022V25.5198H28.4022ZM28.4022 31.2485V31.7485H34.6796V31.2485V30.7485H28.4022V31.2485ZM34.6796 31.2485H35.1796V25.5198H34.6796H34.1796V31.2485H34.6796ZM34.6796 25.5198H35.1796C35.1796 23.5551 33.5402 21.9556 31.5409 21.9556V22.4556V22.9556C33.0079 22.9556 34.1796 24.1271 34.1796 25.5198H34.6796ZM35.0208 31.9146V31.4146H28.0611V31.9146V32.4146H35.0208V31.9146ZM28.0611 31.9146V31.4146C28.0736 31.4146 28.0888 31.416 28.1069 31.4207C28.1244 31.4253 28.1519 31.4349 28.1837 31.4556L27.911 31.8746L27.6382 32.2937C27.7789 32.3853 27.9345 32.4146 28.0611 32.4146V31.9146ZM27.911 31.8746V31.3746H19.2045V31.8746V32.3746H27.911V31.8746ZM19.2045 31.8746H18.7045V33.1536H19.2045H19.7045V31.8746H19.2045ZM19.2045 33.1536V33.6536H43.7819V33.1536V32.6536H19.2045V33.1536ZM43.7819 33.1536H44.2819V31.8746H43.7819H43.2819V33.1536H43.7819ZM43.7819 31.8746V31.3746H35.1709V31.8746V32.3746H43.7819V31.8746ZM35.1709 31.8746L34.8982 31.4556C34.9299 31.4349 34.9574 31.4253 34.975 31.4207C34.9931 31.416 35.0083 31.4146 35.0208 31.4146V31.9146V32.4146C35.1474 32.4146 35.303 32.3853 35.4437 32.2937L35.1709 31.8746ZM20.1734 20.7769L19.8305 20.413L17.0875 22.9976L17.4304 23.3615L17.7733 23.7254L20.5163 21.1408L20.1734 20.7769ZM17.4304 23.3615L17.0755 23.7136L17.4985 24.14L17.8535 23.7878L18.2084 23.4356L17.7853 23.0093L17.4304 23.3615ZM17.8535 23.7878L18.1968 24.1513L20.7077 21.7799L20.3644 21.4164L20.0211 21.0529L17.5102 23.4243L17.8535 23.7878ZM20.3644 21.4164L20.8095 21.6443C20.8056 21.6519 20.8028 21.6564 20.802 21.6578C20.8009 21.6595 20.8002 21.6605 20.7998 21.6611C20.7993 21.6617 20.7982 21.6632 20.7961 21.6658C20.7942 21.6681 20.7895 21.6735 20.7819 21.6809L20.4327 21.3231L20.0834 20.9653C20.0112 21.0358 19.9535 21.1219 19.9194 21.1884L20.3644 21.4164ZM20.4327 21.3231L20.7754 21.6871L31.1331 11.935L30.7904 11.571L30.4476 11.2069L20.0899 20.9591L20.4327 21.3231ZM30.7904 11.571L31.1346 11.9336L31.6259 11.4673L31.2817 11.1047L30.9374 10.742L30.4462 11.2083L30.7904 11.571ZM31.2817 11.1047L31.6309 11.4625C31.5988 11.4938 31.5677 11.5089 31.5479 11.5159C31.528 11.523 31.512 11.5248 31.5 11.5248V11.0248V10.5248C31.3222 10.5248 31.1025 10.5808 30.9324 10.7469L31.2817 11.1047ZM31.5 11.0248V11.5248C31.4844 11.5248 31.4626 11.5218 31.44 11.5134C31.4188 11.5055 31.4085 11.4972 31.4106 11.4988L31.7183 11.1047L32.0261 10.7106C31.8841 10.5997 31.7101 10.5248 31.5 10.5248V11.0248ZM31.7183 11.1047L31.3741 11.4673L31.8654 11.9336L32.2096 11.571L32.5538 11.2083L32.0626 10.742L31.7183 11.1047ZM32.2096 11.571L31.8669 11.935L42.2246 21.6871L42.5673 21.3231L42.9101 20.9591L32.5524 11.2069L32.2096 11.571ZM42.5673 21.3231L42.2181 21.6809C42.2217 21.6844 42.2237 21.6864 42.2255 21.6882C42.2271 21.6898 42.2275 21.6902 42.2273 21.69C42.227 21.6896 42.2222 21.6847 42.2155 21.6763C42.2009 21.658 42.1784 21.6247 42.1624 21.5779L42.6356 21.4164L43.1087 21.2548C43.0511 21.086 42.9341 20.9824 42.9166 20.9653L42.5673 21.3231ZM42.6356 21.4164L42.2923 21.7799L44.8032 24.1513L45.1465 23.7878L45.4898 23.4243L42.9789 21.0529L42.6356 21.4164ZM45.1465 23.7878L45.5014 24.14L45.9245 23.7136L45.5696 23.3615L45.2147 23.0093L44.7916 23.4356L45.1465 23.7878ZM45.5696 23.3615L45.9128 22.9979L31.8432 9.71528L31.5 10.0789L31.1568 10.4424L45.2263 23.725L45.5696 23.3615ZM31.5 10.0789L31.1573 9.7148L28.8647 11.8731L29.2074 12.2371L29.5501 12.6012L31.8427 10.4429L31.5 10.0789ZM29.2074 12.2371L28.7945 11.9551C28.7947 11.9547 28.8018 11.9443 28.8171 11.9293C28.8323 11.9145 28.8614 11.8896 28.9062 11.8677L29.1255 12.317L29.3448 12.7664C29.4833 12.6988 29.5703 12.5923 29.6203 12.5191L29.2074 12.2371ZM29.1255 12.317L28.7821 11.9536L19.9255 20.3202L20.2689 20.6836L20.6123 21.0471L29.4689 12.6805L29.1255 12.317ZM20.2689 20.6836L19.9196 20.3258C19.8991 20.3458 19.8821 20.3625 19.8667 20.3775C19.8514 20.3925 19.8377 20.4058 19.8241 20.4191L20.1734 20.7769L20.5227 21.1347C20.5363 21.1213 20.55 21.108 20.5653 21.093C20.5807 21.078 20.5977 21.0614 20.6182 21.0414L20.2689 20.6836ZM50.9736 25.9061H51.4736C51.4736 24.7794 50.5424 23.8873 49.4179 23.8873V24.3873V24.8873C50.0129 24.8873 50.4736 25.3542 50.4736 25.9061H50.9736ZM49.4179 24.3873V23.8873C48.2934 23.8873 47.3622 24.7794 47.3622 25.9061H47.8622H48.3622C48.3622 25.3542 48.8229 24.8873 49.4179 24.8873V24.3873ZM47.8622 25.9061H47.3622V28.8904H47.8622H48.3622V25.9061H47.8622ZM47.8622 28.8904V29.3904H50.9872V28.8904V28.3904H47.8622V28.8904ZM50.9872 28.8904H51.4872V25.9061H50.9872H50.4872V28.8904H50.9872ZM50.9872 25.9061V25.4061H50.9736V25.9061V26.4061H50.9872V25.9061ZM13.5821 24.3739V23.8739C12.4576 23.8739 11.5264 24.766 11.5264 25.8927H12.0264H12.5264C12.5264 25.3408 12.9871 24.8739 13.5821 24.8739V24.3739ZM12.0264 25.8927H11.5264V28.877H12.0264H12.5264V25.8927H12.0264ZM12.0264 28.877V29.377H15.1514V28.877V28.377H12.0264V28.877ZM15.1514 28.877H15.6514V25.8927H15.1514H14.6514V28.877H15.1514ZM15.1514 25.8927H15.6514C15.6514 24.7765 14.7037 23.8739 13.5821 23.8739V24.3739V24.8739C14.1799 24.8739 14.6514 25.3569 14.6514 25.8927H15.1514ZM1 33.4999V33.9999H62V33.4999V32.9999H1V33.4999ZM18.9042 31.5814V32.0814H44.0958V31.5814V31.0814H18.9042V31.5814ZM44.0958 31.5814H43.5958V33.4866H44.0958H44.5958V31.5814H44.0958ZM44.0958 33.4866V32.9866H18.9042V33.4866V33.9866H44.0958V33.4866ZM18.9042 33.4866H19.4042V31.5814H18.9042H18.4042V33.4866H18.9042ZM42.349 21.5362L42.6918 21.1722L31.8428 10.9538L31.5 11.3178L31.1572 11.6818L42.0062 21.9002L42.349 21.5362ZM31.5 11.3178L31.1574 10.9536L20.2948 21.172L20.6374 21.5362L20.98 21.9004L31.8426 11.682L31.5 11.3178ZM20.6374 21.5362H20.1374V31.5814H20.6374H21.1374V21.5362H20.6374ZM20.6374 31.5814V32.0814H42.349V31.5814V31.0814H20.6374V31.5814ZM42.349 31.5814H42.849V21.5362H42.349H41.849V31.5814H42.349ZM45.1465 24.2141L45.49 23.8507L31.8434 10.9544L31.5 11.3178L31.1566 11.6812L44.8031 24.5775L45.1465 24.2141ZM31.5 11.3178L31.1566 10.9544L17.5101 23.8507L17.8535 24.2141L18.1969 24.5775L31.8434 11.6812L31.5 11.3178ZM17.8535 24.2141L18.2083 23.8618L17.3486 22.9959L16.9937 23.3481L16.6389 23.7004L17.4986 24.5664L17.8535 24.2141ZM16.9937 23.3481L17.337 23.7117L31.8433 10.0161L31.5 9.65253L31.1568 9.28896L16.6505 22.9846L16.9937 23.3481ZM31.5 9.65253L31.1566 10.0159L45.6492 23.7115L45.9926 23.3481L46.336 22.9847L31.8434 9.28912L31.5 9.65253ZM45.9926 23.3481L45.635 22.9987L44.7889 23.8647L45.1465 24.2141L45.5042 24.5635L46.3503 23.6976L45.9926 23.3481ZM31.541 22.1225V21.6225C29.352 21.6225 27.5611 23.3538 27.5611 25.5197H28.0611H28.5611C28.5611 23.9286 29.8815 22.6225 31.541 22.6225V22.1225ZM28.0611 25.5197H27.5611V31.5815H28.0611H28.5611V25.5197H28.0611ZM28.0611 31.5815V32.0815H35.0208V31.5815V31.0815H28.0611V31.5815ZM35.0208 31.5815H35.5208V25.5197H35.0208H34.5208V31.5815H35.0208ZM35.0208 25.5197H35.5208C35.5208 23.3684 33.7312 21.6225 31.541 21.6225V22.1225V22.6225C33.1991 22.6225 34.5208 23.9407 34.5208 25.5197H35.0208ZM36.9177 12.0638H37.4177V7.05456H36.9177H36.4177V12.0638H36.9177ZM36.9177 7.05456L37.2605 6.69058L31.8428 1.58803L31.5 1.95201L31.1572 2.31599L36.5749 7.41854L36.9177 7.05456ZM31.5 1.95201L31.1572 1.58803L25.7395 6.69058L26.0823 7.05456L26.4251 7.41854L31.8428 2.31599L31.5 1.95201ZM26.0823 7.05456H25.5823V12.0638H26.0823H26.5823V7.05456H26.0823ZM24.8132 8.26698L25.1565 8.6305L31.8433 2.31553L31.5 1.95201L31.1567 1.5885L24.4699 7.90347L24.8132 8.26698ZM31.5 1.95201L31.1563 2.31518L37.8295 8.63015L38.1732 8.26698L38.5168 7.90382L31.8437 1.58885L31.5 1.95201ZM38.1732 8.26698L38.5192 8.62789L39.2834 7.89515L38.9374 7.53424L38.5913 7.17334L37.8271 7.90608L38.1732 8.26698ZM38.9374 7.53424L39.2809 7.17098L31.8436 0.136668L31.5 0.499928L31.1564 0.863187L38.5938 7.8975L38.9374 7.53424ZM31.5 0.499928L31.1568 0.136354L23.7058 7.17067L24.049 7.53424L24.3922 7.89782L31.8432 0.863501L31.5 0.499928ZM24.049 7.53424L23.7029 7.89515L24.4672 8.62789L24.8132 8.26698L25.1592 7.90608L24.395 7.17334L24.049 7.53424ZM49.4179 24.0408V23.5408C48.1024 23.5408 47.021 24.5794 47.021 25.8926H47.521H48.021C48.021 25.1542 48.6319 24.5408 49.4179 24.5408V24.0408ZM47.521 25.8926H47.021V29.2099H47.521H48.021V25.8926H47.521ZM47.521 29.2099V29.7099H51.3284V29.2099V28.7099H47.521V29.2099ZM51.3284 29.2099H51.8284V25.8926H51.3284H50.8284V29.2099H51.3284ZM51.3284 25.8926L51.8284 25.8859C51.811 24.595 50.7372 23.5408 49.4179 23.5408V24.0408V24.5408C50.2001 24.5408 50.8186 25.1653 50.8285 25.8994L51.3284 25.8926ZM34.0519 12.064V12.564H49.2951V12.064V11.564H34.0519V12.064ZM49.2951 12.064L48.9458 12.4218L57.6114 20.8816L57.9606 20.5238L58.3099 20.1661L49.6444 11.7062L49.2951 12.064ZM57.9606 20.5238V20.0238H42.9904V20.5238V21.0238H57.9606V20.5238ZM56.4868 20.5237H55.9868V33.4999H56.4868H56.9868V20.5237H56.4868ZM13.5821 24.0408V24.5408C14.3681 24.5408 14.979 25.1542 14.979 25.8926H15.479H15.979C15.979 24.5794 14.8976 23.5408 13.5821 23.5408V24.0408ZM15.479 25.8926H14.979V29.2099H15.479H15.979V25.8926H15.479ZM15.479 29.2099V28.7099H11.6716V29.2099V29.7099H15.479V29.2099ZM11.6716 29.2099H12.1716V25.8926H11.6716H11.1716V29.2099H11.6716ZM11.6716 25.8926L12.1715 25.8994C12.1814 25.1653 12.7999 24.5408 13.5821 24.5408V24.0408V23.5408C12.2628 23.5408 11.189 24.595 11.1716 25.8859L11.6716 25.8926ZM28.9481 12.064V11.564H13.7049V12.064V12.564H28.9481V12.064ZM13.7049 12.064L13.3556 11.7062L4.69009 20.1661L5.03937 20.5238L5.38865 20.8816L14.0542 12.4218L13.7049 12.064ZM5.03937 20.5238V21.0238H20.0096V20.5238V20.0238H5.03937V20.5238ZM6.51322 20.5237H6.01322V33.4999H6.51322H7.01322V20.5237H6.51322ZM33.2195 17.846H32.7195C32.7195 18.4636 32.2032 18.9847 31.541 18.9847V19.4847V19.9847C32.7327 19.9847 33.7195 19.0384 33.7195 17.846H33.2195ZM31.541 19.4847V18.9847C30.8787 18.9847 30.3624 18.4636 30.3624 17.846H29.8624H29.3624C29.3624 19.0384 30.3492 19.9847 31.541 19.9847V19.4847ZM29.8624 17.846H30.3624C30.3624 17.2284 30.8787 16.7073 31.541 16.7073V16.2073V15.7073C30.3492 15.7073 29.3624 16.6536 29.3624 17.846H29.8624ZM31.541 16.2073V16.7073C32.2032 16.7073 32.7195 17.2284 32.7195 17.846H33.2195H33.7195C33.7195 16.6536 32.7327 15.7073 31.541 15.7073V16.2073Z" fill="#023D34"/>
</svg>
