<svg width="62" height="42" viewBox="0 0 62 42" fill="none" xmlns="http://www.w3.org/2000/svg">
<path d="M26.4183 37.3H26.0183V37.7H26.4183V37.3ZM30.502 37.3V37.7H30.902V37.3H30.502ZM30.502 24.12H30.902V23.6721L30.4569 23.7226L30.502 24.12ZM10.9602 38.3001V37.9001H10.5602V38.3001H10.9602ZM10.9602 40.5001H10.5602V40.9001H10.9602V40.5001ZM51.0398 40.5001V40.9001H51.4398V40.5001H51.0398ZM51.0398 38.3001H51.4398V37.9001H51.0398V38.3001ZM12.9522 20.5801L12.6738 20.2927L12.6688 20.2978L12.9522 20.5801ZM29.9243 4.14007L29.6488 3.85002L29.646 3.85276L29.9243 4.14007ZM30.6613 3.44007L30.9369 3.73022L30.9448 3.72235L30.6613 3.44007ZM31.3386 3.44007L31.0258 3.68934L31.0431 3.71102L31.0632 3.73011L31.3386 3.44007ZM32.0757 4.14007L32.354 3.85275L32.3511 3.85003L32.0757 4.14007ZM49.0478 20.5801L49.3312 20.2978L49.3261 20.2928L49.0478 20.5801ZM49.1474 20.7201L48.7893 20.8984L48.8198 20.9596L48.8689 21.0072L49.1474 20.7201ZM53.251 24.7001L52.9725 24.9872L53.2599 25.2659L53.5383 24.9783L53.251 24.7001ZM53.9482 23.9801L54.2356 24.2583L54.5135 23.9714L54.2268 23.6931L53.9482 23.9801ZM31 1.70007L31.2786 1.41308L30.9999 1.14244L30.7212 1.41321L31 1.70007ZM8.05179 24.0001L7.77303 23.7132L7.48666 23.9915L7.76443 24.2783L8.05179 24.0001ZM8.749 24.7201L8.46165 24.9983L8.74012 25.2859L9.02749 25.0072L8.749 24.7201ZM12.8526 20.7401L13.1311 21.0272L13.2014 20.959L13.2322 20.8661L12.8526 20.7401ZM31.498 24.12L31.5431 23.7226L31.098 23.6721V24.12H31.498ZM31.498 37.3H31.098V37.7H31.498V37.3ZM35.5817 37.3V37.7H35.9817V37.3H35.5817ZM10.4621 37.8001V37.4001C10.2412 37.4001 10.0621 37.5792 10.0621 37.8001H10.4621ZM51.5578 37.8001H51.9578C51.9578 37.5792 51.7787 37.4001 51.5578 37.4001V37.8001ZM51.5578 41.0001V41.4001C51.7787 41.4001 51.9578 41.221 51.9578 41.0001H51.5578ZM10.4621 41.0001H10.0621C10.0621 41.221 10.2412 41.4001 10.4621 41.4001V41.0001ZM48.7091 20.94H49.1091C49.1091 20.8317 49.0652 20.728 48.9873 20.6526L48.7091 20.94ZM31 3.80004L31.2782 3.51262C31.1231 3.36251 30.8769 3.36251 30.7218 3.51262L31 3.80004ZM13.2908 20.94L13.0126 20.6526C12.9348 20.728 12.8908 20.8317 12.8908 20.94H13.2908ZM13.2908 37.8H12.8908C12.8908 38.021 13.0699 38.2 13.2908 38.2V37.8ZM48.7091 37.8V38.2C48.9301 38.2 49.1091 38.021 49.1091 37.8H48.7091ZM53.2709 25.4201L52.9922 25.7069C53.0687 25.7813 53.1718 25.822 53.2784 25.82C53.3851 25.818 53.4866 25.7734 53.5603 25.6962L53.2709 25.4201ZM31 3.78005L31.2788 3.49317C31.1235 3.34234 30.8765 3.34234 30.7213 3.49317L31 3.78005ZM8.72909 25.4201L8.43974 25.6962C8.51341 25.7734 8.61488 25.818 8.72156 25.82C8.82824 25.822 8.93131 25.7813 9.00784 25.7069L8.72909 25.4201ZM7.35459 23.9801L7.07581 23.6932C6.91839 23.8462 6.91368 24.0975 7.06524 24.2562L7.35459 23.9801ZM31 1.00005L31.2788 0.713199C31.1235 0.562333 30.8765 0.562333 30.7212 0.713199L31 1.00005ZM54.6454 23.9801L54.9348 24.2562C55.0863 24.0975 55.0816 23.8462 54.9242 23.6932L54.6454 23.9801ZM1 40.6001C0.779086 40.6001 0.6 40.7792 0.6 41.0001C0.6 41.221 0.779086 41.4001 1 41.4001V41.0001V40.6001ZM61 41.4001C61.2209 41.4001 61.4 41.221 61.4 41.0001C61.4 40.7792 61.2209 40.6001 61 40.6001V41.0001V41.4001ZM25.9203 37.8001H25.5203C25.5203 38.021 25.6994 38.2001 25.9203 38.2001V37.8001ZM36.0797 37.8001V38.2001C36.3006 38.2001 36.4797 38.021 36.4797 37.8001H36.0797ZM30.6 37.8001C30.6 38.021 30.7791 38.2001 31 38.2001C31.2209 38.2001 31.4 38.021 31.4 37.8001H31H30.6ZM13.2908 20.94C13.0699 20.94 12.8908 21.1191 12.8908 21.34C12.8908 21.5609 13.0699 21.74 13.2908 21.74V21.34V20.94ZM48.7091 21.74C48.9301 21.74 49.1091 21.5609 49.1091 21.34C49.1091 21.1191 48.9301 20.94 48.7091 20.94V21.34V21.74ZM26.4183 37.3V37.7H30.502V37.3V36.9H26.4183V37.3ZM30.502 37.3H30.902V24.12H30.502H30.102V37.3H30.502ZM30.502 24.12L30.4569 23.7226C27.9672 24.0052 26.0183 26.1133 26.0183 28.7H26.4183H26.8183C26.8183 26.5268 28.4551 24.7549 30.5471 24.5175L30.502 24.12ZM26.4183 28.7H26.0183V37.3H26.4183H26.8183V28.7H26.4183ZM10.9602 38.3001H10.5602V40.5001H10.9602H11.3602V38.3001H10.9602ZM10.9602 40.5001V40.9001H51.0398V40.5001V40.1001H10.9602V40.5001ZM51.0398 40.5001H51.4398V38.3001H51.0398H50.6398V40.5001H51.0398ZM31 17V17.4C32.3006 17.4 33.3522 16.3419 33.3522 15.04H32.9522H32.5522C32.5522 15.9031 31.8558 16.6 31 16.6V17ZM32.9522 15.04H33.3522C33.3522 13.7381 32.3006 12.68 31 12.68V13.08V13.48C31.8558 13.48 32.5522 14.1769 32.5522 15.04H32.9522ZM31 13.08V12.68C29.6994 12.68 28.6478 13.7381 28.6478 15.04H29.0478H29.4478C29.4478 14.1769 30.1443 13.48 31 13.48V13.08ZM29.0478 15.04H28.6478C28.6478 16.3419 29.6994 17.4 31 17.4V17V16.6C30.1443 16.6 29.4478 15.9031 29.4478 15.04H29.0478ZM12.9522 20.5801L13.2305 20.8674L30.2026 4.42738L29.9243 4.14007L29.646 3.85276L12.6739 20.2928L12.9522 20.5801ZM29.9243 4.14007L30.1998 4.43011L30.9368 3.73011L30.6613 3.44007L30.3859 3.15003L29.6488 3.85003L29.9243 4.14007ZM30.6613 3.44007L30.9448 3.72235C30.9559 3.71114 30.9641 3.70697 30.9695 3.70487C30.9755 3.7025 30.9851 3.70007 31 3.70007V3.30007V2.90007C30.7855 2.90007 30.5603 2.9747 30.3779 3.15779L30.6613 3.44007ZM31 3.30007V3.70007C31.0079 3.70007 31.0165 3.70076 31.0248 3.70218C31.0332 3.70361 31.0394 3.70546 31.0433 3.70692C31.0472 3.70839 31.0469 3.70878 31.0437 3.70658C31.0403 3.70424 31.0334 3.69886 31.0258 3.68934L31.3386 3.44007L31.6515 3.1908C31.4662 2.95824 31.1839 2.90007 31 2.90007V3.30007ZM31.3386 3.44007L31.0632 3.73011L31.8002 4.43011L32.0757 4.14007L32.3511 3.85003L31.6141 3.15003L31.3386 3.44007ZM32.0757 4.14007L31.7974 4.42738L48.7695 20.8674L49.0478 20.5801L49.3261 20.2928L32.354 3.85276L32.0757 4.14007ZM49.0478 20.5801L48.7644 20.8624C48.763 20.861 48.764 20.8618 48.7669 20.8654C48.7697 20.8689 48.7732 20.8735 48.7769 20.8788C48.7807 20.8842 48.7839 20.8893 48.7865 20.8935C48.7892 20.8979 48.79 20.8997 48.7893 20.8984L49.1474 20.7201L49.5055 20.5418C49.4699 20.4703 49.4064 20.3733 49.3312 20.2978L49.0478 20.5801ZM49.1474 20.7201L48.8689 21.0072L52.9725 24.9872L53.251 24.7001L53.5295 24.4129L49.4259 20.4329L49.1474 20.7201ZM53.251 24.7001L53.5383 24.9783L54.2356 24.2583L53.9482 23.9801L53.6608 23.7018L52.9636 24.4218L53.251 24.7001ZM53.9482 23.9801L54.2268 23.6931L31.2786 1.41308L31 1.70007L30.7214 1.98706L53.6696 24.2671L53.9482 23.9801ZM31 1.70007L30.7212 1.41321L7.77303 23.7132L8.05179 24.0001L8.33055 24.2869L31.2788 1.98694L31 1.70007ZM8.05179 24.0001L7.76443 24.2783L8.46165 24.9983L8.749 24.7201L9.03635 24.4418L8.33914 23.7218L8.05179 24.0001ZM8.749 24.7201L9.02749 25.0072L13.1311 21.0272L12.8526 20.7401L12.5741 20.4529L8.47051 24.4329L8.749 24.7201ZM12.8526 20.7401L13.2322 20.8661C13.231 20.8698 13.2302 20.8712 13.2305 20.8706C13.2308 20.8701 13.2315 20.8687 13.2328 20.8667C13.234 20.8647 13.2353 20.863 13.2362 20.8618C13.2372 20.8605 13.2372 20.8608 13.2356 20.8624L12.9522 20.5801L12.6688 20.2978C12.5903 20.3766 12.5146 20.4887 12.473 20.614L12.8526 20.7401ZM31.498 24.12H31.098V37.3H31.498H31.898V24.12H31.498ZM31.498 37.3V37.7H35.5817V37.3V36.9H31.498V37.3ZM35.5817 37.3H35.9817V28.7H35.5817H35.1817V37.3H35.5817ZM35.5817 28.7H35.9817C35.9817 26.1133 34.0328 24.0052 31.5431 23.7226L31.498 24.12L31.4529 24.5175C33.5449 24.7549 35.1817 26.5268 35.1817 28.7H35.5817ZM10.4621 37.8001V38.2001H51.5578V37.8001V37.4001H10.4621V37.8001ZM51.5578 37.8001H51.1578V41.0001H51.5578H51.9578V37.8001H51.5578ZM51.5578 41.0001V40.6001H10.4621V41.0001V41.4001H51.5578V41.0001ZM10.4621 41.0001H10.8621V37.8001H10.4621H10.0621V41.0001H10.4621ZM48.7091 20.94L48.9873 20.6526L31.2782 3.51262L31 3.80004L30.7218 4.08746L48.431 21.2275L48.7091 20.94ZM31 3.80004L30.7218 3.51262L13.0126 20.6526L13.2908 20.94L13.569 21.2275L31.2782 4.08746L31 3.80004ZM13.2908 20.94H12.8908V37.8H13.2908H13.6908V20.94H13.2908ZM13.2908 37.8V38.2H48.7091V37.8V37.4H13.2908V37.8ZM48.7091 37.8H49.1091V20.94H48.7091H48.3091V37.8H48.7091ZM53.2709 25.4201L53.5497 25.1332L31.2788 3.49317L31 3.78005L30.7213 4.06693L52.9922 25.7069L53.2709 25.4201ZM31 3.78005L30.7213 3.49317L8.45034 25.1332L8.72909 25.4201L9.00784 25.7069L31.2788 4.06693L31 3.78005ZM8.72909 25.4201L9.01843 25.1439L7.64393 23.7039L7.35459 23.9801L7.06524 24.2562L8.43974 25.6962L8.72909 25.4201ZM7.35459 23.9801L7.63336 24.2669L31.2788 1.2869L31 1.00005L30.7212 0.713199L7.07581 23.6932L7.35459 23.9801ZM31 1.00005L30.7212 1.2869L54.3666 24.2669L54.6454 23.9801L54.9242 23.6932L31.2788 0.713199L31 1.00005ZM54.6454 23.9801L54.3561 23.7039L52.9816 25.1439L53.2709 25.4201L53.5603 25.6962L54.9348 24.2562L54.6454 23.9801ZM1 41.0001V41.4001H61V41.0001V40.6001H1V41.0001ZM31 23.6001V23.2001C27.9688 23.2001 25.5203 25.6607 25.5203 28.7001H25.9203H26.3203C26.3203 26.0995 28.4137 24.0001 31 24.0001V23.6001ZM25.9203 28.7001H25.5203V37.8001H25.9203H26.3203V28.7001H25.9203ZM25.9203 37.8001V38.2001H36.0797V37.8001V37.4001H25.9203V37.8001ZM36.0797 37.8001H36.4797V28.7001H36.0797H35.6797V37.8001H36.0797ZM36.0797 28.7001H36.4797C36.4797 25.6607 34.0312 23.2001 31 23.2001V23.6001V24.0001C33.5863 24.0001 35.6797 26.0995 35.6797 28.7001H36.0797ZM31 23.6001H30.6L30.6 37.8001H31H31.4L31.4 23.6001H31ZM33.4502 15.0401H33.0502C33.0502 16.1793 32.1308 17.1001 31 17.1001V17.5001V17.9001C32.5756 17.9001 33.8502 16.6181 33.8502 15.0401H33.4502ZM31 17.5001V17.1001C29.8692 17.1001 28.9498 16.1793 28.9498 15.0401H28.5498H28.1498C28.1498 16.6181 29.4244 17.9001 31 17.9001V17.5001ZM28.5498 15.0401H28.9498C28.9498 13.9009 29.8692 12.9801 31 12.9801V12.5801V12.1801C29.4244 12.1801 28.1498 13.4621 28.1498 15.0401H28.5498ZM31 12.5801V12.9801C32.1308 12.9801 33.0502 13.9009 33.0502 15.0401H33.4502H33.8502C33.8502 13.4621 32.5756 12.1801 31 12.1801V12.5801ZM13.2908 21.34V21.74H48.7091V21.34V20.94H13.2908V21.34ZM51.0398 38.3001V37.9001H10.9602V38.3001V38.7001H51.0398V38.3001Z" fill="#023D34"/>
</svg>
