<svg width="73" height="40" viewBox="0 0 73 40" fill="none" xmlns="http://www.w3.org/2000/svg">
<path d="M40.5662 36.0357H40.0662V36.5357H40.5662V36.0357ZM46.8402 36.0357V36.5357H47.3402V36.0357H46.8402ZM46.8402 26.9307H46.3402H46.8402ZM24.2218 24.5688V24.0688H23.7218V24.5688H24.2218ZM33.7044 24.5688H34.2044V24.0688H33.7044V24.5688ZM33.7044 32.1265V32.6265H34.2044V32.1265H33.7044ZM24.2218 32.1265H23.7218V32.6265H24.2218V32.1265ZM57.7046 17.7115H58.2046V17.2115H57.7046V17.7115ZM53.702 17.7115V17.2115H53.202V17.7115H53.702ZM33.7044 17.7115H34.2044V17.2115H33.7044V17.7115ZM29.7017 17.7115V17.2115H29.2017V17.7115H29.7017ZM24.0948 17.7115H24.5948V17.2115H24.0948V17.7115ZM20.0921 17.7115V17.2115H19.5921V17.7115H20.0921ZM20.0921 18.2327H19.5921H20.0921ZM34.2445 6.55412L34.7438 6.57943L34.7704 6.05412H34.2445V6.55412ZM31.3219 6.55412V6.05412H30.8915L30.8274 6.47971L31.3219 6.55412ZM29.7653 16.8971L29.2708 16.8227L29.1844 17.3971H29.7653V16.8971ZM33.7203 16.8971V17.3971H34.1956L34.2197 16.9224L33.7203 16.8971ZM25.4131 15.3008L24.9283 15.1785L24.9279 15.1801L25.4131 15.3008ZM25.0161 16.8971L24.5308 16.7764L24.3764 17.3971H25.0161V16.8971ZM28.9552 16.8971V17.3971H29.3849L29.4495 16.9722L28.9552 16.8971ZM30.5277 6.55412L31.022 6.62928L31.1094 6.05412H30.5277V6.55412ZM27.621 6.55412V6.05412H27.2315L27.1362 6.43175L27.621 6.55412ZM28.8917 17.7115H29.3917V17.2115H28.8917V17.7115ZM24.889 17.7115V17.2115H24.389V17.7115H24.889ZM57.4823 16.8971V17.3971H58.2577L57.9377 16.6907L57.4823 16.8971ZM52.7966 6.55412L53.252 6.34779L53.119 6.05412H52.7966V6.55412ZM49.9375 6.55412V6.05412H49.2306L49.4661 6.72065L49.9375 6.55412ZM53.5908 16.8971L53.1193 17.0636L53.2371 17.3971H53.5908V16.8971ZM24.1901 16.8971V17.3971H24.5796L24.6749 17.0194L24.1901 16.8971ZM26.3979 8.15035L26.8827 8.27273L26.8832 8.27106L26.3979 8.15035ZM26.795 6.55412L27.2803 6.67483L27.4347 6.05412H26.795V6.55412ZM23.9201 6.55412V6.05412H23.5664L23.4486 6.3876L23.9201 6.55412ZM20.2668 16.8971L19.7954 16.7305L19.56 17.3971H20.2668V16.8971ZM48.8098 16.8971L48.3249 17.0192L48.4201 17.3971H48.8098V16.8971ZM52.733 16.8971V17.3971H53.4399L53.2045 16.7305L52.733 16.8971ZM49.0798 6.55412L49.5513 6.3876L49.4335 6.05412H49.0798V6.55412ZM46.2048 6.55412V6.05412H45.5633L45.72 6.67624L46.2048 6.55412ZM23.0624 6.55412L23.5338 6.72065L23.7692 6.05412H23.0624V6.55412ZM20.2033 6.55412V6.05412H19.8809L19.7479 6.34779L20.2033 6.55412ZM15.5176 16.8971L15.0622 16.6907L14.7422 17.3971H15.5176V16.8971ZM19.4091 16.8971V17.3971H19.7628L19.8806 17.0636L19.4091 16.8971ZM19.2979 17.7115H19.7979V17.2115H19.2979V17.7115ZM15.2953 17.7115V17.2115H14.7953V17.7115H15.2953ZM17.2966 20.285V20.785V20.285ZM52.9078 17.7115H53.4078V17.2115H52.9078V17.7115ZM48.9051 17.7115V17.2115H48.4051V17.7115H48.9051ZM38.5013 17.7115H39.0013V17.2115H38.5013V17.7115ZM34.4986 17.7115V17.2115H33.9986V17.7115H34.4986ZM42.4722 6.55412V6.05412H41.8904L41.9779 6.62928L42.4722 6.55412ZM44.0447 16.8971L43.5504 16.9722L43.615 17.3971H44.0447V16.8971ZM47.9838 16.8971V17.3971H48.6254L48.4687 16.775L47.9838 16.8971ZM45.3789 6.55412L45.8638 6.43201L45.7686 6.05412H45.3789V6.55412ZM35.0387 6.55412V6.05412H34.5634L34.5393 6.52882L35.0387 6.55412ZM34.5145 16.8971L34.0151 16.8718L33.9885 17.3971H34.5145V16.8971ZM38.4854 16.8971V17.3971H39.0114L38.9848 16.8718L38.4854 16.8971ZM37.9613 6.55412L38.4606 6.52882L38.4366 6.05412H37.9613V6.55412ZM43.2982 17.7115H43.7982V17.2115H43.2982V17.7115ZM39.2955 17.7115V17.2115H38.7955V17.7115H39.2955ZM48.1109 17.7115H48.6109V17.2115H48.1109V17.7115ZM44.1082 17.7115V17.2115H43.6082V17.7115H44.1082ZM44.1082 18.2327L44.6082 18.2398V18.2327H44.1082ZM38.7554 6.55412V6.05412H38.2294L38.2561 6.57943L38.7554 6.55412ZM39.2796 16.8971L38.7802 16.9224L38.8043 17.3971H39.2796V16.8971ZM43.2346 16.8971V17.3971H43.8155L43.729 16.8227L43.2346 16.8971ZM41.678 6.55412L42.1724 6.47971L42.1084 6.05412H41.678V6.55412ZM15.9306 36.8502V36.3502H15.4306V36.8502H15.9306ZM15.9306 38.593H15.4306V39.093H15.9306V38.593ZM57.0693 38.593V39.093H57.5693V38.593H57.0693ZM57.0693 36.8502H57.5693V36.3502H57.0693V36.8502ZM1 38.5C0.723858 38.5 0.5 38.7239 0.5 39C0.5 39.2761 0.723858 39.5 1 39.5V39V38.5ZM72 39.5C72.2761 39.5 72.5 39.2761 72.5 39C72.5 38.7239 72.2761 38.5 72 38.5V39V39.5ZM14.8981 17.3043L14.4429 17.0976C14.4134 17.1625 14.3981 17.233 14.3981 17.3043H14.8981ZM24.5077 17.3043V16.8043C24.2316 16.8043 24.0077 17.0281 24.0077 17.3043H24.5077ZM43.7111 17.3043V16.8043C43.4349 16.8043 43.2111 17.0281 43.2111 17.3043H43.7111ZM58.1017 17.3043H58.6017C58.6017 17.233 58.5864 17.1625 58.5569 17.0975L58.1017 17.3043ZM19.9651 6.14694V5.64694C19.769 5.64694 19.5909 5.76161 19.5098 5.94019L19.9651 6.14694ZM23.6342 6.14694L23.6342 5.64694H23.6342V6.14694ZM53.0348 6.147L53.4901 5.94025C53.409 5.76167 53.231 5.647 53.0348 5.647V6.147ZM16.7966 36.4428C16.7966 36.7189 17.0205 36.9428 17.2966 36.9428C17.5728 36.9428 17.7966 36.7189 17.7966 36.4428H17.2966H16.7966ZM55.2033 36.4428C55.2033 36.7189 55.4272 36.9428 55.7033 36.9428C55.9795 36.9428 56.2033 36.7189 56.2033 36.4428L55.7033 36.4428L55.2033 36.4428ZM15.5335 36.4428V35.9428C15.2574 35.9428 15.0335 36.1666 15.0335 36.4428H15.5335ZM57.4664 36.4428H57.9664C57.9664 36.1666 57.7426 35.9428 57.4664 35.9428V36.4428ZM57.4664 38.9837V39.4837C57.7426 39.4837 57.9664 39.2599 57.9664 38.9837H57.4664ZM15.5335 38.9837H15.0335C15.0335 39.2599 15.2574 39.4837 15.5335 39.4837V38.9837ZM23.8248 24.1616V23.6616C23.5487 23.6616 23.3248 23.8855 23.3248 24.1616H23.8248ZM34.1015 24.1616H34.6015C34.6015 23.8855 34.3777 23.6616 34.1015 23.6616V24.1616ZM34.1015 32.5337V33.0337C34.3777 33.0337 34.6015 32.8098 34.6015 32.5337H34.1015ZM23.8248 32.5337H23.3248C23.3248 32.8098 23.5487 33.0337 23.8248 33.0337V32.5337ZM40.1691 36.4428H39.6691C39.6691 36.7189 39.893 36.9428 40.1691 36.9428V36.4428ZM47.2374 36.4428V36.9428C47.5135 36.9428 47.7374 36.7189 47.7374 36.4428H47.2374ZM47.2374 26.9305H46.7374H47.2374ZM25.0002 1V0.5C24.7241 0.5 24.5002 0.723858 24.5002 1H25.0002ZM48.508 1H49.008C49.008 0.723858 48.7842 0.5 48.508 0.5V1ZM48.508 6.14704V6.64704C48.7842 6.64704 49.008 6.42318 49.008 6.14704H48.508ZM25.0002 6.14704H24.5002C24.5002 6.42318 24.7241 6.64704 25.0002 6.64704V6.14704ZM43.6952 23.7219V23.2219C41.6744 23.2219 40.0662 24.909 40.0662 26.9307H40.5662H41.0662C41.0662 25.4341 42.2535 24.2219 43.6952 24.2219V23.7219ZM40.5662 26.9307H40.0662V36.0357H40.5662H41.0662V26.9307H40.5662ZM40.5662 36.0357V36.5357H46.8402V36.0357V35.5357H40.5662V36.0357ZM46.8402 36.0357H47.3402V26.9307H46.8402H46.3402V36.0357H46.8402ZM46.8402 26.9307H47.3402C47.3402 24.9057 45.7129 23.2219 43.6952 23.2219V23.7219V24.2219C45.1403 24.2219 46.3402 25.4375 46.3402 26.9307H46.8402ZM24.2218 24.5688V25.0688H33.7044V24.5688V24.0688H24.2218V24.5688ZM33.7044 24.5688H33.2044V32.1265H33.7044H34.2044V24.5688H33.7044ZM33.7044 32.1265V31.6265H24.2218V32.1265V32.6265H33.7044V32.1265ZM24.2218 32.1265H24.7218V24.5688H24.2218H23.7218V32.1265H24.2218ZM53.702 18.2327H53.202C53.202 19.6397 54.322 20.785 55.7033 20.785V20.285V19.785C54.8927 19.785 54.202 19.106 54.202 18.2327H53.702ZM55.7033 20.285V20.785C57.0872 20.785 58.2046 19.6208 58.2046 18.2327H57.7046H57.2046C57.2046 19.0924 56.5114 19.785 55.7033 19.785V20.285ZM57.7046 18.2327H58.2046V17.7115H57.7046H57.2046V18.2327H57.7046ZM57.7046 17.7115V17.2115H53.702V17.7115V18.2115H57.7046V17.7115ZM53.702 17.7115H53.202V18.2327H53.702H54.202V17.7115H53.702ZM29.7017 18.2327H29.2017C29.2017 19.6397 30.3217 20.785 31.7031 20.785V20.285V19.785C30.8925 19.785 30.2017 19.106 30.2017 18.2327H29.7017ZM31.7031 20.285V20.785C33.1054 20.785 34.2044 19.6182 34.2044 18.2327H33.7044H33.2044C33.2044 19.095 32.5245 19.785 31.7031 19.785V20.285ZM33.7044 18.2327H34.2044V17.7115H33.7044H33.2044V18.2327H33.7044ZM33.7044 17.7115V17.2115H29.7017V17.7115V18.2115H33.7044V17.7115ZM29.7017 17.7115H29.2017V18.2327H29.7017H30.2017V17.7115H29.7017ZM22.0934 20.285V20.785C23.4958 20.785 24.5948 19.6182 24.5948 18.2327H24.0948H23.5948C23.5948 19.095 22.9148 19.785 22.0934 19.785V20.285ZM24.0948 18.2327H24.5948V17.7115H24.0948H23.5948V18.2327H24.0948ZM24.0948 17.7115V17.2115H20.0921V17.7115V18.2115H24.0948V17.7115ZM20.0921 17.7115H19.5921V18.2327H20.0921H20.5921V17.7115H20.0921ZM20.0921 18.2327H19.5921C19.5921 19.6208 20.7095 20.785 22.0934 20.785V20.285V19.785C21.2854 19.785 20.5921 19.0924 20.5921 18.2327H20.0921ZM34.2445 6.55412V6.05412H31.3219V6.55412V7.05412H34.2445V6.55412ZM31.3219 6.55412L30.8274 6.47971L29.2708 16.8227L29.7653 16.8971L30.2597 16.9715L31.8163 6.62853L31.3219 6.55412ZM29.7653 16.8971V17.3971H33.7203V16.8971V16.3971H29.7653V16.8971ZM33.7203 16.8971L34.2197 16.9224L34.7438 6.57943L34.2445 6.55412L33.7451 6.52882L33.2209 16.8718L33.7203 16.8971ZM25.4131 15.3008L24.9279 15.1801L24.5308 16.7764L25.0161 16.8971L25.5013 17.0178L25.8984 15.4215L25.4131 15.3008ZM25.0161 16.8971V17.3971H28.9552V16.8971V16.3971H25.0161V16.8971ZM28.9552 16.8971L29.4495 16.9722L31.022 6.62928L30.5277 6.55412L30.0334 6.47897L28.4609 16.8219L28.9552 16.8971ZM30.5277 6.55412V6.05412H27.621V6.55412V7.05412H30.5277V6.55412ZM27.621 6.55412L27.1362 6.43175L24.9283 15.1785L25.4131 15.3008L25.8979 15.4232L28.1058 6.67649L27.621 6.55412ZM24.889 18.2327H24.389C24.389 19.6397 25.509 20.785 26.8903 20.785V20.285V19.785C26.0797 19.785 25.389 19.106 25.389 18.2327H24.889ZM26.8903 20.285V20.785C28.2927 20.785 29.3917 19.6182 29.3917 18.2327H28.8917H28.3917C28.3917 19.095 27.7117 19.785 26.8903 19.785V20.285ZM28.8917 18.2327H29.3917V17.7115H28.8917H28.3917V18.2327H28.8917ZM28.8917 17.7115V17.2115H24.889V17.7115V18.2115H28.8917V17.7115ZM24.889 17.7115H24.389V18.2327H24.889H25.389V17.7115H24.889ZM57.4823 16.8971L57.9377 16.6907L53.252 6.34779L52.7966 6.55412L52.3411 6.76045L57.0268 17.1034L57.4823 16.8971ZM52.7966 6.55412V6.05412H49.9375V6.55412V7.05412H52.7966V6.55412ZM49.9375 6.55412L49.4661 6.72065L53.1193 17.0636L53.5908 16.8971L54.0622 16.7305L50.409 6.3876L49.9375 6.55412ZM53.5908 16.8971V17.3971H57.4823V16.8971V16.3971H53.5908V16.8971ZM24.1901 16.8971L24.6749 17.0194L26.8827 8.27273L26.3979 8.15035L25.9132 8.02798L23.7053 16.7747L24.1901 16.8971ZM26.3979 8.15035L26.8832 8.27106L27.2803 6.67483L26.795 6.55412L26.3098 6.43342L25.9127 8.02965L26.3979 8.15035ZM23.9201 6.55412L23.4486 6.3876L19.7954 16.7305L20.2668 16.8971L20.7383 17.0636L24.3915 6.72065L23.9201 6.55412ZM20.2668 16.8971V17.3971H24.1901V16.8971V16.3971H20.2668V16.8971ZM48.8098 16.8971V17.3971H52.733V16.8971V16.3971H48.8098V16.8971ZM52.733 16.8971L53.2045 16.7305L49.5513 6.3876L49.0798 6.55412L48.6083 6.72065L52.2616 17.0636L52.733 16.8971ZM46.2048 6.55412L45.72 6.67624L48.3249 17.0192L48.8098 16.8971L49.2946 16.775L46.6897 6.43201L46.2048 6.55412ZM23.0624 6.55412V6.05412H20.2033V6.55412V7.05412H23.0624V6.55412ZM20.2033 6.55412L19.7479 6.34779L15.0622 16.6907L15.5176 16.8971L15.9731 17.1034L20.6587 6.76045L20.2033 6.55412ZM15.5176 16.8971V17.3971H19.4091V16.8971V16.3971H15.5176V16.8971ZM19.4091 16.8971L19.8806 17.0636L23.5338 6.72065L23.0624 6.55412L22.5909 6.3876L18.9377 16.7305L19.4091 16.8971ZM19.2979 18.2327H19.7979V17.7115H19.2979H18.7979V18.2327H19.2979ZM19.2979 17.7115V17.2115H15.2953V17.7115V18.2115H19.2979V17.7115ZM15.2953 17.7115H14.7953V18.2327H15.2953H15.7953V17.7115H15.2953ZM15.2953 18.2327H14.7953C14.7953 19.6397 15.9153 20.785 17.2966 20.785V20.285V19.785C16.486 19.785 15.7953 19.106 15.7953 18.2327H15.2953ZM17.2966 20.285V20.785C18.6805 20.785 19.7979 19.6208 19.7979 18.2327H19.2979H18.7979C18.7979 19.0924 18.1047 19.785 17.2966 19.785V20.285ZM50.9064 20.285V20.785C52.3088 20.785 53.4078 19.6182 53.4078 18.2327H52.9078H52.4078C52.4078 19.095 51.7278 19.785 50.9064 19.785V20.285ZM52.9078 18.2327H53.4078V17.7115H52.9078H52.4078V18.2327H52.9078ZM52.9078 17.7115V17.2115H48.9051V17.7115V18.2115H52.9078V17.7115ZM48.9051 17.7115H48.4051V18.2327H48.9051H49.4051V17.7115H48.9051ZM48.9051 18.2327H48.4051C48.4051 19.6182 49.5041 20.785 50.9064 20.785V20.285V19.785C50.085 19.785 49.4051 19.095 49.4051 18.2327H48.9051ZM34.4986 18.2327H33.9986C33.9986 19.6397 35.1186 20.785 36.4999 20.785V20.285V19.785C35.6893 19.785 34.9986 19.106 34.9986 18.2327H34.4986ZM36.4999 20.285V20.785C37.9023 20.785 39.0013 19.6182 39.0013 18.2327H38.5013H38.0013C38.0013 19.095 37.3213 19.785 36.4999 19.785V20.285ZM38.5013 18.2327H39.0013V17.7115H38.5013H38.0013V18.2327H38.5013ZM38.5013 17.7115V17.2115H34.4986V17.7115V18.2115H38.5013V17.7115ZM34.4986 17.7115H33.9986V18.2327H34.4986H34.9986V17.7115H34.4986ZM42.4722 6.55412L41.9779 6.62928L43.5504 16.9722L44.0447 16.8971L44.539 16.8219L42.9665 6.47897L42.4722 6.55412ZM44.0447 16.8971V17.3971H47.9838V16.8971V16.3971H44.0447V16.8971ZM47.9838 16.8971L48.4687 16.775L45.8638 6.43201L45.3789 6.55412L44.8941 6.67624L47.499 17.0192L47.9838 16.8971ZM45.3789 6.55412V6.05412H42.4722V6.55412V7.05412H45.3789V6.55412ZM35.0387 6.55412L34.5393 6.52882L34.0151 16.8718L34.5145 16.8971L35.0139 16.9224L35.538 6.57943L35.0387 6.55412ZM34.5145 16.8971V17.3971H38.4854V16.8971V16.3971H34.5145V16.8971ZM38.4854 16.8971L38.9848 16.8718L38.4606 6.52882L37.9613 6.55412L37.4619 6.57943L37.9861 16.9224L38.4854 16.8971ZM37.9613 6.55412V6.05412H35.0387V6.55412V7.05412H37.9613V6.55412ZM39.2955 18.2327H38.7955C38.7955 19.6397 39.9155 20.785 41.2968 20.785V20.285V19.785C40.4862 19.785 39.7955 19.106 39.7955 18.2327H39.2955ZM41.2968 20.285V20.785C42.6991 20.785 43.7982 19.6182 43.7982 18.2327H43.2982H42.7982C42.7982 19.095 42.1182 19.785 41.2968 19.785V20.285ZM43.2982 18.2327H43.7982V17.7115H43.2982H42.7982V18.2327H43.2982ZM43.2982 17.7115V17.2115H39.2955V17.7115V18.2115H43.2982V17.7115ZM39.2955 17.7115H38.7955V18.2327H39.2955H39.7955V17.7115H39.2955ZM46.1096 20.285V20.785C47.5119 20.785 48.6109 19.6182 48.6109 18.2327H48.1109H47.6109C47.6109 19.095 46.9309 19.785 46.1096 19.785V20.285ZM48.1109 18.2327H48.6109V17.7115H48.1109H47.6109V18.2327H48.1109ZM48.1109 17.7115V17.2115H44.1082V17.7115V18.2115H48.1109V17.7115ZM44.1082 17.7115H43.6082V18.2327H44.1082H44.6082V17.7115H44.1082ZM44.1082 18.2327L43.6083 18.2256C43.5885 19.6231 44.7136 20.785 46.1096 20.785V20.285V19.785C45.2818 19.785 44.5961 19.09 44.6082 18.2398L44.1082 18.2327ZM38.7554 6.55412L38.2561 6.57943L38.7802 16.9224L39.2796 16.8971L39.7789 16.8718L39.2548 6.52882L38.7554 6.55412ZM39.2796 16.8971V17.3971H43.2346V16.8971V16.3971H39.2796V16.8971ZM43.2346 16.8971L43.729 16.8227L42.1724 6.47971L41.678 6.55412L41.1836 6.62853L42.7402 16.9715L43.2346 16.8971ZM41.678 6.55412V6.05412H38.7554V6.55412V7.05412H41.678V6.55412ZM15.9306 36.8502H15.4306V38.593H15.9306H16.4306V36.8502H15.9306ZM15.9306 38.593V39.093H57.0693V38.593V38.093H15.9306V38.593ZM57.0693 38.593H57.5693V36.8502H57.0693H56.5693V38.593H57.0693ZM1 39V39.5H72V39V38.5H1V39ZM19.695 17.3043V16.8043H14.8981V17.3043V17.8043H19.695V17.3043ZM14.8981 17.3043H14.3981V18.2327H14.8981H15.3981V17.3043H14.8981ZM14.8981 18.2327H14.3981C14.3981 19.8489 15.6903 21.1922 17.2966 21.1922V20.6922V20.1922C16.2662 20.1922 15.3981 19.3204 15.3981 18.2327H14.8981ZM17.2966 20.6922V21.1922C18.9028 21.1922 20.195 19.8489 20.195 18.2327H19.695H19.195C19.195 19.3204 18.327 20.1922 17.2966 20.1922V20.6922ZM19.695 18.2327H20.195V17.3043H19.695H19.195V18.2327H19.695ZM24.4918 17.3043L24.4918 16.8043L19.695 16.8043L19.695 17.3043L19.695 17.8043L24.4918 17.8043L24.4918 17.3043ZM19.695 18.2327H19.195C19.195 19.8489 20.4871 21.1922 22.0934 21.1922V20.6922V20.1922C21.063 20.1922 20.195 19.3204 20.195 18.2327H19.695ZM22.0934 20.6922V21.1922C23.6996 21.1922 24.9918 19.8488 24.9918 18.2327H24.4918H23.9918C23.9918 19.3204 23.1238 20.1922 22.0934 20.1922V20.6922ZM24.4918 18.2327H24.9918V17.3043H24.4918H23.9918V18.2327H24.4918ZM29.3046 17.3043V16.8043H24.5077V17.3043V17.8043H29.3046V17.3043ZM24.5077 17.3043H24.0077V18.2327H24.5077H25.0077V17.3043H24.5077ZM24.5077 18.2327H24.0077C24.0077 19.8488 25.2999 21.1922 26.9062 21.1922V20.6922V20.1922C25.8757 20.1922 25.0077 19.3204 25.0077 18.2327H24.5077ZM26.9062 20.6922V21.1922C28.5124 21.1922 29.8046 19.8488 29.8046 18.2327H29.3046H28.8046C28.8046 19.3204 27.9366 20.1922 26.9062 20.1922V20.6922ZM29.3046 18.2327H29.8046V17.3043H29.3046H28.8046V18.2327H29.3046ZM34.1015 17.3043V16.8043H29.3046V17.3043V17.8043H34.1015V17.3043ZM29.3046 18.2327H28.8046C28.8046 19.8488 30.0968 21.1922 31.703 21.1922V20.6922V20.1922C30.6726 20.1922 29.8046 19.3204 29.8046 18.2327H29.3046ZM31.703 20.6922V21.1922C33.3093 21.1922 34.6015 19.8488 34.6015 18.2327H34.1015H33.6015C33.6015 19.3204 32.7335 20.1922 31.703 20.1922V20.6922ZM34.1015 18.2327H34.6015V17.3043H34.1015H33.6015V18.2327H34.1015ZM38.8983 17.3043V16.8043H34.1015V17.3043V17.8043H38.8983V17.3043ZM34.1015 18.2327H33.6015C33.6015 19.8488 34.8936 21.1922 36.4999 21.1922V20.6922V20.1922C35.4695 20.1922 34.6015 19.3204 34.6015 18.2327H34.1015ZM36.4999 20.6922V21.1922C38.1061 21.1922 39.3983 19.8488 39.3983 18.2327H38.8983H38.3983C38.3983 19.3204 37.5303 20.1922 36.4999 20.1922V20.6922ZM38.8983 18.2327H39.3983V17.3043H38.8983H38.3983V18.2327H38.8983ZM43.6952 17.3043V16.8043H38.8983V17.3043V17.8043H43.6952V17.3043ZM38.8983 18.2327H38.3983C38.3983 19.8488 39.6905 21.1922 41.2968 21.1922V20.6922V20.1922C40.2663 20.1922 39.3983 19.3204 39.3983 18.2327H38.8983ZM41.2968 20.6922V21.1922C42.903 21.1922 44.1952 19.8488 44.1952 18.2327H43.6952H43.1952C43.1952 19.3204 42.3272 20.1922 41.2968 20.1922V20.6922ZM43.6952 18.2327H44.1952V17.3043H43.6952H43.1952V18.2327H43.6952ZM48.5079 17.3043V16.8043H43.7111V17.3043V17.8043H48.5079V17.3043ZM43.7111 17.3043H43.2111V18.2327H43.7111H44.2111V17.3043H43.7111ZM43.7111 18.2327H43.2111C43.2111 19.8488 44.5032 21.1922 46.1095 21.1922V20.6922V20.1922C45.0791 20.1922 44.2111 19.3204 44.2111 18.2327H43.7111ZM46.1095 20.6922V21.1922C47.7158 21.1922 49.0079 19.8488 49.0079 18.2327H48.5079H48.0079C48.0079 19.3204 47.1399 20.1922 46.1095 20.1922V20.6922ZM48.5079 18.2327H49.0079V17.3043H48.5079H48.0079V18.2327H48.5079ZM53.3048 17.3043V16.8043H48.5079V17.3043V17.8043H53.3048V17.3043ZM48.5079 18.2327H48.0079C48.0079 19.8488 49.3001 21.1922 50.9064 21.1922V20.6922V20.1922C49.8759 20.1922 49.0079 19.3204 49.0079 18.2327H48.5079ZM50.9064 20.6922V21.1922C52.5126 21.1922 53.8048 19.8488 53.8048 18.2327H53.3048H52.8048C52.8048 19.3204 51.9368 20.1922 50.9064 20.1922V20.6922ZM53.3048 18.2327H53.8048V17.3043H53.3048H52.8048V18.2327H53.3048ZM58.1017 17.3043V16.8043H53.3048V17.3043V17.8043H58.1017V17.3043ZM53.3048 18.2327H52.8048C52.8048 19.8488 54.097 21.1922 55.7033 21.1922V20.6922V20.1922C54.6728 20.1922 53.8048 19.3204 53.8048 18.2327H53.3048ZM55.7033 20.6922V21.1922C57.3095 21.1922 58.6017 19.8488 58.6017 18.2327H58.1017H57.6017C57.6017 19.3204 56.7337 20.1922 55.7033 20.1922V20.6922ZM58.1017 18.2327H58.6017V17.3043H58.1017H57.6017V18.2327H58.1017ZM14.8981 17.3043L15.3534 17.5111L20.4203 6.35368L19.9651 6.14694L19.5098 5.94019L14.4429 17.0976L14.8981 17.3043ZM19.9651 6.14694V6.64694H23.6342V6.14694V5.64694H19.9651V6.14694ZM23.6342 6.14694L23.1627 5.98048L19.2235 17.1379L19.695 17.3043L20.1665 17.4708L24.1057 6.3134L23.6342 6.14694ZM23.6342 6.14694L23.6342 6.64694L27.3033 6.647L27.3033 6.147L27.3033 5.647L23.6342 5.64694L23.6342 6.14694ZM27.3033 6.147L26.8184 6.02482L24.007 17.1821L24.4918 17.3043L24.9767 17.4265L27.7881 6.26917L27.3033 6.147ZM29.3046 17.3043V16.8043H24.4918V17.3043V17.8043H29.3046V17.3043ZM27.3033 6.147V6.647H30.9883V6.147V5.647H27.3033V6.147ZM30.9883 6.147L30.4939 6.07239L28.8102 17.2297L29.3046 17.3043L29.799 17.3789L31.4827 6.22161L30.9883 6.147ZM30.9883 6.147V6.647H34.6574V6.147V5.647H30.9883V6.147ZM34.6574 6.147L34.1581 6.12211L33.6021 17.2794L34.1015 17.3043L34.6009 17.3292L35.1568 6.17188L34.6574 6.147ZM34.6574 6.147V6.647H38.3424V6.147V5.647H34.6574V6.147ZM38.3424 6.147L37.8431 6.17188L38.3989 17.3292L38.8983 17.3043L39.3977 17.2794L38.8418 6.12212L38.3424 6.147ZM38.3424 6.147V6.647H42.0116V6.147V5.647H38.3424V6.147ZM42.0116 6.147L41.5172 6.2216L43.2008 17.3789L43.6952 17.3043L44.1896 17.2297L42.506 6.07239L42.0116 6.147ZM48.5079 17.3043V16.8043H43.6952V17.3043V17.8043H48.5079V17.3043ZM42.0116 6.147V6.647H45.6966V6.147V5.647H42.0116V6.147ZM45.6966 6.147L45.2118 6.26917L48.0231 17.4265L48.5079 17.3043L48.9928 17.1821L46.1814 6.02483L45.6966 6.147ZM45.6966 6.147V6.647H49.3657V6.147V5.647H45.6966V6.147ZM49.3657 6.147L48.8942 6.31345L52.8333 17.4707L53.3048 17.3043L53.7763 17.1378L49.8372 5.98054L49.3657 6.147ZM49.3657 6.147V6.647H53.0348V6.147V5.647H49.3657V6.147ZM53.0348 6.147L52.5796 6.35374L57.6464 17.511L58.1017 17.3043L58.5569 17.0975L53.4901 5.94025L53.0348 6.147ZM17.2966 20.6922L16.7966 20.6922L16.7966 36.4428H17.2966H17.7966L17.7966 20.6922L17.2966 20.6922ZM55.7033 20.6922L55.2033 20.6922L55.2033 36.4428L55.7033 36.4428L56.2033 36.4428L56.2033 20.6922L55.7033 20.6922ZM15.5335 36.4428V36.9428H57.4664V36.4428V35.9428H15.5335V36.4428ZM57.4664 36.4428H56.9664V38.9837H57.4664H57.9664V36.4428H57.4664ZM57.4664 38.9837V38.4837H15.5335V38.9837V39.4837H57.4664V38.9837ZM15.5335 38.9837H16.0335V36.4428H15.5335H15.0335V38.9837H15.5335ZM23.8248 24.1616V24.6616H34.1015V24.1616V23.6616H23.8248V24.1616ZM34.1015 24.1616H33.6015V32.5337H34.1015H34.6015V24.1616H34.1015ZM34.1015 32.5337V32.0337H23.8248V32.5337V33.0337H34.1015V32.5337ZM23.8248 32.5337H24.3248V24.1616H23.8248H23.3248V32.5337H23.8248ZM43.6953 23.3146V22.8146C41.4522 22.8146 39.6691 24.6806 39.6691 26.9305H40.1691H40.6691C40.6691 25.2061 42.031 23.8146 43.6953 23.8146V23.3146ZM40.1691 26.9305H39.6691V36.4428H40.1691H40.6691V26.9305H40.1691ZM40.1691 36.4428V36.9428H47.2374V36.4428V35.9428H40.1691V36.4428ZM47.2374 36.4428H47.7374V26.9305H47.2374H46.7374V36.4428H47.2374ZM47.2374 26.9305H47.7374C47.7374 24.6777 45.9355 22.8146 43.6953 22.8146V23.3146V23.8146C45.3625 23.8146 46.7374 25.2091 46.7374 26.9305H47.2374ZM25.0002 1V1.5H48.508V1V0.5H25.0002V1ZM48.508 1H48.008V6.14704H48.508H49.008V1H48.508ZM48.508 6.14704V5.64704H25.0002V6.14704V6.64704H48.508V6.14704ZM25.0002 6.14704H25.5002V1H25.0002H24.5002V6.14704H25.0002ZM26.795 6.55412V6.05412H23.9201V6.55412V7.05412H26.795V6.55412ZM49.0798 6.55412V6.05412H46.2048V6.55412V7.05412H49.0798V6.55412ZM57.0693 36.8502V36.3502H15.9306V36.8502V37.3502H57.0693V36.8502Z" fill="#023D34"/>
</svg>
