<svg width="24" height="16" viewBox="0 0 24 16" fill="none" xmlns="http://www.w3.org/2000/svg">
<path d="M23.3898 15.0588H21.5593V6.11736C21.5593 5.82613 21.4093 5.54684 21.1423 5.34091C20.8753 5.13498 20.5132 5.01929 20.1356 5.01929H13.4237V1.09761C13.4236 0.898863 13.3536 0.703868 13.2211 0.533414C13.0886 0.362959 12.8985 0.223438 12.6713 0.129727C12.4441 0.0360167 12.1881 -0.00836982 11.9307 0.00130098C11.6733 0.0109718 11.4242 0.0743373 11.2098 0.184641L3.07424 4.36751C2.87928 4.46783 2.71944 4.60372 2.60892 4.76312C2.4984 4.92252 2.44061 5.1005 2.44068 5.28126V15.0588H0.610169C0.448342 15.0588 0.293143 15.1084 0.178715 15.1966C0.0642855 15.2849 0 15.4046 0 15.5294C0 15.6542 0.0642855 15.7739 0.178715 15.8622C0.293143 15.9504 0.448342 16 0.610169 16H23.3898C23.5517 16 23.7069 15.9504 23.8213 15.8622C23.9357 15.7739 24 15.6542 24 15.5294C24 15.4046 23.9357 15.2849 23.8213 15.1966C23.7069 15.1084 23.5517 15.0588 23.3898 15.0588ZM20.1356 5.96049C20.1895 5.96049 20.2413 5.97702 20.2794 6.00644C20.3176 6.03586 20.339 6.07576 20.339 6.11736V15.0588H13.4237V5.96049H20.1356ZM3.66102 5.28126C3.66108 5.25549 3.66937 5.23014 3.68515 5.20743C3.70094 5.18472 3.72374 5.16536 3.75153 5.15106L11.8871 0.967408C11.9177 0.951661 11.9533 0.94261 11.99 0.941219C12.0268 0.939829 12.0633 0.94615 12.0958 0.959511C12.1282 0.972871 12.1554 0.99277 12.1743 1.01709C12.1933 1.04141 12.2033 1.06924 12.2034 1.09761V15.0588H3.66102V5.28126ZM10.1695 7.3723V8.62724C10.1695 8.75205 10.1052 8.87175 9.99078 8.96C9.87635 9.04826 9.72115 9.09784 9.55932 9.09784C9.39749 9.09784 9.2423 9.04826 9.12787 8.96C9.01344 8.87175 8.94915 8.75205 8.94915 8.62724V7.3723C8.94915 7.24749 9.01344 7.12779 9.12787 7.03953C9.2423 6.95128 9.39749 6.9017 9.55932 6.9017C9.72115 6.9017 9.87635 6.95128 9.99078 7.03953C10.1052 7.12779 10.1695 7.24749 10.1695 7.3723ZM6.91525 7.3723V8.62724C6.91525 8.75205 6.85097 8.87175 6.73654 8.96C6.62211 9.04826 6.46691 9.09784 6.30508 9.09784C6.14326 9.09784 5.98806 9.04826 5.87363 8.96C5.7592 8.87175 5.69492 8.75205 5.69492 8.62724V7.3723C5.69492 7.24749 5.7592 7.12779 5.87363 7.03953C5.98806 6.95128 6.14326 6.9017 6.30508 6.9017C6.46691 6.9017 6.62211 6.95128 6.73654 7.03953C6.85097 7.12779 6.91525 7.24749 6.91525 7.3723ZM6.91525 11.7646V13.0195C6.91525 13.1443 6.85097 13.264 6.73654 13.3523C6.62211 13.4405 6.46691 13.4901 6.30508 13.4901C6.14326 13.4901 5.98806 13.4405 5.87363 13.3523C5.7592 13.264 5.69492 13.1443 5.69492 13.0195V11.7646C5.69492 11.6398 5.7592 11.5201 5.87363 11.4318C5.98806 11.3436 6.14326 11.294 6.30508 11.294C6.46691 11.294 6.62211 11.3436 6.73654 11.4318C6.85097 11.5201 6.91525 11.6398 6.91525 11.7646ZM10.1695 11.7646V13.0195C10.1695 13.1443 10.1052 13.264 9.99078 13.3523C9.87635 13.4405 9.72115 13.4901 9.55932 13.4901C9.39749 13.4901 9.2423 13.4405 9.12787 13.3523C9.01344 13.264 8.94915 13.1443 8.94915 13.0195V11.7646C8.94915 11.6398 9.01344 11.5201 9.12787 11.4318C9.2423 11.3436 9.39749 11.294 9.55932 11.294C9.72115 11.294 9.87635 11.3436 9.99078 11.4318C10.1052 11.5201 10.1695 11.6398 10.1695 11.7646Z" fill="black"/>
</svg>
