<svg width="24" height="24" viewBox="0 0 24 24" fill="none" xmlns="http://www.w3.org/2000/svg">
<path d="M23.25 12C23.25 12.1989 23.171 12.3897 23.0303 12.5303C22.8897 12.671 22.6989 12.75 22.5 12.75H20.9372C20.7585 13.7979 20.2153 14.749 19.4033 15.4352C18.5914 16.1214 17.5631 16.4985 16.5 16.5H12.75V18.75H15C15.7956 18.75 16.5587 19.0661 17.1213 19.6287C17.6839 20.1913 18 20.9544 18 21.75C18 21.9489 17.921 22.1397 17.7803 22.2803C17.6397 22.421 17.4489 22.5 17.25 22.5C17.0511 22.5 16.8603 22.421 16.7197 22.2803C16.579 22.1397 16.5 21.9489 16.5 21.75C16.5 21.3522 16.342 20.9706 16.0607 20.6893C15.7794 20.408 15.3978 20.25 15 20.25H12.75V21.75C12.75 21.9489 12.671 22.1397 12.5303 22.2803C12.3897 22.421 12.1989 22.5 12 22.5C11.8011 22.5 11.6103 22.421 11.4697 22.2803C11.329 22.1397 11.25 21.9489 11.25 21.75V20.25H9C8.60218 20.25 8.22064 20.408 7.93934 20.6893C7.65804 20.9706 7.5 21.3522 7.5 21.75C7.5 21.9489 7.42098 22.1397 7.28033 22.2803C7.13968 22.421 6.94891 22.5 6.75 22.5C6.55109 22.5 6.36032 22.421 6.21967 22.2803C6.07902 22.1397 6 21.9489 6 21.75C6 20.9544 6.31607 20.1913 6.87868 19.6287C7.44129 19.0661 8.20435 18.75 9 18.75H11.25V16.5H7.5C6.43694 16.4985 5.40861 16.1214 4.59668 15.4352C3.78474 14.749 3.24146 13.7979 3.06281 12.75H1.5C1.30109 12.75 1.11032 12.671 0.96967 12.5303C0.829018 12.3897 0.75 12.1989 0.75 12C0.75 11.8011 0.829018 11.6103 0.96967 11.4697C1.11032 11.329 1.30109 11.25 1.5 11.25H3.75C3.94891 11.25 4.13968 11.329 4.28033 11.4697C4.42098 11.6103 4.5 11.8011 4.5 12C4.5 12.7956 4.81607 13.5587 5.37868 14.1213C5.94129 14.6839 6.70435 15 7.5 15H16.5C17.2956 15 18.0587 14.6839 18.6213 14.1213C19.1839 13.5587 19.5 12.7956 19.5 12C19.5 11.8011 19.579 11.6103 19.7197 11.4697C19.8603 11.329 20.0511 11.25 20.25 11.25H22.5C22.6989 11.25 22.8897 11.329 23.0303 11.4697C23.171 11.6103 23.25 11.8011 23.25 12ZM6.36656 12.9825C6.22586 12.8202 6.12166 12.6296 6.06101 12.4235C6.00036 12.2175 5.98467 12.0008 6.015 11.7881L7.30125 2.78813C7.35374 2.43127 7.53243 2.10506 7.8049 1.86871C8.07738 1.63236 8.42556 1.50154 8.78625 1.5H15.2137C15.5744 1.50154 15.9226 1.63236 16.1951 1.86871C16.4676 2.10506 16.6463 2.43127 16.6987 2.78813L17.985 11.7881C18.0154 12.0009 17.9996 12.2176 17.9389 12.4238C17.8782 12.6299 17.7739 12.8206 17.6331 12.9829C17.4923 13.1452 17.3183 13.2754 17.1228 13.3646C16.9273 13.4538 16.7149 13.5 16.5 13.5H7.5C7.28503 13.5 7.07256 13.4538 6.87701 13.3645C6.68145 13.2752 6.50737 13.1449 6.36656 12.9825ZM7.5 12H16.5L15.2137 3H8.78531L7.5 12Z" fill="black"/>
</svg>
