<svg width="24" height="24" viewBox="0 0 24 24" fill="none" xmlns="http://www.w3.org/2000/svg">
<path d="M20.8798 20.1556C20.6843 18.9911 19.762 18.0845 18.6087 17.9045C18.1398 16.9978 17.2043 16.42 16.1754 16.42C15.6465 16.42 15.1265 16.5733 14.6909 16.8578C14.5487 16.5933 14.3709 16.3511 14.1554 16.1356C13.582 15.5556 12.8154 15.2378 11.9976 15.2378C11.4398 15.2378 10.8931 15.3911 10.422 15.6778C10.222 15.8 10.0376 15.9422 9.87759 16.0978C9.6487 16.3178 9.45314 16.5778 9.30648 16.8578C8.86648 16.5733 8.3487 16.4178 7.81759 16.4178C6.79314 16.4178 5.85314 16.9978 5.38648 17.9022C4.23092 18.0845 3.30648 18.9889 3.11537 20.1533C3.08426 20.3311 3.13537 20.5133 3.25537 20.6556C3.37759 20.8 3.55981 20.8845 3.7487 20.8845H20.2443C20.4376 20.8845 20.6176 20.8 20.7398 20.6556C20.8576 20.5156 20.9109 20.3333 20.8798 20.1556ZM6.44203 19.6689C6.2887 19.6689 6.1487 19.5289 6.1487 19.3733C6.1487 19.22 6.2887 19.0845 6.44203 19.0845C6.59759 19.0845 6.73537 19.22 6.73537 19.3733C6.73314 19.5289 6.59759 19.6689 6.44203 19.6689ZM8.4087 18.5133C8.25537 18.5133 8.11537 18.3733 8.11537 18.2178C8.11537 18.0645 8.25537 17.9289 8.4087 17.9289C8.56426 17.9289 8.70203 18.0645 8.70203 18.2178C8.70203 18.3756 8.56426 18.5133 8.4087 18.5133ZM9.39537 19.6378C9.24203 19.6378 9.10203 19.4978 9.10203 19.3422C9.10203 19.1889 9.24203 19.0533 9.39537 19.0533C9.55092 19.0533 9.6887 19.1889 9.6887 19.3422C9.6887 19.4978 9.55092 19.6378 9.39537 19.6378ZM11.4087 19.0956C11.2554 19.0956 11.1154 18.9556 11.1154 18.8C11.1154 18.6467 11.2554 18.5111 11.4087 18.5111C11.5643 18.5111 11.702 18.6467 11.702 18.8C11.6998 18.9578 11.5643 19.0956 11.4087 19.0956ZM11.8331 17.5C11.6798 17.5 11.5398 17.36 11.5398 17.2045C11.5398 17.0511 11.6798 16.9156 11.8331 16.9156C11.9887 16.9156 12.1265 17.0511 12.1265 17.2045C12.1265 17.36 11.9909 17.5 11.8331 17.5ZM13.4309 19.9511C13.2776 19.9511 13.1376 19.8111 13.1376 19.6556C13.1376 19.5022 13.2776 19.3667 13.4309 19.3667C13.5865 19.3667 13.7243 19.5022 13.7243 19.6556C13.7243 19.8133 13.5865 19.9511 13.4309 19.9511ZM13.9376 18.6333C13.7843 18.6333 13.6443 18.4933 13.6443 18.3378C13.6443 18.1845 13.7843 18.0489 13.9376 18.0489C14.0931 18.0489 14.2309 18.1845 14.2309 18.3378C14.2309 18.4956 14.0931 18.6333 13.9376 18.6333ZM16.2243 18.54C16.0709 18.54 15.9309 18.4 15.9309 18.2445C15.9309 18.0911 16.0709 17.9556 16.2243 17.9556C16.3798 17.9556 16.5176 18.0911 16.5176 18.2445C16.5154 18.4 16.3798 18.54 16.2243 18.54ZM17.9531 19.6378C17.7998 19.6378 17.6598 19.4978 17.6598 19.3422C17.6598 19.1889 17.7998 19.0533 17.9531 19.0533C18.1087 19.0533 18.2465 19.1889 18.2465 19.3422C18.2465 19.4978 18.1109 19.6378 17.9531 19.6378Z" fill="#0A0D14"/>
<path d="M12.0888 9.43781V15.5156C12.0888 15.6711 11.9643 15.7934 11.811 15.7934C11.6576 15.7934 11.5332 15.6711 11.5332 15.5156V9.43781C11.6243 9.44892 11.7176 9.45558 11.811 9.45558C11.9043 9.45336 11.9954 9.44892 12.0888 9.43781Z" fill="black"/>
<path d="M12.0887 12.6533C12.0887 12.72 12.0643 12.7889 12.0132 12.8422C11.9598 12.9 11.8843 12.9311 11.8087 12.9311C11.742 12.9311 11.6732 12.9067 11.6198 12.8555C11.5909 12.8267 11.562 12.8022 11.5309 12.7778C11.3376 12.6044 11.1354 12.44 10.9287 12.2911C11.0176 12.1222 11.082 11.9378 11.1176 11.7422C11.2576 11.8378 11.3932 11.94 11.5309 12.0511C11.6887 12.1733 11.8487 12.3067 11.9998 12.4467C12.0576 12.5022 12.0887 12.5778 12.0887 12.6533ZM18.3776 11.0978C17.8687 11.5622 17.542 12.1155 17.2265 12.6467C16.722 13.5022 16.2465 14.3067 15.142 14.38C15.0332 14.3911 14.9309 14.3978 14.8265 14.3978C14.1554 14.3978 13.5976 14.16 13.2354 13.7178C13.1598 13.6222 13.0932 13.5222 13.0398 13.4178C14.5332 12.4289 16.262 11.8089 16.2843 11.8044C16.4287 11.7533 16.5043 11.5955 16.4554 11.4511C16.402 11.3044 16.2443 11.2289 16.0976 11.2778C16.0087 11.3111 14.3665 11.8933 12.8598 12.8689C12.802 12.5222 12.8309 12.1444 12.9554 11.76C13.0732 11.3911 13.2665 11.0689 13.5154 10.82C14.4354 9.90666 16.0398 9.84221 18.2843 10.6311C18.3754 10.6622 18.4465 10.7422 18.4665 10.8378C18.4843 10.9333 18.4509 11.0311 18.3776 11.0978ZM13.0398 13.4178C12.702 13.64 12.3798 13.8822 12.0865 14.1422C12.0554 14.1667 12.0243 14.1933 11.9976 14.22C11.942 14.2667 11.8754 14.2933 11.8087 14.2933C11.7332 14.2933 11.6576 14.2622 11.602 14.2044C11.5554 14.1511 11.5287 14.0844 11.5287 14.0155C11.5287 13.94 11.5598 13.8644 11.6176 13.8089C11.7643 13.6733 11.9243 13.5422 12.0865 13.4133C12.3354 13.22 12.5932 13.04 12.8576 12.8689C12.8932 13.0622 12.9509 13.2467 13.0398 13.4178Z" fill="black"/>
<path d="M14.0554 7.20447C14.0554 8.34892 13.1931 9.29781 12.0887 9.43781V6.40447C12.0887 6.25114 11.9642 6.12669 11.8109 6.12669C11.6576 6.12669 11.5331 6.25114 11.5331 6.40447V9.43558C10.4242 9.30003 9.56202 8.34892 9.56202 7.20225C9.56202 6.05558 11.3754 3.50669 11.5842 3.22003C11.6865 3.07558 11.9309 3.07558 12.0354 3.22003C12.242 3.50892 14.0554 6.06003 14.0554 7.20447ZM7.32202 10.1889C7.27757 10.3334 7.35757 10.4889 7.50646 10.5378C7.52869 10.5467 9.34646 11.12 10.9287 12.2911C10.8731 12.3934 10.8087 12.4956 10.7331 12.5867C10.3509 13.0556 9.75757 13.3067 9.04202 13.3067C8.93091 13.3067 8.81535 13.3 8.70202 13.2867C7.54202 13.2134 7.03535 12.3556 6.49757 11.4467C6.1598 10.8756 5.80869 10.2845 5.26202 9.78669C5.19313 9.72003 5.1598 9.62003 5.17757 9.52447C5.19757 9.42669 5.26646 9.34892 5.3598 9.31558C7.74869 8.48003 9.45535 8.54669 10.4376 9.51558C10.6998 9.77781 10.902 10.12 11.0287 10.5111C11.1642 10.94 11.1931 11.36 11.1176 11.7423C9.50646 10.5889 7.7598 10.0334 7.67313 10.0067C7.52646 9.96225 7.36869 10.0423 7.32202 10.1889Z" fill="black"/>
</svg>
